G04 #@! TF.GenerationSoftware,KiCad,Pcbnew,(6.0.0-rc1-318-g91359c047d)*
G04 #@! TF.CreationDate,2022-02-27T09:20:33+02:00*
G04 #@! TF.ProjectId,ControlUnitRP2040,436f6e74-726f-46c5-956e-697452503230,rev?*
G04 #@! TF.SameCoordinates,Original*
G04 #@! TF.FileFunction,Copper,L1,Top*
G04 #@! TF.FilePolarity,Positive*
%FSLAX46Y46*%
G04 Gerber Fmt 4.6, Leading zero omitted, Abs format (unit mm)*
G04 Created by KiCad (PCBNEW (6.0.0-rc1-318-g91359c047d)) date 2022-02-27 09:20:33*
%MOMM*%
%LPD*%
G01*
G04 APERTURE LIST*
G04 Aperture macros list*
%AMRoundRect*
0 Rectangle with rounded corners*
0 $1 Rounding radius*
0 $2 $3 $4 $5 $6 $7 $8 $9 X,Y pos of 4 corners*
0 Add a 4 corners polygon primitive as box body*
4,1,4,$2,$3,$4,$5,$6,$7,$8,$9,$2,$3,0*
0 Add four circle primitives for the rounded corners*
1,1,$1+$1,$2,$3*
1,1,$1+$1,$4,$5*
1,1,$1+$1,$6,$7*
1,1,$1+$1,$8,$9*
0 Add four rect primitives between the rounded corners*
20,1,$1+$1,$2,$3,$4,$5,0*
20,1,$1+$1,$4,$5,$6,$7,0*
20,1,$1+$1,$6,$7,$8,$9,0*
20,1,$1+$1,$8,$9,$2,$3,0*%
G04 Aperture macros list end*
G04 #@! TA.AperFunction,Profile*
%ADD10C,0.100000*%
G04 #@! TD*
G04 #@! TA.AperFunction,SMDPad,CuDef*
%ADD11RoundRect,0.237500X0.250000X0.237500X-0.250000X0.237500X-0.250000X-0.237500X0.250000X-0.237500X0*%
G04 #@! TD*
G04 #@! TA.AperFunction,SMDPad,CuDef*
%ADD12R,1.610000X0.580000*%
G04 #@! TD*
G04 #@! TA.AperFunction,SMDPad,CuDef*
%ADD13RoundRect,0.237500X-0.237500X0.250000X-0.237500X-0.250000X0.237500X-0.250000X0.237500X0.250000X0*%
G04 #@! TD*
G04 #@! TA.AperFunction,SMDPad,CuDef*
%ADD14R,1.041400X0.660400*%
G04 #@! TD*
G04 #@! TA.AperFunction,SMDPad,CuDef*
%ADD15RoundRect,0.237500X0.300000X0.237500X-0.300000X0.237500X-0.300000X-0.237500X0.300000X-0.237500X0*%
G04 #@! TD*
G04 #@! TA.AperFunction,SMDPad,CuDef*
%ADD16RoundRect,0.237500X0.237500X-0.300000X0.237500X0.300000X-0.237500X0.300000X-0.237500X-0.300000X0*%
G04 #@! TD*
G04 #@! TA.AperFunction,SMDPad,CuDef*
%ADD17R,0.999999X0.500000*%
G04 #@! TD*
G04 #@! TA.AperFunction,SMDPad,CuDef*
%ADD18R,0.950000X0.950000*%
G04 #@! TD*
G04 #@! TA.AperFunction,ComponentPad*
%ADD19R,1.700000X1.700000*%
G04 #@! TD*
G04 #@! TA.AperFunction,ComponentPad*
%ADD20O,1.700000X1.700000*%
G04 #@! TD*
G04 #@! TA.AperFunction,SMDPad,CuDef*
%ADD21RoundRect,0.237500X-0.237500X0.300000X-0.237500X-0.300000X0.237500X-0.300000X0.237500X0.300000X0*%
G04 #@! TD*
G04 #@! TA.AperFunction,SMDPad,CuDef*
%ADD22RoundRect,0.237500X0.237500X-0.250000X0.237500X0.250000X-0.237500X0.250000X-0.237500X-0.250000X0*%
G04 #@! TD*
G04 #@! TA.AperFunction,SMDPad,CuDef*
%ADD23RoundRect,0.664200X0.145800X-1.695800X0.145800X1.695800X-0.145800X1.695800X-0.145800X-1.695800X0*%
G04 #@! TD*
G04 #@! TA.AperFunction,SMDPad,CuDef*
%ADD24RoundRect,0.237500X-0.250000X-0.237500X0.250000X-0.237500X0.250000X0.237500X-0.250000X0.237500X0*%
G04 #@! TD*
G04 #@! TA.AperFunction,SMDPad,CuDef*
%ADD25RoundRect,0.237500X-0.300000X-0.237500X0.300000X-0.237500X0.300000X0.237500X-0.300000X0.237500X0*%
G04 #@! TD*
G04 #@! TA.AperFunction,SMDPad,CuDef*
%ADD26R,1.350000X0.400000*%
G04 #@! TD*
G04 #@! TA.AperFunction,SMDPad,CuDef*
%ADD27R,1.400000X1.600000*%
G04 #@! TD*
G04 #@! TA.AperFunction,SMDPad,CuDef*
%ADD28R,1.900000X1.900000*%
G04 #@! TD*
G04 #@! TA.AperFunction,ComponentPad*
%ADD29O,1.800000X0.900000*%
G04 #@! TD*
G04 #@! TA.AperFunction,SMDPad,CuDef*
%ADD30R,1.041400X0.454000*%
G04 #@! TD*
G04 #@! TA.AperFunction,SMDPad,CuDef*
%ADD31R,0.177800X0.812800*%
G04 #@! TD*
G04 #@! TA.AperFunction,SMDPad,CuDef*
%ADD32R,0.812800X0.177800*%
G04 #@! TD*
G04 #@! TA.AperFunction,SMDPad,CuDef*
%ADD33R,3.200400X3.200400*%
G04 #@! TD*
G04 #@! TA.AperFunction,ViaPad*
%ADD34C,0.700000*%
G04 #@! TD*
G04 #@! TA.AperFunction,Conductor*
%ADD35C,0.400000*%
G04 #@! TD*
G04 #@! TA.AperFunction,Conductor*
%ADD36C,1.350000*%
G04 #@! TD*
G04 #@! TA.AperFunction,Conductor*
%ADD37C,0.200000*%
G04 #@! TD*
G04 #@! TA.AperFunction,Conductor*
%ADD38C,0.770000*%
G04 #@! TD*
G04 APERTURE END LIST*
D10*
X110000001Y-71000001D02*
X172000000Y-71000000D01*
X106000001Y-109999999D02*
X106000001Y-75000001D01*
X171999999Y-113999999D02*
X110000001Y-113999999D01*
X176000000Y-75000000D02*
X175999999Y-109999999D01*
X176000000Y-75000000D02*
G75*
G03*
X172000000Y-71000000I-4000000J0D01*
G01*
X110000001Y-71000001D02*
G75*
G03*
X106000001Y-75000001I0J-4000000D01*
G01*
X106000001Y-109999999D02*
G75*
G03*
X110000001Y-113999999I4000000J0D01*
G01*
X171999999Y-113999999D02*
G75*
G03*
X175999999Y-109999999I0J4000000D01*
G01*
D11*
X124412500Y-91186000D03*
X122587500Y-91186000D03*
D12*
X124509000Y-109347000D03*
X124509000Y-108077000D03*
X124509000Y-106807000D03*
X124509000Y-105537000D03*
X117299000Y-105537000D03*
X117299000Y-106807000D03*
X117299000Y-108077000D03*
X117299000Y-109347000D03*
D13*
X152500000Y-87479500D03*
X152500000Y-89304500D03*
D14*
X142705000Y-107383001D03*
X146855000Y-107383001D03*
X142705000Y-109532999D03*
X146855000Y-109532999D03*
D15*
X123112500Y-95250000D03*
X121387500Y-95250000D03*
D16*
X131826000Y-85444500D03*
X131826000Y-83719500D03*
D11*
X122587500Y-93250000D03*
X124412500Y-93250000D03*
D17*
X122602000Y-81799999D03*
X122602000Y-82750000D03*
X122602000Y-83700001D03*
X125302000Y-83700001D03*
X125302000Y-81799999D03*
D18*
X169000000Y-93350000D03*
X169000000Y-91850000D03*
D15*
X124814500Y-77750000D03*
X123089500Y-77750000D03*
D19*
X161800000Y-107800000D03*
D20*
X161800000Y-105260000D03*
X161800000Y-102720000D03*
X161800000Y-100180000D03*
D19*
X161750000Y-91225000D03*
D20*
X161750000Y-93765000D03*
D21*
X131730000Y-102007500D03*
X131730000Y-103732500D03*
D13*
X131730000Y-107291500D03*
X131730000Y-109116500D03*
D22*
X152500000Y-93622500D03*
X152500000Y-91797500D03*
D16*
X127762000Y-85444500D03*
X127762000Y-83719500D03*
X129698000Y-85444500D03*
X129698000Y-83719500D03*
D13*
X137668000Y-101957500D03*
X137668000Y-103782500D03*
D23*
X144724400Y-98770000D03*
X144724400Y-89190000D03*
D24*
X137517500Y-83566000D03*
X139342500Y-83566000D03*
D15*
X123112500Y-89000000D03*
X121387500Y-89000000D03*
D25*
X118137500Y-77750000D03*
X119862500Y-77750000D03*
X143917500Y-81534000D03*
X145642500Y-81534000D03*
D13*
X118000000Y-81837500D03*
X118000000Y-83662500D03*
D26*
X110275000Y-91200000D03*
X110275000Y-91850000D03*
X110275000Y-92500000D03*
X110275000Y-93150000D03*
X110275000Y-93800000D03*
D27*
X110050000Y-89300000D03*
X110050000Y-95700000D03*
D28*
X107600000Y-93700000D03*
X107600000Y-91300000D03*
D29*
X107600000Y-89200000D03*
X107600000Y-95800000D03*
D25*
X143917500Y-83566000D03*
X145642500Y-83566000D03*
D19*
X161750000Y-77475000D03*
D20*
X161750000Y-80015000D03*
X161750000Y-82555000D03*
D16*
X148788400Y-89254500D03*
X148788400Y-87529500D03*
D21*
X135540000Y-102007500D03*
X135540000Y-103732500D03*
D16*
X135540000Y-85444500D03*
X135540000Y-83719500D03*
D30*
X114000000Y-80846600D03*
X114000000Y-84653400D03*
D22*
X148788400Y-93622500D03*
X148788400Y-91797500D03*
D21*
X148788400Y-98705500D03*
X148788400Y-100430500D03*
D25*
X129612500Y-111750000D03*
X127887500Y-111750000D03*
D15*
X124814500Y-99568000D03*
X123089500Y-99568000D03*
D31*
X131826400Y-96829600D03*
X132232800Y-96829600D03*
X132639200Y-96829600D03*
X133045600Y-96829600D03*
X133452000Y-96829600D03*
X133858400Y-96829600D03*
X134264800Y-96829600D03*
X134671200Y-96829600D03*
X135077600Y-96829600D03*
X135484000Y-96829600D03*
X135890400Y-96829600D03*
X136296800Y-96829600D03*
X136703200Y-96829600D03*
X137109600Y-96829600D03*
D32*
X137871600Y-96067600D03*
X137871600Y-95661200D03*
X137871600Y-95254800D03*
X137871600Y-94848400D03*
X137871600Y-94442000D03*
X137871600Y-94035600D03*
X137871600Y-93629200D03*
X137871600Y-93222800D03*
X137871600Y-92816400D03*
X137871600Y-92410000D03*
X137871600Y-92003600D03*
X137871600Y-91597200D03*
X137871600Y-91190800D03*
X137871600Y-90784400D03*
D31*
X137109600Y-90022400D03*
X136703200Y-90022400D03*
X136296800Y-90022400D03*
X135890400Y-90022400D03*
X135484000Y-90022400D03*
X135077600Y-90022400D03*
X134671200Y-90022400D03*
X134264800Y-90022400D03*
X133858400Y-90022400D03*
X133452000Y-90022400D03*
X133045600Y-90022400D03*
X132639200Y-90022400D03*
X132232800Y-90022400D03*
X131826400Y-90022400D03*
D32*
X131064400Y-90784400D03*
X131064400Y-91190800D03*
X131064400Y-91597200D03*
X131064400Y-92003600D03*
X131064400Y-92410000D03*
X131064400Y-92816400D03*
X131064400Y-93222800D03*
X131064400Y-93629200D03*
X131064400Y-94035600D03*
X131064400Y-94442000D03*
X131064400Y-94848400D03*
X131064400Y-95254800D03*
X131064400Y-95661200D03*
X131064400Y-96067600D03*
D33*
X134468000Y-93426000D03*
D34*
X121000000Y-109250000D03*
X124250000Y-111750000D03*
X137821500Y-98906500D03*
X109000000Y-104000000D03*
X110050000Y-99050000D03*
X126873000Y-105537000D03*
X135600000Y-94600000D03*
X133300000Y-94600000D03*
X133300000Y-93400000D03*
X135600000Y-93400000D03*
X135600000Y-92300000D03*
X133300000Y-92300000D03*
X141250000Y-95000000D03*
X140700000Y-96200000D03*
X133000000Y-99500000D03*
X134500000Y-99500000D03*
X148785001Y-109532999D03*
X155750000Y-99500000D03*
X148788400Y-102211600D03*
X152500000Y-96200000D03*
X148788400Y-85711600D03*
X152500000Y-85500000D03*
X150500000Y-83000000D03*
X143917500Y-85444500D03*
X145642500Y-79856500D03*
X143764000Y-80010000D03*
X138444500Y-85444500D03*
X134500000Y-87750000D03*
X133000000Y-87750000D03*
X165000000Y-111000000D03*
X166750000Y-106500000D03*
X172500000Y-103500000D03*
X172400000Y-93350000D03*
X172500000Y-97500000D03*
X172500000Y-87500000D03*
X172500000Y-80000000D03*
X165000000Y-72500000D03*
X150000000Y-72500000D03*
X135500000Y-72500000D03*
X135540000Y-82138000D03*
X131826000Y-82042000D03*
X129698000Y-82052000D03*
X127762000Y-82042000D03*
X125754000Y-86496000D03*
X125754000Y-79754000D03*
X123250000Y-86500000D03*
X120000000Y-82250000D03*
X121500000Y-77750000D03*
X118000000Y-75000000D03*
X115000000Y-72500000D03*
X110000000Y-80000000D03*
X121387500Y-97862500D03*
X124798000Y-97198000D03*
X118750000Y-100000000D03*
X124814500Y-101446500D03*
X140520999Y-109532999D03*
X133858000Y-104394000D03*
X137668000Y-105918000D03*
X134880000Y-109220000D03*
X113538000Y-95758000D03*
X110050000Y-85950000D03*
D35*
X120903000Y-109347000D02*
X121000000Y-109250000D01*
X117299000Y-109347000D02*
X120903000Y-109347000D01*
D36*
X127887500Y-111750000D02*
X124250000Y-111750000D01*
D37*
X131833500Y-109220000D02*
X131730000Y-109116500D01*
X134880000Y-109220000D02*
X131833500Y-109220000D01*
X152500000Y-87479500D02*
X152500000Y-85500000D01*
X135758000Y-94442000D02*
X135600000Y-94600000D01*
X137871600Y-94442000D02*
X135758000Y-94442000D01*
X140692000Y-94442000D02*
X141250000Y-95000000D01*
X137871600Y-94442000D02*
X140692000Y-94442000D01*
X133858400Y-98641600D02*
X133000000Y-99500000D01*
X133858400Y-96829600D02*
X133858400Y-98641600D01*
X134500000Y-98500000D02*
X134500000Y-99500000D01*
X134264800Y-98264800D02*
X134500000Y-98500000D01*
X134264800Y-96829600D02*
X134264800Y-98264800D01*
X148788400Y-85711600D02*
X148788400Y-85653600D01*
X133858400Y-90022400D02*
X133858400Y-88391600D01*
X133858400Y-88391600D02*
X134500000Y-87750000D01*
X133452000Y-90022400D02*
X133452000Y-88202000D01*
X133452000Y-88202000D02*
X133000000Y-87750000D01*
X169000000Y-93350000D02*
X172400000Y-93350000D01*
X129698000Y-82138000D02*
X129698000Y-82052000D01*
D36*
X125754000Y-86496000D02*
X126710500Y-86496000D01*
X126710500Y-86496000D02*
X127762000Y-85444500D01*
D38*
X112650000Y-93250000D02*
X122587500Y-93250000D01*
X112600000Y-93200000D02*
X112650000Y-93250000D01*
X112614000Y-91186000D02*
X122587500Y-91186000D01*
X112600000Y-91200000D02*
X112614000Y-91186000D01*
D37*
X125314000Y-91186000D02*
X124412500Y-91186000D01*
X131064400Y-92003600D02*
X126131600Y-92003600D01*
X126131600Y-92003600D02*
X125314000Y-91186000D01*
X125250000Y-93250000D02*
X124412500Y-93250000D01*
X126090000Y-92410000D02*
X125250000Y-93250000D01*
X131064400Y-92410000D02*
X126090000Y-92410000D01*
X125750000Y-96250000D02*
X124802000Y-97198000D01*
X127000000Y-93000000D02*
X125750000Y-94250000D01*
X124802000Y-97198000D02*
X124798000Y-97198000D01*
X125750000Y-94250000D02*
X125750000Y-96250000D01*
X127000000Y-93000000D02*
X128750000Y-93000000D01*
X131064400Y-93222800D02*
X128972800Y-93222800D01*
X128972800Y-93222800D02*
X128750000Y-93000000D01*
D36*
X125754000Y-81347999D02*
X125302000Y-81799999D01*
X125754000Y-79754000D02*
X125754000Y-81347999D01*
X125754000Y-78689500D02*
X124814500Y-77750000D01*
X125754000Y-79754000D02*
X125754000Y-78689500D01*
D37*
X128347200Y-91597200D02*
X126750000Y-90000000D01*
X131064400Y-91597200D02*
X128347200Y-91597200D01*
D36*
X125750000Y-89000000D02*
X126750000Y-90000000D01*
X123112500Y-89000000D02*
X125750000Y-89000000D01*
X123250000Y-88862500D02*
X123112500Y-89000000D01*
X123250000Y-86500000D02*
X123250000Y-88862500D01*
D35*
X120500000Y-82750000D02*
X120000000Y-82250000D01*
X122602000Y-82750000D02*
X120500000Y-82750000D01*
X118037501Y-83700001D02*
X118000000Y-83662500D01*
X122602000Y-83700001D02*
X118037501Y-83700001D01*
X119612500Y-79862500D02*
X118137500Y-79862500D01*
X122602000Y-81799999D02*
X121549999Y-81799999D01*
D36*
X118137500Y-79862500D02*
X118137500Y-81700000D01*
D35*
X121549999Y-81799999D02*
X119612500Y-79862500D01*
D36*
X118137500Y-77750000D02*
X118137500Y-79862500D01*
X118137500Y-81700000D02*
X118000000Y-81837500D01*
X115000000Y-77750000D02*
X118137500Y-77750000D01*
X114000000Y-78750000D02*
X115000000Y-77750000D01*
X114000000Y-80846600D02*
X114000000Y-78750000D01*
X114000000Y-88100000D02*
X113000000Y-89100000D01*
X114000000Y-84653400D02*
X114000000Y-88100000D01*
D37*
X123089500Y-77750000D02*
X121500000Y-77750000D01*
X119862500Y-77750000D02*
X121500000Y-77750000D01*
D36*
X118000000Y-77612500D02*
X118137500Y-77750000D01*
X118000000Y-75000000D02*
X118000000Y-77612500D01*
D37*
X128750000Y-93000000D02*
X128940480Y-92809520D01*
X131059520Y-92809520D02*
X128940480Y-92809520D01*
X131064400Y-92814400D02*
X131059520Y-92809520D01*
X131064400Y-92816400D02*
X131064400Y-92814400D01*
X121387500Y-97862500D02*
X121387500Y-97866000D01*
X121387500Y-97866000D02*
X123089500Y-99568000D01*
X121387500Y-95250000D02*
X121387500Y-97862500D01*
D36*
X123112500Y-95512500D02*
X124798000Y-97198000D01*
X123112500Y-95250000D02*
X123112500Y-95512500D01*
D37*
X123089500Y-95250000D02*
X123089500Y-95410500D01*
D35*
X111000000Y-91200000D02*
X113000000Y-89200000D01*
X110275000Y-91200000D02*
X111000000Y-91200000D01*
X111900000Y-92500000D02*
X112600000Y-93200000D01*
X110275000Y-92500000D02*
X111900000Y-92500000D01*
X111950000Y-91850000D02*
X112600000Y-91200000D01*
X110275000Y-91850000D02*
X111950000Y-91850000D01*
D37*
X131826400Y-96829600D02*
X131826400Y-101911100D01*
X131826400Y-101911100D02*
X131730000Y-102007500D01*
D36*
X127762000Y-85444500D02*
X129698000Y-85444500D01*
X137821500Y-85444500D02*
X138444500Y-85444500D01*
D37*
X131826400Y-90022400D02*
X131826400Y-85444900D01*
D36*
X135590000Y-101957500D02*
X135540000Y-102007500D01*
D37*
X135484000Y-101951500D02*
X135484000Y-96829600D01*
X129290800Y-91190800D02*
X128778000Y-90678000D01*
D36*
X143917500Y-83566000D02*
X143917500Y-85444500D01*
D37*
X135484000Y-85500500D02*
X135540000Y-85444500D01*
X135484000Y-90022400D02*
X135484000Y-85500500D01*
D36*
X131826000Y-85444500D02*
X135540000Y-85444500D01*
D37*
X129698000Y-85444500D02*
X129698000Y-90582000D01*
X142240000Y-83566000D02*
X143917500Y-83566000D01*
X137871600Y-93222800D02*
X140965200Y-93222800D01*
X129290800Y-91190800D02*
X131064400Y-91190800D01*
X129900400Y-90784400D02*
X131064400Y-90784400D01*
D36*
X129698000Y-85444500D02*
X131826000Y-85444500D01*
D37*
X141478000Y-84328000D02*
X142240000Y-83566000D01*
D36*
X135540000Y-102007500D02*
X131730000Y-102007500D01*
X135540000Y-85444500D02*
X137821500Y-85444500D01*
D37*
X131826400Y-85444900D02*
X131826000Y-85444500D01*
D36*
X150500000Y-79000000D02*
X150500000Y-83000000D01*
D37*
X135540000Y-102007500D02*
X135484000Y-101951500D01*
D36*
X137821500Y-101804000D02*
X137668000Y-101957500D01*
X137668000Y-101957500D02*
X135590000Y-101957500D01*
X137821500Y-98906500D02*
X137821500Y-101804000D01*
D37*
X141478000Y-92710000D02*
X141478000Y-84328000D01*
X128778000Y-86460500D02*
X127762000Y-85444500D01*
X129698000Y-90582000D02*
X129900400Y-90784400D01*
D36*
X152025000Y-77475000D02*
X150500000Y-79000000D01*
D37*
X140965200Y-93222800D02*
X141478000Y-92710000D01*
D36*
X137517500Y-85140500D02*
X137821500Y-85444500D01*
X161750000Y-77475000D02*
X152025000Y-77475000D01*
D37*
X128778000Y-90678000D02*
X128778000Y-86460500D01*
D36*
X137517500Y-83566000D02*
X137517500Y-85140500D01*
D37*
X131826000Y-83719500D02*
X131826000Y-82042000D01*
X133196500Y-103732500D02*
X133858000Y-104394000D01*
X134519500Y-103732500D02*
X133858000Y-104394000D01*
D35*
X111580000Y-93800000D02*
X113538000Y-95758000D01*
D37*
X127762000Y-83719500D02*
X127762000Y-82042000D01*
X129698000Y-83719500D02*
X129698000Y-82138000D01*
X148788400Y-100430500D02*
X148788400Y-102211600D01*
X146855000Y-109532999D02*
X148785001Y-109532999D01*
X148788400Y-87529500D02*
X148788400Y-85711600D01*
X145642500Y-83566000D02*
X145642500Y-81534000D01*
X145642500Y-81534000D02*
X145642500Y-79856500D01*
X110050000Y-89300000D02*
X110050000Y-85950000D01*
X135540000Y-83719500D02*
X135540000Y-82138000D01*
D35*
X110275000Y-93800000D02*
X107700000Y-93800000D01*
X107700000Y-93800000D02*
X107600000Y-93700000D01*
D37*
X124509000Y-105537000D02*
X126873000Y-105537000D01*
D35*
X107600000Y-93700000D02*
X107600000Y-91300000D01*
D37*
X131730000Y-103732500D02*
X133196500Y-103732500D01*
D35*
X110275000Y-93800000D02*
X111580000Y-93800000D01*
D37*
X135540000Y-103732500D02*
X134519500Y-103732500D01*
X110050000Y-95700000D02*
X110050000Y-99050000D01*
X142705000Y-109532999D02*
X140520999Y-109532999D01*
X137871600Y-92816400D02*
X140101600Y-92816400D01*
X140101600Y-92816400D02*
X140716000Y-92202000D01*
D36*
X124814500Y-101446500D02*
X120196500Y-101446500D01*
D37*
X141478000Y-81534000D02*
X143917500Y-81534000D01*
X126238000Y-94488000D02*
X126238000Y-99060000D01*
X125730000Y-99568000D02*
X124814500Y-99568000D01*
D36*
X143764000Y-80010000D02*
X143764000Y-81380500D01*
X143764000Y-81380500D02*
X143917500Y-81534000D01*
D37*
X127096800Y-93629200D02*
X126238000Y-94488000D01*
X131064400Y-93629200D02*
X127096800Y-93629200D01*
X140716000Y-92202000D02*
X140716000Y-82296000D01*
D36*
X120196500Y-101446500D02*
X118750000Y-100000000D01*
D37*
X140716000Y-82296000D02*
X141478000Y-81534000D01*
X126238000Y-99060000D02*
X125730000Y-99568000D01*
D36*
X124814500Y-99568000D02*
X124814500Y-101446500D01*
D37*
X137871600Y-94035600D02*
X143764000Y-94035600D01*
X148723900Y-98770000D02*
X148788400Y-98705500D01*
X144724400Y-94996000D02*
X144724400Y-98770000D01*
X144724400Y-98770000D02*
X148723900Y-98770000D01*
X143764000Y-94035600D02*
X144724400Y-94996000D01*
X144724400Y-89190000D02*
X148723900Y-89190000D01*
X148723900Y-89190000D02*
X148788400Y-89254500D01*
X148788400Y-89254500D02*
X148788400Y-91797500D01*
X139954000Y-91186000D02*
X139954000Y-84177500D01*
X139954000Y-84177500D02*
X139342500Y-83566000D01*
X139542800Y-91597200D02*
X139954000Y-91186000D01*
X137871600Y-91597200D02*
X139542800Y-91597200D01*
X152500000Y-91797500D02*
X153072500Y-91225000D01*
X153072500Y-91225000D02*
X161750000Y-91225000D01*
X169000000Y-89000000D02*
X168000000Y-88000000D01*
X156695500Y-89304500D02*
X152500000Y-89304500D01*
X168000000Y-88000000D02*
X158000000Y-88000000D01*
X158000000Y-88000000D02*
X156695500Y-89304500D01*
X169000000Y-91850000D02*
X169000000Y-89000000D01*
X148781700Y-93629200D02*
X148788400Y-93622500D01*
X137871600Y-93629200D02*
X148781700Y-93629200D01*
X131821501Y-107383001D02*
X131730000Y-107291500D01*
X146855000Y-107383001D02*
X142705000Y-107383001D01*
X142705000Y-107383001D02*
X131821501Y-107383001D01*
X115327000Y-108077000D02*
X115000000Y-107750000D01*
X127452400Y-94035600D02*
X131064400Y-94035600D01*
X115000000Y-103500000D02*
X115376000Y-103124000D01*
X125984000Y-103124000D02*
X126746000Y-102362000D01*
X115376000Y-103124000D02*
X125984000Y-103124000D01*
X126746000Y-102362000D02*
X126746000Y-94742000D01*
X126746000Y-94742000D02*
X127452400Y-94035600D01*
X117299000Y-108077000D02*
X115327000Y-108077000D01*
X115000000Y-107750000D02*
X115000000Y-103500000D01*
X115943000Y-106807000D02*
X115500000Y-106364000D01*
X115868000Y-103632000D02*
X126492000Y-103632000D01*
X117299000Y-106807000D02*
X115943000Y-106807000D01*
X126492000Y-103632000D02*
X127254000Y-102870000D01*
X127254000Y-94996000D02*
X127808000Y-94442000D01*
X115500000Y-106364000D02*
X115500000Y-104000000D01*
X127808000Y-94442000D02*
X131064400Y-94442000D01*
X127254000Y-102870000D02*
X127254000Y-94996000D01*
X115500000Y-104000000D02*
X115868000Y-103632000D01*
X127381000Y-106807000D02*
X124509000Y-106807000D01*
X128270000Y-105918000D02*
X127381000Y-106807000D01*
X128270000Y-95758000D02*
X128270000Y-105918000D01*
X131064400Y-95254800D02*
X128773200Y-95254800D01*
X128773200Y-95254800D02*
X128270000Y-95758000D01*
X131064400Y-95661200D02*
X129128800Y-95661200D01*
X128778000Y-96012000D02*
X128778000Y-107188000D01*
X127889000Y-108077000D02*
X124509000Y-108077000D01*
X129128800Y-95661200D02*
X128778000Y-96012000D01*
X128778000Y-107188000D02*
X127889000Y-108077000D01*
X129286000Y-108458000D02*
X128397000Y-109347000D01*
X129286000Y-96520000D02*
X129286000Y-108458000D01*
X129944500Y-109116500D02*
X131730000Y-109116500D01*
X128397000Y-109347000D02*
X124509000Y-109347000D01*
X131064400Y-96067600D02*
X129738400Y-96067600D01*
X129286000Y-108458000D02*
X129944500Y-109116500D01*
X129738400Y-96067600D02*
X129286000Y-96520000D01*
X137668000Y-103782500D02*
X137668000Y-105918000D01*
X117299000Y-105537000D02*
X117299000Y-104731000D01*
X127762000Y-95504000D02*
X127762000Y-103378000D01*
X128417600Y-94848400D02*
X127762000Y-95504000D01*
X127762000Y-103378000D02*
X127000000Y-104140000D01*
X131064400Y-94848400D02*
X128417600Y-94848400D01*
X127000000Y-104140000D02*
X117890000Y-104140000D01*
X117299000Y-104731000D02*
X117890000Y-104140000D01*
X137871600Y-95254800D02*
X139754800Y-95254800D01*
X139754800Y-95254800D02*
X140700000Y-96200000D01*
X152500000Y-93622500D02*
X152500000Y-96200000D01*
G04 #@! TA.AperFunction,Conductor*
G36*
X167859121Y-71603002D02*
G01*
X167905614Y-71656658D01*
X167917000Y-71709000D01*
X167917000Y-74953736D01*
X167915932Y-74970109D01*
X167911969Y-75000349D01*
X167913023Y-75008322D01*
X167913052Y-75008946D01*
X167913053Y-75011258D01*
X167913270Y-75013704D01*
X167927438Y-75321936D01*
X167930099Y-75379826D01*
X167930486Y-75382644D01*
X167930487Y-75382651D01*
X167932030Y-75393874D01*
X167981830Y-75756166D01*
X168067426Y-76126275D01*
X168186183Y-76487113D01*
X168337126Y-76835715D01*
X168519014Y-77169218D01*
X168541593Y-77202942D01*
X168713543Y-77459770D01*
X168730354Y-77484880D01*
X168819838Y-77595392D01*
X168900723Y-77695284D01*
X168969408Y-77780110D01*
X168971394Y-77782153D01*
X168971396Y-77782155D01*
X169188138Y-78005089D01*
X169234213Y-78052480D01*
X169236386Y-78054343D01*
X169236390Y-78054347D01*
X169378403Y-78176117D01*
X169522593Y-78299754D01*
X169723167Y-78442382D01*
X169816303Y-78508611D01*
X169832178Y-78519900D01*
X169834645Y-78521337D01*
X169834648Y-78521339D01*
X170157960Y-78709673D01*
X170157968Y-78709677D01*
X170160426Y-78711109D01*
X170163010Y-78712315D01*
X170163015Y-78712318D01*
X170502040Y-78870597D01*
X170502047Y-78870600D01*
X170504639Y-78871810D01*
X170547156Y-78887143D01*
X170859302Y-78999713D01*
X170859309Y-78999715D01*
X170861990Y-79000682D01*
X170864754Y-79001404D01*
X170864761Y-79001406D01*
X171116104Y-79067044D01*
X171229541Y-79096668D01*
X171232365Y-79097138D01*
X171232367Y-79097138D01*
X171416907Y-79127823D01*
X171604274Y-79158978D01*
X171607125Y-79159190D01*
X171607128Y-79159190D01*
X171755797Y-79170226D01*
X171969765Y-79186109D01*
X171972214Y-79186397D01*
X171974539Y-79186464D01*
X171975147Y-79186509D01*
X171983090Y-79187788D01*
X171991305Y-79186946D01*
X171991306Y-79186946D01*
X172023394Y-79183657D01*
X172036241Y-79183000D01*
X175291000Y-79183000D01*
X175359121Y-79203002D01*
X175405614Y-79256658D01*
X175417000Y-79309000D01*
X175417000Y-105791000D01*
X175396998Y-105859121D01*
X175343342Y-105905614D01*
X175291000Y-105917000D01*
X172028302Y-105917000D01*
X172018259Y-105916599D01*
X171978194Y-105913395D01*
X171978192Y-105913395D01*
X171969962Y-105912737D01*
X171964597Y-105913724D01*
X171958551Y-105914312D01*
X171958550Y-105914312D01*
X171754736Y-105934144D01*
X171579025Y-105951241D01*
X171309583Y-106002720D01*
X171196038Y-106024413D01*
X171196034Y-106024414D01*
X171193197Y-106024956D01*
X170815750Y-106133726D01*
X170813071Y-106134772D01*
X170813072Y-106134772D01*
X170452536Y-106275588D01*
X170452532Y-106275590D01*
X170449861Y-106276633D01*
X170098612Y-106452476D01*
X169764958Y-106659774D01*
X169762650Y-106661520D01*
X169762646Y-106661523D01*
X169454029Y-106895025D01*
X169454020Y-106895032D01*
X169451709Y-106896781D01*
X169161502Y-107161502D01*
X168896781Y-107451709D01*
X168895032Y-107454020D01*
X168895025Y-107454029D01*
X168661523Y-107762646D01*
X168659774Y-107764958D01*
X168452476Y-108098612D01*
X168399689Y-108204054D01*
X168297975Y-108407231D01*
X168276633Y-108449861D01*
X168275590Y-108452532D01*
X168275588Y-108452536D01*
X168159611Y-108749475D01*
X168133726Y-108815750D01*
X168024956Y-109193197D01*
X168024414Y-109196034D01*
X168024413Y-109196038D01*
X168009418Y-109274524D01*
X167951241Y-109579025D01*
X167913724Y-109964597D01*
X167912737Y-109969962D01*
X167913395Y-109978192D01*
X167913395Y-109978194D01*
X167916599Y-110018259D01*
X167917000Y-110028302D01*
X167917000Y-113291000D01*
X167896998Y-113359121D01*
X167843342Y-113405614D01*
X167791000Y-113417000D01*
X114309000Y-113417000D01*
X114240879Y-113396998D01*
X114194386Y-113343342D01*
X114183000Y-113291000D01*
X114183000Y-111843254D01*
X123065094Y-111843254D01*
X123066073Y-111848951D01*
X123066073Y-111848952D01*
X123097839Y-112033815D01*
X123101930Y-112057625D01*
X123177214Y-112261693D01*
X123288427Y-112448624D01*
X123431842Y-112612158D01*
X123436373Y-112615730D01*
X123585129Y-112733000D01*
X123602658Y-112746819D01*
X123795154Y-112848095D01*
X123837342Y-112861195D01*
X123997361Y-112910883D01*
X123997364Y-112910884D01*
X124002882Y-112912597D01*
X124008619Y-112913276D01*
X124175803Y-112933064D01*
X124175810Y-112933064D01*
X124179490Y-112933500D01*
X127942676Y-112933500D01*
X128104100Y-112918667D01*
X128109662Y-112917098D01*
X128109664Y-112917098D01*
X128208773Y-112889146D01*
X128313445Y-112859626D01*
X128508526Y-112763423D01*
X128549268Y-112733000D01*
X128678185Y-112636733D01*
X128678186Y-112636732D01*
X128682809Y-112633280D01*
X128686726Y-112629043D01*
X128705556Y-112608673D01*
X128766485Y-112572229D01*
X128837445Y-112574510D01*
X128864196Y-112586943D01*
X128989063Y-112663912D01*
X129002241Y-112670056D01*
X129153766Y-112720315D01*
X129167132Y-112723181D01*
X129259770Y-112732672D01*
X129266185Y-112733000D01*
X129340385Y-112733000D01*
X129355624Y-112728525D01*
X129356829Y-112727135D01*
X129358500Y-112719452D01*
X129358500Y-112714885D01*
X129866500Y-112714885D01*
X129870975Y-112730124D01*
X129872365Y-112731329D01*
X129880048Y-112733000D01*
X129958766Y-112733000D01*
X129965282Y-112732663D01*
X130059132Y-112722925D01*
X130072528Y-112720032D01*
X130223953Y-112669512D01*
X130237115Y-112663347D01*
X130372492Y-112579574D01*
X130383890Y-112570540D01*
X130496363Y-112457871D01*
X130505375Y-112446460D01*
X130588912Y-112310937D01*
X130595056Y-112297759D01*
X130645315Y-112146234D01*
X130648181Y-112132868D01*
X130657672Y-112040230D01*
X130658000Y-112033815D01*
X130658000Y-112022115D01*
X130653525Y-112006876D01*
X130652135Y-112005671D01*
X130644452Y-112004000D01*
X129884615Y-112004000D01*
X129869376Y-112008475D01*
X129868171Y-112009865D01*
X129866500Y-112017548D01*
X129866500Y-112714885D01*
X129358500Y-112714885D01*
X129358500Y-111477885D01*
X129866500Y-111477885D01*
X129870975Y-111493124D01*
X129872365Y-111494329D01*
X129880048Y-111496000D01*
X130639885Y-111496000D01*
X130655124Y-111491525D01*
X130656329Y-111490135D01*
X130658000Y-111482452D01*
X130658000Y-111466234D01*
X130657663Y-111459718D01*
X130647925Y-111365868D01*
X130645032Y-111352472D01*
X130594512Y-111201047D01*
X130588347Y-111187885D01*
X130504574Y-111052508D01*
X130495540Y-111041110D01*
X130382871Y-110928637D01*
X130371460Y-110919625D01*
X130235937Y-110836088D01*
X130222759Y-110829944D01*
X130071234Y-110779685D01*
X130057868Y-110776819D01*
X129965230Y-110767328D01*
X129958815Y-110767000D01*
X129884615Y-110767000D01*
X129869376Y-110771475D01*
X129868171Y-110772865D01*
X129866500Y-110780548D01*
X129866500Y-111477885D01*
X129358500Y-111477885D01*
X129358500Y-110785115D01*
X129354025Y-110769876D01*
X129352635Y-110768671D01*
X129344952Y-110767000D01*
X129266234Y-110767000D01*
X129259718Y-110767337D01*
X129165868Y-110777075D01*
X129152472Y-110779968D01*
X129001047Y-110830488D01*
X128987889Y-110836651D01*
X128866527Y-110911752D01*
X128798075Y-110930589D01*
X128730305Y-110909427D01*
X128713491Y-110896004D01*
X128709467Y-110892185D01*
X128705658Y-110887842D01*
X128640009Y-110836088D01*
X128539376Y-110756755D01*
X128539374Y-110756753D01*
X128534842Y-110753181D01*
X128342346Y-110651905D01*
X128293906Y-110636864D01*
X128140139Y-110589117D01*
X128140136Y-110589116D01*
X128134618Y-110587403D01*
X128120333Y-110585712D01*
X127961697Y-110566936D01*
X127961690Y-110566936D01*
X127958010Y-110566500D01*
X124194824Y-110566500D01*
X124033400Y-110581333D01*
X124027838Y-110582902D01*
X124027836Y-110582902D01*
X123928728Y-110610853D01*
X123824055Y-110640374D01*
X123628974Y-110736577D01*
X123624348Y-110740031D01*
X123624347Y-110740032D01*
X123496102Y-110835797D01*
X123454691Y-110866720D01*
X123450777Y-110870954D01*
X123450775Y-110870956D01*
X123362784Y-110966145D01*
X123307044Y-111026444D01*
X123190976Y-111210401D01*
X123110376Y-111412428D01*
X123067941Y-111625761D01*
X123067865Y-111631536D01*
X123067865Y-111631540D01*
X123066438Y-111740581D01*
X123065094Y-111843254D01*
X114183000Y-111843254D01*
X114183000Y-110148534D01*
X114184175Y-110131365D01*
X114186896Y-110111584D01*
X114186896Y-110111582D01*
X114188021Y-110103403D01*
X114187103Y-110096106D01*
X114187000Y-110093481D01*
X114187008Y-110092115D01*
X114186890Y-110090681D01*
X114186410Y-110078409D01*
X114172012Y-109710970D01*
X114168216Y-109681717D01*
X114121829Y-109324311D01*
X114121465Y-109321506D01*
X114110701Y-109273134D01*
X114072309Y-109100615D01*
X114036155Y-108938153D01*
X113916772Y-108564008D01*
X113801272Y-108289885D01*
X113765378Y-108204695D01*
X113765376Y-108204691D01*
X113764281Y-108202092D01*
X113579912Y-107855328D01*
X113365155Y-107526517D01*
X113319335Y-107468500D01*
X113123503Y-107220542D01*
X113123501Y-107220540D01*
X113121744Y-107218315D01*
X113118334Y-107214715D01*
X112853589Y-106935262D01*
X112851646Y-106933211D01*
X112557042Y-106673509D01*
X112467103Y-106607572D01*
X112242591Y-106442975D01*
X112242583Y-106442970D01*
X112240311Y-106441304D01*
X112081889Y-106345756D01*
X111906437Y-106239936D01*
X111906427Y-106239931D01*
X111904012Y-106238474D01*
X111890521Y-106231910D01*
X111745997Y-106161595D01*
X111550861Y-106066656D01*
X111183710Y-105927238D01*
X111180996Y-105926478D01*
X110808254Y-105822111D01*
X110808252Y-105822110D01*
X110805525Y-105821347D01*
X110419360Y-105749836D01*
X110040993Y-105714468D01*
X110039573Y-105714274D01*
X110038213Y-105714208D01*
X110035610Y-105713965D01*
X110028365Y-105712653D01*
X109981081Y-105716570D01*
X109970679Y-105717000D01*
X106709000Y-105717000D01*
X106640879Y-105696998D01*
X106594386Y-105643342D01*
X106583000Y-105591000D01*
X106583000Y-96790318D01*
X106603002Y-96722197D01*
X106656658Y-96675704D01*
X106726932Y-96665600D01*
X106759040Y-96674681D01*
X106852976Y-96715331D01*
X106865083Y-96719171D01*
X107044600Y-96756675D01*
X107054152Y-96757915D01*
X107057384Y-96758000D01*
X107327885Y-96758000D01*
X107343124Y-96753525D01*
X107344329Y-96752135D01*
X107346000Y-96744452D01*
X107346000Y-96675302D01*
X107366002Y-96607181D01*
X107419658Y-96560688D01*
X107488663Y-96550409D01*
X107536784Y-96556830D01*
X107577035Y-96562201D01*
X107577038Y-96562201D01*
X107584015Y-96563132D01*
X107591026Y-96562494D01*
X107591030Y-96562494D01*
X107653261Y-96556830D01*
X107716582Y-96551067D01*
X107786233Y-96564812D01*
X107837398Y-96614033D01*
X107854000Y-96676548D01*
X107854000Y-96739885D01*
X107858475Y-96755124D01*
X107859865Y-96756329D01*
X107867548Y-96758000D01*
X108095447Y-96758000D01*
X108101822Y-96757677D01*
X108237277Y-96743918D01*
X108249717Y-96741364D01*
X108423244Y-96686984D01*
X108434932Y-96681975D01*
X108593979Y-96593813D01*
X108604412Y-96586562D01*
X108646749Y-96550275D01*
X108711488Y-96521131D01*
X108781706Y-96531614D01*
X108835110Y-96578395D01*
X108848574Y-96610272D01*
X108848748Y-96610207D01*
X108850342Y-96614458D01*
X108851327Y-96616791D01*
X108851519Y-96617599D01*
X108896676Y-96738054D01*
X108905214Y-96753649D01*
X108981715Y-96855724D01*
X108994276Y-96868285D01*
X109096351Y-96944786D01*
X109111946Y-96953324D01*
X109232394Y-96998478D01*
X109247649Y-97002105D01*
X109298514Y-97007631D01*
X109305328Y-97008000D01*
X109777885Y-97008000D01*
X109793124Y-97003525D01*
X109794329Y-97002135D01*
X109796000Y-96994452D01*
X109796000Y-96989884D01*
X110304000Y-96989884D01*
X110308475Y-97005123D01*
X110309865Y-97006328D01*
X110317548Y-97007999D01*
X110794669Y-97007999D01*
X110801490Y-97007629D01*
X110852352Y-97002105D01*
X110867604Y-96998479D01*
X110988054Y-96953324D01*
X111003649Y-96944786D01*
X111105724Y-96868285D01*
X111118285Y-96855724D01*
X111194786Y-96753649D01*
X111203324Y-96738054D01*
X111248478Y-96617606D01*
X111252105Y-96602351D01*
X111257631Y-96551486D01*
X111258000Y-96544672D01*
X111258000Y-95972115D01*
X111253525Y-95956876D01*
X111252135Y-95955671D01*
X111244452Y-95954000D01*
X110322115Y-95954000D01*
X110306876Y-95958475D01*
X110305671Y-95959865D01*
X110304000Y-95967548D01*
X110304000Y-96989884D01*
X109796000Y-96989884D01*
X109796000Y-95972115D01*
X109791525Y-95956876D01*
X109790135Y-95955671D01*
X109782452Y-95954000D01*
X109066115Y-95954000D01*
X109050876Y-95958475D01*
X109045157Y-95965075D01*
X109016753Y-96017094D01*
X108954441Y-96051120D01*
X108927656Y-96054000D01*
X108475246Y-96054000D01*
X108407125Y-96033998D01*
X108360632Y-95980342D01*
X108350472Y-95910465D01*
X108356471Y-95867778D01*
X108363001Y-95821313D01*
X108363299Y-95800000D01*
X108350517Y-95686044D01*
X108362801Y-95616119D01*
X108410940Y-95563935D01*
X108475732Y-95546000D01*
X108783885Y-95546000D01*
X108799124Y-95541525D01*
X108804843Y-95534925D01*
X108805476Y-95533766D01*
X120342000Y-95533766D01*
X120342337Y-95540282D01*
X120352075Y-95634132D01*
X120354968Y-95647528D01*
X120405488Y-95798953D01*
X120411653Y-95812115D01*
X120495426Y-95947492D01*
X120504460Y-95958890D01*
X120617129Y-96071363D01*
X120628540Y-96080375D01*
X120764063Y-96163912D01*
X120777241Y-96170056D01*
X120928766Y-96220315D01*
X120942132Y-96223181D01*
X121034770Y-96232672D01*
X121041185Y-96233000D01*
X121115385Y-96233000D01*
X121130624Y-96228525D01*
X121131829Y-96227135D01*
X121133500Y-96219452D01*
X121133500Y-95522115D01*
X121129025Y-95506876D01*
X121127635Y-95505671D01*
X121119952Y-95504000D01*
X120360115Y-95504000D01*
X120344876Y-95508475D01*
X120343671Y-95509865D01*
X120342000Y-95517548D01*
X120342000Y-95533766D01*
X108805476Y-95533766D01*
X108833247Y-95482906D01*
X108895559Y-95448880D01*
X108922344Y-95446000D01*
X111239884Y-95446000D01*
X111255123Y-95441525D01*
X111256328Y-95440135D01*
X111257999Y-95432452D01*
X111257999Y-94855331D01*
X111257629Y-94848510D01*
X111252105Y-94797648D01*
X111248479Y-94782396D01*
X111203324Y-94661946D01*
X111194786Y-94646351D01*
X111176807Y-94622362D01*
X111151959Y-94555855D01*
X111167012Y-94486473D01*
X111202068Y-94445971D01*
X111305724Y-94368285D01*
X111318285Y-94355724D01*
X111394786Y-94253649D01*
X111403324Y-94238054D01*
X111448478Y-94117606D01*
X111452105Y-94102351D01*
X111457631Y-94051486D01*
X111458000Y-94044672D01*
X111458000Y-94018115D01*
X111453525Y-94002876D01*
X111452135Y-94001671D01*
X111444452Y-94000000D01*
X111308884Y-94000000D01*
X111240763Y-93979998D01*
X111194270Y-93926342D01*
X111184166Y-93856068D01*
X111213660Y-93791488D01*
X111233319Y-93773174D01*
X111238051Y-93769628D01*
X111313261Y-93713261D01*
X111361242Y-93649240D01*
X111418101Y-93606725D01*
X111426570Y-93603909D01*
X111455123Y-93595525D01*
X111456328Y-93594135D01*
X111457999Y-93586452D01*
X111457999Y-93555331D01*
X111457629Y-93548510D01*
X111451252Y-93489793D01*
X111453998Y-93489495D01*
X111453940Y-93460554D01*
X111451745Y-93460316D01*
X111458131Y-93401531D01*
X111458500Y-93398134D01*
X111458500Y-93364660D01*
X111478502Y-93296539D01*
X111532158Y-93250046D01*
X111602432Y-93239942D01*
X111667012Y-93269436D01*
X111673595Y-93275565D01*
X111679639Y-93281609D01*
X111711926Y-93340736D01*
X111712639Y-93340545D01*
X111713949Y-93345434D01*
X111717808Y-93359834D01*
X111761251Y-93521966D01*
X111803003Y-93603909D01*
X111843239Y-93682876D01*
X111846520Y-93689316D01*
X111850673Y-93694445D01*
X111850676Y-93694449D01*
X111906040Y-93762817D01*
X111935087Y-93798687D01*
X111961458Y-93825058D01*
X111974300Y-93840093D01*
X111982342Y-93851162D01*
X111987252Y-93855583D01*
X111987253Y-93855584D01*
X112032302Y-93896146D01*
X112037087Y-93900687D01*
X112051313Y-93914913D01*
X112066674Y-93927352D01*
X112066948Y-93927574D01*
X112071963Y-93931857D01*
X112113465Y-93969225D01*
X112121921Y-93976839D01*
X112127640Y-93980141D01*
X112127643Y-93980143D01*
X112133764Y-93983677D01*
X112150059Y-93994876D01*
X112152849Y-93997135D01*
X112160684Y-94003480D01*
X112220575Y-94033996D01*
X112226370Y-94037142D01*
X112284579Y-94070749D01*
X112293056Y-94073504D01*
X112297590Y-94074977D01*
X112315848Y-94082540D01*
X112328035Y-94088749D01*
X112392977Y-94106150D01*
X112399277Y-94108017D01*
X112463208Y-94128789D01*
X112469769Y-94129479D01*
X112469780Y-94129481D01*
X112476812Y-94130220D01*
X112496242Y-94133821D01*
X112503075Y-94135652D01*
X112503081Y-94135653D01*
X112509456Y-94137361D01*
X112516049Y-94137707D01*
X112516052Y-94137707D01*
X112576576Y-94140879D01*
X112583151Y-94141396D01*
X112603171Y-94143500D01*
X112623300Y-94143500D01*
X112629894Y-94143673D01*
X112690428Y-94146846D01*
X112690433Y-94146846D01*
X112697020Y-94147191D01*
X112710532Y-94145051D01*
X112730242Y-94143500D01*
X120631956Y-94143500D01*
X120700077Y-94163502D01*
X120746570Y-94217158D01*
X120756674Y-94287432D01*
X120727180Y-94352012D01*
X120698259Y-94376645D01*
X120627504Y-94420429D01*
X120616110Y-94429460D01*
X120503637Y-94542129D01*
X120494625Y-94553540D01*
X120411088Y-94689063D01*
X120404944Y-94702241D01*
X120354685Y-94853766D01*
X120351819Y-94867132D01*
X120342328Y-94959770D01*
X120342000Y-94966185D01*
X120342000Y-94977885D01*
X120346475Y-94993124D01*
X120347865Y-94994329D01*
X120355548Y-94996000D01*
X121515500Y-94996000D01*
X121583621Y-95016002D01*
X121630114Y-95069658D01*
X121641500Y-95122000D01*
X121641500Y-96214885D01*
X121645975Y-96230124D01*
X121647365Y-96231329D01*
X121655048Y-96233000D01*
X121733766Y-96233000D01*
X121740282Y-96232663D01*
X121834132Y-96222925D01*
X121847528Y-96220032D01*
X121998950Y-96169513D01*
X121999254Y-96169371D01*
X121999482Y-96169336D01*
X122005893Y-96167197D01*
X122006259Y-96168295D01*
X122069428Y-96158589D01*
X122134290Y-96187457D01*
X122151652Y-96205470D01*
X122172379Y-96231763D01*
X122174386Y-96234378D01*
X122225767Y-96303185D01*
X122229220Y-96307809D01*
X122233454Y-96311723D01*
X122233456Y-96311725D01*
X122291789Y-96365647D01*
X122295355Y-96369077D01*
X124000154Y-98073876D01*
X124002387Y-98075733D01*
X124002389Y-98075735D01*
X124018038Y-98088750D01*
X124124787Y-98177532D01*
X124301271Y-98276368D01*
X124350930Y-98327102D01*
X124365277Y-98396634D01*
X124339756Y-98462885D01*
X124301858Y-98493618D01*
X124302807Y-98495214D01*
X124144370Y-98589475D01*
X124115876Y-98606427D01*
X124063709Y-98652176D01*
X123987614Y-98718909D01*
X123923210Y-98748786D01*
X123852877Y-98739100D01*
X123838421Y-98731437D01*
X123712937Y-98654088D01*
X123699759Y-98647944D01*
X123548234Y-98597685D01*
X123534868Y-98594819D01*
X123442230Y-98585328D01*
X123435815Y-98585000D01*
X123361615Y-98585000D01*
X123346376Y-98589475D01*
X123345171Y-98590865D01*
X123343500Y-98598548D01*
X123343500Y-99696000D01*
X123323498Y-99764121D01*
X123269842Y-99810614D01*
X123217500Y-99822000D01*
X122062115Y-99822000D01*
X122046876Y-99826475D01*
X122045671Y-99827865D01*
X122044000Y-99835548D01*
X122044000Y-99851766D01*
X122044337Y-99858282D01*
X122054075Y-99952132D01*
X122056968Y-99965528D01*
X122100872Y-100097124D01*
X122103456Y-100168073D01*
X122067272Y-100229157D01*
X122003808Y-100260982D01*
X121981348Y-100263000D01*
X120738912Y-100263000D01*
X120670791Y-100242998D01*
X120649817Y-100226095D01*
X119719607Y-99295885D01*
X122044000Y-99295885D01*
X122048475Y-99311124D01*
X122049865Y-99312329D01*
X122057548Y-99314000D01*
X122817385Y-99314000D01*
X122832624Y-99309525D01*
X122833829Y-99308135D01*
X122835500Y-99300452D01*
X122835500Y-98603115D01*
X122831025Y-98587876D01*
X122829635Y-98586671D01*
X122821952Y-98585000D01*
X122743234Y-98585000D01*
X122736718Y-98585337D01*
X122642868Y-98595075D01*
X122629472Y-98597968D01*
X122478047Y-98648488D01*
X122464885Y-98654653D01*
X122329508Y-98738426D01*
X122318110Y-98747460D01*
X122205637Y-98860129D01*
X122196625Y-98871540D01*
X122113088Y-99007063D01*
X122106944Y-99020241D01*
X122056685Y-99171766D01*
X122053819Y-99185132D01*
X122044328Y-99277770D01*
X122044000Y-99284185D01*
X122044000Y-99295885D01*
X119719607Y-99295885D01*
X119547846Y-99124124D01*
X119423213Y-99020468D01*
X119233435Y-98914187D01*
X119102095Y-98869603D01*
X119032941Y-98846128D01*
X119032939Y-98846128D01*
X119027467Y-98844270D01*
X119021749Y-98843441D01*
X119021745Y-98843440D01*
X118939412Y-98831502D01*
X118812205Y-98813058D01*
X118665005Y-98818842D01*
X118600634Y-98821371D01*
X118600632Y-98821371D01*
X118594861Y-98821598D01*
X118589228Y-98822873D01*
X118589225Y-98822873D01*
X118467434Y-98850432D01*
X118382711Y-98869603D01*
X118377405Y-98871883D01*
X118377401Y-98871884D01*
X118188177Y-98953182D01*
X118188174Y-98953184D01*
X118182864Y-98955465D01*
X118178057Y-98958677D01*
X118178055Y-98958678D01*
X118006813Y-99073097D01*
X118006810Y-99073099D01*
X118002008Y-99076308D01*
X117846204Y-99228085D01*
X117842870Y-99232803D01*
X117842868Y-99232805D01*
X117724001Y-99400999D01*
X117723998Y-99401004D01*
X117720668Y-99405716D01*
X117629604Y-99603247D01*
X117628182Y-99608846D01*
X117628181Y-99608849D01*
X117606048Y-99696000D01*
X117576063Y-99814067D01*
X117561837Y-100031113D01*
X117587403Y-100247118D01*
X117589116Y-100252636D01*
X117589117Y-100252639D01*
X117614883Y-100335617D01*
X117651905Y-100454846D01*
X117753181Y-100647341D01*
X117756754Y-100651873D01*
X117756755Y-100651875D01*
X117860978Y-100784082D01*
X117863281Y-100787003D01*
X117865916Y-100789638D01*
X119328410Y-102252131D01*
X119334047Y-102258149D01*
X119349662Y-102275954D01*
X119376382Y-102306423D01*
X119406259Y-102370827D01*
X119396573Y-102441160D01*
X119350400Y-102495091D01*
X119281650Y-102515500D01*
X115424136Y-102515500D01*
X115407690Y-102514422D01*
X115384188Y-102511328D01*
X115376000Y-102510250D01*
X115367812Y-102511328D01*
X115336129Y-102515499D01*
X115336120Y-102515500D01*
X115336115Y-102515500D01*
X115217150Y-102531162D01*
X115069125Y-102592476D01*
X115047464Y-102609097D01*
X114973928Y-102665523D01*
X114973925Y-102665526D01*
X114942013Y-102690013D01*
X114936983Y-102696568D01*
X114922548Y-102715379D01*
X114911681Y-102727770D01*
X114603766Y-103035685D01*
X114591375Y-103046552D01*
X114566013Y-103066013D01*
X114541526Y-103097925D01*
X114541523Y-103097928D01*
X114541517Y-103097936D01*
X114481488Y-103176167D01*
X114468476Y-103193124D01*
X114413212Y-103326544D01*
X114407162Y-103341150D01*
X114391500Y-103460115D01*
X114391500Y-103460120D01*
X114386250Y-103500000D01*
X114390067Y-103528990D01*
X114390422Y-103531690D01*
X114391500Y-103548136D01*
X114391500Y-107701864D01*
X114390422Y-107718307D01*
X114386250Y-107750000D01*
X114391500Y-107789880D01*
X114391500Y-107789885D01*
X114404609Y-107889457D01*
X114407162Y-107908851D01*
X114468476Y-108056876D01*
X114473503Y-108063427D01*
X114473504Y-108063429D01*
X114541520Y-108152069D01*
X114541526Y-108152075D01*
X114566013Y-108183987D01*
X114572568Y-108189017D01*
X114591379Y-108203452D01*
X114603770Y-108214319D01*
X114862685Y-108473234D01*
X114873552Y-108485625D01*
X114893013Y-108510987D01*
X114899563Y-108516013D01*
X114924921Y-108535471D01*
X114924937Y-108535485D01*
X114965618Y-108566700D01*
X115020124Y-108608524D01*
X115168149Y-108669838D01*
X115176336Y-108670916D01*
X115176337Y-108670916D01*
X115187542Y-108672391D01*
X115218738Y-108676498D01*
X115287115Y-108685500D01*
X115287118Y-108685500D01*
X115287126Y-108685501D01*
X115318811Y-108689672D01*
X115327000Y-108690750D01*
X115358693Y-108686578D01*
X115375136Y-108685500D01*
X115908370Y-108685500D01*
X115976491Y-108705502D01*
X116022984Y-108759158D01*
X116033088Y-108829432D01*
X116026352Y-108855729D01*
X115995029Y-108939282D01*
X115995027Y-108939288D01*
X115992255Y-108946684D01*
X115985500Y-109008866D01*
X115985500Y-109685134D01*
X115992255Y-109747316D01*
X116043385Y-109883705D01*
X116130739Y-110000261D01*
X116247295Y-110087615D01*
X116383684Y-110138745D01*
X116445866Y-110145500D01*
X118152134Y-110145500D01*
X118214316Y-110138745D01*
X118350705Y-110087615D01*
X118359966Y-110080674D01*
X118362376Y-110079774D01*
X118365760Y-110077921D01*
X118366027Y-110078409D01*
X118426470Y-110055826D01*
X118435531Y-110055500D01*
X120671697Y-110055500D01*
X120722942Y-110066392D01*
X120733248Y-110070980D01*
X120765903Y-110077921D01*
X120903311Y-110107128D01*
X120903315Y-110107128D01*
X120909768Y-110108500D01*
X121090232Y-110108500D01*
X121096685Y-110107128D01*
X121096689Y-110107128D01*
X121188489Y-110087615D01*
X121266752Y-110070980D01*
X121277057Y-110066392D01*
X121425585Y-110000263D01*
X121425587Y-110000262D01*
X121431615Y-109997578D01*
X121469625Y-109969962D01*
X121572269Y-109895387D01*
X121572271Y-109895385D01*
X121577613Y-109891504D01*
X121592206Y-109875297D01*
X121693948Y-109762301D01*
X121693949Y-109762300D01*
X121698367Y-109757393D01*
X121788599Y-109601107D01*
X121844365Y-109429475D01*
X121863229Y-109250000D01*
X121844365Y-109070525D01*
X121788599Y-108898893D01*
X121782482Y-108888297D01*
X121733300Y-108803113D01*
X121698367Y-108742607D01*
X121676504Y-108718325D01*
X121582035Y-108613407D01*
X121582034Y-108613406D01*
X121577613Y-108608496D01*
X121554218Y-108591498D01*
X121436957Y-108506303D01*
X121436956Y-108506302D01*
X121431615Y-108502422D01*
X121425587Y-108499738D01*
X121425585Y-108499737D01*
X121272783Y-108431705D01*
X121272781Y-108431705D01*
X121266752Y-108429020D01*
X121178492Y-108410260D01*
X121096689Y-108392872D01*
X121096685Y-108392872D01*
X121090232Y-108391500D01*
X120909768Y-108391500D01*
X120903315Y-108392872D01*
X120903311Y-108392872D01*
X120821508Y-108410260D01*
X120733248Y-108429020D01*
X120727219Y-108431704D01*
X120727217Y-108431705D01*
X120574416Y-108499737D01*
X120574414Y-108499738D01*
X120568386Y-108502422D01*
X120563045Y-108506302D01*
X120563044Y-108506303D01*
X120427731Y-108604613D01*
X120427729Y-108604615D01*
X120422387Y-108608496D01*
X120422060Y-108608046D01*
X120362032Y-108636853D01*
X120341729Y-108638500D01*
X118725878Y-108638500D01*
X118657757Y-108618498D01*
X118611264Y-108564842D01*
X118601160Y-108494568D01*
X118603103Y-108484365D01*
X118605745Y-108477316D01*
X118612500Y-108415134D01*
X118612500Y-107738866D01*
X118605745Y-107676684D01*
X118554615Y-107540295D01*
X118537578Y-107517563D01*
X118512732Y-107451058D01*
X118527785Y-107381676D01*
X118537574Y-107366443D01*
X118554615Y-107343705D01*
X118605745Y-107207316D01*
X118612500Y-107145134D01*
X118612500Y-106468866D01*
X118605745Y-106406684D01*
X118554615Y-106270295D01*
X118537578Y-106247563D01*
X118512732Y-106181058D01*
X118527785Y-106111676D01*
X118537574Y-106096443D01*
X118554615Y-106073705D01*
X118605745Y-105937316D01*
X118612500Y-105875134D01*
X118612500Y-105198866D01*
X118605745Y-105136684D01*
X118554615Y-105000295D01*
X118516970Y-104950065D01*
X118492122Y-104883558D01*
X118507175Y-104814176D01*
X118557350Y-104763946D01*
X118617796Y-104748500D01*
X123190829Y-104748500D01*
X123258950Y-104768502D01*
X123305443Y-104822158D01*
X123315547Y-104892432D01*
X123291656Y-104950065D01*
X123259211Y-104993356D01*
X123250676Y-105008946D01*
X123205522Y-105129394D01*
X123201895Y-105144649D01*
X123196369Y-105195514D01*
X123196000Y-105202328D01*
X123196000Y-105264885D01*
X123200475Y-105280124D01*
X123201865Y-105281329D01*
X123209548Y-105283000D01*
X125803884Y-105283000D01*
X125819123Y-105278525D01*
X125820328Y-105277135D01*
X125821999Y-105269452D01*
X125821999Y-105202331D01*
X125821629Y-105195510D01*
X125816105Y-105144648D01*
X125812479Y-105129396D01*
X125767324Y-105008946D01*
X125758789Y-104993356D01*
X125726344Y-104950065D01*
X125701497Y-104883558D01*
X125716550Y-104814176D01*
X125766725Y-104763946D01*
X125827171Y-104748500D01*
X126951864Y-104748500D01*
X126968307Y-104749578D01*
X127000000Y-104753750D01*
X127008189Y-104752672D01*
X127039874Y-104748501D01*
X127039884Y-104748500D01*
X127039885Y-104748500D01*
X127139457Y-104735391D01*
X127150664Y-104733916D01*
X127150666Y-104733915D01*
X127158851Y-104732838D01*
X127306876Y-104671524D01*
X127343669Y-104643292D01*
X127402072Y-104598477D01*
X127402075Y-104598474D01*
X127427437Y-104579013D01*
X127433987Y-104573987D01*
X127439014Y-104567436D01*
X127444853Y-104561597D01*
X127446915Y-104563659D01*
X127492864Y-104530102D01*
X127563735Y-104525873D01*
X127625641Y-104560632D01*
X127658928Y-104623341D01*
X127661500Y-104648669D01*
X127661500Y-105613761D01*
X127641498Y-105681882D01*
X127624595Y-105702856D01*
X127165856Y-106161595D01*
X127103544Y-106195621D01*
X127076761Y-106198500D01*
X125899096Y-106198500D01*
X125830975Y-106178498D01*
X125784482Y-106124842D01*
X125774378Y-106054568D01*
X125781114Y-106028271D01*
X125812478Y-105944609D01*
X125816105Y-105929351D01*
X125821631Y-105878486D01*
X125822000Y-105871672D01*
X125822000Y-105809115D01*
X125817525Y-105793876D01*
X125816135Y-105792671D01*
X125808452Y-105791000D01*
X123214116Y-105791000D01*
X123198877Y-105795475D01*
X123197672Y-105796865D01*
X123196001Y-105804548D01*
X123196001Y-105871669D01*
X123196371Y-105878490D01*
X123201895Y-105929352D01*
X123205521Y-105944604D01*
X123250678Y-106065059D01*
X123259211Y-106080646D01*
X123270733Y-106096020D01*
X123295580Y-106162527D01*
X123280526Y-106231910D01*
X123270732Y-106247149D01*
X123253385Y-106270295D01*
X123202255Y-106406684D01*
X123195500Y-106468866D01*
X123195500Y-107145134D01*
X123202255Y-107207316D01*
X123253385Y-107343705D01*
X123270422Y-107366437D01*
X123295268Y-107432942D01*
X123280215Y-107502324D01*
X123270426Y-107517557D01*
X123253385Y-107540295D01*
X123202255Y-107676684D01*
X123195500Y-107738866D01*
X123195500Y-108415134D01*
X123202255Y-108477316D01*
X123253385Y-108613705D01*
X123270422Y-108636437D01*
X123295268Y-108702942D01*
X123280215Y-108772324D01*
X123270426Y-108787557D01*
X123253385Y-108810295D01*
X123202255Y-108946684D01*
X123195500Y-109008866D01*
X123195500Y-109685134D01*
X123202255Y-109747316D01*
X123253385Y-109883705D01*
X123340739Y-110000261D01*
X123457295Y-110087615D01*
X123593684Y-110138745D01*
X123655866Y-110145500D01*
X125362134Y-110145500D01*
X125424316Y-110138745D01*
X125560705Y-110087615D01*
X125677261Y-110000261D01*
X125682643Y-109993080D01*
X125683321Y-109992402D01*
X125745634Y-109958379D01*
X125772414Y-109955500D01*
X128348864Y-109955500D01*
X128365307Y-109956578D01*
X128397000Y-109960750D01*
X128405189Y-109959672D01*
X128436874Y-109955501D01*
X128436884Y-109955500D01*
X128436885Y-109955500D01*
X128536457Y-109942391D01*
X128547664Y-109940916D01*
X128547666Y-109940915D01*
X128555851Y-109939838D01*
X128703876Y-109878524D01*
X128720872Y-109865483D01*
X128799072Y-109805477D01*
X128799075Y-109805474D01*
X128805496Y-109800547D01*
X128830987Y-109780987D01*
X128838569Y-109771106D01*
X128850452Y-109755621D01*
X128861319Y-109743230D01*
X129196905Y-109407644D01*
X129259217Y-109373618D01*
X129330032Y-109378683D01*
X129375095Y-109407644D01*
X129480185Y-109512734D01*
X129491052Y-109525125D01*
X129510513Y-109550487D01*
X129517063Y-109555513D01*
X129542421Y-109574971D01*
X129542437Y-109574985D01*
X129583939Y-109606830D01*
X129637624Y-109648024D01*
X129785649Y-109709338D01*
X129944500Y-109730251D01*
X129976199Y-109726078D01*
X129992644Y-109725000D01*
X130766830Y-109725000D01*
X130834951Y-109745002D01*
X130873974Y-109784697D01*
X130903884Y-109833031D01*
X130909066Y-109838204D01*
X131021816Y-109950758D01*
X131021821Y-109950762D01*
X131026997Y-109955929D01*
X131033227Y-109959769D01*
X131033228Y-109959770D01*
X131167201Y-110042352D01*
X131175080Y-110047209D01*
X131340191Y-110101974D01*
X131347027Y-110102674D01*
X131347030Y-110102675D01*
X131398526Y-110107951D01*
X131442928Y-110112500D01*
X132017072Y-110112500D01*
X132020318Y-110112163D01*
X132020322Y-110112163D01*
X132114235Y-110102419D01*
X132114239Y-110102418D01*
X132121093Y-110101707D01*
X132127629Y-110099526D01*
X132127631Y-110099526D01*
X132266489Y-110053199D01*
X132286107Y-110046654D01*
X132434031Y-109955116D01*
X132523508Y-109865482D01*
X132585790Y-109831403D01*
X132612681Y-109828500D01*
X134218397Y-109828500D01*
X134286518Y-109848502D01*
X134299836Y-109858671D01*
X134302387Y-109861504D01*
X134307729Y-109865385D01*
X134307731Y-109865387D01*
X134438987Y-109960750D01*
X134448385Y-109967578D01*
X134454413Y-109970262D01*
X134454415Y-109970263D01*
X134607217Y-110038295D01*
X134613248Y-110040980D01*
X134683094Y-110055826D01*
X134783311Y-110077128D01*
X134783315Y-110077128D01*
X134789768Y-110078500D01*
X134970232Y-110078500D01*
X134976685Y-110077128D01*
X134976689Y-110077128D01*
X135076906Y-110055826D01*
X135146752Y-110040980D01*
X135152783Y-110038295D01*
X135305585Y-109970263D01*
X135305587Y-109970262D01*
X135311615Y-109967578D01*
X135321013Y-109960750D01*
X135393799Y-109907868D01*
X141676301Y-109907868D01*
X141676671Y-109914689D01*
X141682195Y-109965551D01*
X141685821Y-109980803D01*
X141730976Y-110101253D01*
X141739514Y-110116848D01*
X141816015Y-110218923D01*
X141828576Y-110231484D01*
X141930651Y-110307985D01*
X141946246Y-110316523D01*
X142066694Y-110361677D01*
X142081949Y-110365304D01*
X142132814Y-110370830D01*
X142139628Y-110371199D01*
X142432885Y-110371199D01*
X142448124Y-110366724D01*
X142449329Y-110365334D01*
X142451000Y-110357651D01*
X142451000Y-110353083D01*
X142959000Y-110353083D01*
X142963475Y-110368322D01*
X142964865Y-110369527D01*
X142972548Y-110371198D01*
X143270369Y-110371198D01*
X143277190Y-110370828D01*
X143328052Y-110365304D01*
X143343304Y-110361678D01*
X143463754Y-110316523D01*
X143479349Y-110307985D01*
X143581424Y-110231484D01*
X143593985Y-110218923D01*
X143670486Y-110116848D01*
X143679024Y-110101253D01*
X143724178Y-109980805D01*
X143727805Y-109965550D01*
X143733331Y-109914685D01*
X143733700Y-109907871D01*
X143733700Y-109907868D01*
X145826301Y-109907868D01*
X145826671Y-109914689D01*
X145832195Y-109965551D01*
X145835821Y-109980803D01*
X145880976Y-110101253D01*
X145889514Y-110116848D01*
X145966015Y-110218923D01*
X145978576Y-110231484D01*
X146080651Y-110307985D01*
X146096246Y-110316523D01*
X146216694Y-110361677D01*
X146231949Y-110365304D01*
X146282814Y-110370830D01*
X146289628Y-110371199D01*
X146582885Y-110371199D01*
X146598124Y-110366724D01*
X146599329Y-110365334D01*
X146601000Y-110357651D01*
X146601000Y-110353083D01*
X147109000Y-110353083D01*
X147113475Y-110368322D01*
X147114865Y-110369527D01*
X147122548Y-110371198D01*
X147420369Y-110371198D01*
X147427190Y-110370828D01*
X147478052Y-110365304D01*
X147493304Y-110361678D01*
X147613754Y-110316523D01*
X147629349Y-110307985D01*
X147731424Y-110231484D01*
X147743985Y-110218923D01*
X147820486Y-110116848D01*
X147829024Y-110101253D01*
X147874178Y-109980805D01*
X147877805Y-109965550D01*
X147883331Y-109914685D01*
X147883700Y-109907871D01*
X147883700Y-109805114D01*
X147879225Y-109789875D01*
X147877835Y-109788670D01*
X147870152Y-109786999D01*
X147127115Y-109786999D01*
X147111876Y-109791474D01*
X147110671Y-109792864D01*
X147109000Y-109800547D01*
X147109000Y-110353083D01*
X146601000Y-110353083D01*
X146601000Y-109805114D01*
X146596525Y-109789875D01*
X146595135Y-109788670D01*
X146587452Y-109786999D01*
X145844416Y-109786999D01*
X145829177Y-109791474D01*
X145827972Y-109792864D01*
X145826301Y-109800547D01*
X145826301Y-109907868D01*
X143733700Y-109907868D01*
X143733700Y-109805114D01*
X143729225Y-109789875D01*
X143727835Y-109788670D01*
X143720152Y-109786999D01*
X142977115Y-109786999D01*
X142961876Y-109791474D01*
X142960671Y-109792864D01*
X142959000Y-109800547D01*
X142959000Y-110353083D01*
X142451000Y-110353083D01*
X142451000Y-109805114D01*
X142446525Y-109789875D01*
X142445135Y-109788670D01*
X142437452Y-109786999D01*
X141694416Y-109786999D01*
X141679177Y-109791474D01*
X141677972Y-109792864D01*
X141676301Y-109800547D01*
X141676301Y-109907868D01*
X135393799Y-109907868D01*
X135452269Y-109865387D01*
X135452271Y-109865385D01*
X135457613Y-109861504D01*
X135469320Y-109848502D01*
X135573948Y-109732301D01*
X135573949Y-109732300D01*
X135578367Y-109727393D01*
X135647974Y-109606830D01*
X135665295Y-109576830D01*
X135665296Y-109576829D01*
X135668599Y-109571107D01*
X135724365Y-109399475D01*
X135738932Y-109260884D01*
X141676300Y-109260884D01*
X141680775Y-109276123D01*
X141682165Y-109277328D01*
X141689848Y-109278999D01*
X142432885Y-109278999D01*
X142448124Y-109274524D01*
X142449329Y-109273134D01*
X142451000Y-109265451D01*
X142451000Y-109260884D01*
X142959000Y-109260884D01*
X142963475Y-109276123D01*
X142964865Y-109277328D01*
X142972548Y-109278999D01*
X143715584Y-109278999D01*
X143730823Y-109274524D01*
X143732028Y-109273134D01*
X143733699Y-109265451D01*
X143733699Y-109260884D01*
X145826300Y-109260884D01*
X145830775Y-109276123D01*
X145832165Y-109277328D01*
X145839848Y-109278999D01*
X146582885Y-109278999D01*
X146598124Y-109274524D01*
X146599329Y-109273134D01*
X146601000Y-109265451D01*
X146601000Y-109260884D01*
X147109000Y-109260884D01*
X147113475Y-109276123D01*
X147114865Y-109277328D01*
X147122548Y-109278999D01*
X147865584Y-109278999D01*
X147880823Y-109274524D01*
X147882028Y-109273134D01*
X147883699Y-109265451D01*
X147883699Y-109158130D01*
X147883329Y-109151309D01*
X147877805Y-109100447D01*
X147874179Y-109085195D01*
X147829024Y-108964745D01*
X147820486Y-108949150D01*
X147743985Y-108847075D01*
X147731424Y-108834514D01*
X147629349Y-108758013D01*
X147613754Y-108749475D01*
X147493306Y-108704321D01*
X147478051Y-108700694D01*
X147427186Y-108695168D01*
X147420372Y-108694799D01*
X147127115Y-108694799D01*
X147111876Y-108699274D01*
X147110671Y-108700664D01*
X147109000Y-108708347D01*
X147109000Y-109260884D01*
X146601000Y-109260884D01*
X146601000Y-108712915D01*
X146596525Y-108697676D01*
X146595135Y-108696471D01*
X146587452Y-108694800D01*
X146289631Y-108694800D01*
X146282810Y-108695170D01*
X146231948Y-108700694D01*
X146216696Y-108704320D01*
X146096246Y-108749475D01*
X146080651Y-108758013D01*
X145978576Y-108834514D01*
X145966015Y-108847075D01*
X145889514Y-108949150D01*
X145880976Y-108964745D01*
X145835822Y-109085193D01*
X145832195Y-109100448D01*
X145826669Y-109151313D01*
X145826300Y-109158127D01*
X145826300Y-109260884D01*
X143733699Y-109260884D01*
X143733699Y-109158130D01*
X143733329Y-109151309D01*
X143727805Y-109100447D01*
X143724179Y-109085195D01*
X143679024Y-108964745D01*
X143670486Y-108949150D01*
X143593985Y-108847075D01*
X143581424Y-108834514D01*
X143479349Y-108758013D01*
X143463754Y-108749475D01*
X143343306Y-108704321D01*
X143328051Y-108700694D01*
X143277186Y-108695168D01*
X143270372Y-108694799D01*
X142977115Y-108694799D01*
X142961876Y-108699274D01*
X142960671Y-108700664D01*
X142959000Y-108708347D01*
X142959000Y-109260884D01*
X142451000Y-109260884D01*
X142451000Y-108712915D01*
X142446525Y-108697676D01*
X142445135Y-108696471D01*
X142437452Y-108694800D01*
X142139631Y-108694800D01*
X142132810Y-108695170D01*
X142081948Y-108700694D01*
X142066696Y-108704320D01*
X141946246Y-108749475D01*
X141930651Y-108758013D01*
X141828576Y-108834514D01*
X141816015Y-108847075D01*
X141739514Y-108949150D01*
X141730976Y-108964745D01*
X141685822Y-109085193D01*
X141682195Y-109100448D01*
X141676669Y-109151313D01*
X141676300Y-109158127D01*
X141676300Y-109260884D01*
X135738932Y-109260884D01*
X135743229Y-109220000D01*
X135724365Y-109040525D01*
X135715507Y-109013261D01*
X135670641Y-108875178D01*
X135668599Y-108868893D01*
X135578367Y-108712607D01*
X135570906Y-108704320D01*
X135462035Y-108583407D01*
X135462034Y-108583406D01*
X135457613Y-108578496D01*
X135441378Y-108566700D01*
X135316957Y-108476303D01*
X135316956Y-108476302D01*
X135311615Y-108472422D01*
X135305587Y-108469738D01*
X135305585Y-108469737D01*
X135152783Y-108401705D01*
X135152781Y-108401705D01*
X135146752Y-108399020D01*
X135058492Y-108380260D01*
X134976689Y-108362872D01*
X134976685Y-108362872D01*
X134970232Y-108361500D01*
X134789768Y-108361500D01*
X134783315Y-108362872D01*
X134783311Y-108362872D01*
X134701508Y-108380260D01*
X134613248Y-108399020D01*
X134607219Y-108401704D01*
X134607217Y-108401705D01*
X134454416Y-108469737D01*
X134454414Y-108469738D01*
X134448386Y-108472422D01*
X134443045Y-108476302D01*
X134443044Y-108476303D01*
X134307731Y-108574613D01*
X134307729Y-108574615D01*
X134302387Y-108578496D01*
X134301127Y-108579895D01*
X134238699Y-108609854D01*
X134218397Y-108611500D01*
X132756630Y-108611500D01*
X132688509Y-108591498D01*
X132649404Y-108546810D01*
X132647654Y-108547893D01*
X132559970Y-108406197D01*
X132556116Y-108399969D01*
X132460347Y-108304367D01*
X132449214Y-108293253D01*
X132415135Y-108230970D01*
X132420138Y-108160150D01*
X132449059Y-108115062D01*
X132535487Y-108028483D01*
X132597769Y-107994404D01*
X132624660Y-107991501D01*
X141694337Y-107991501D01*
X141762458Y-108011503D01*
X141795163Y-108041936D01*
X141821039Y-108076462D01*
X141937595Y-108163816D01*
X142073984Y-108214946D01*
X142136166Y-108221701D01*
X143273834Y-108221701D01*
X143336016Y-108214946D01*
X143472405Y-108163816D01*
X143588961Y-108076462D01*
X143614837Y-108041936D01*
X143671697Y-107999421D01*
X143715663Y-107991501D01*
X145844337Y-107991501D01*
X145912458Y-108011503D01*
X145945163Y-108041936D01*
X145971039Y-108076462D01*
X146087595Y-108163816D01*
X146223984Y-108214946D01*
X146286166Y-108221701D01*
X147423834Y-108221701D01*
X147486016Y-108214946D01*
X147622405Y-108163816D01*
X147738961Y-108076462D01*
X147826315Y-107959906D01*
X147877445Y-107823517D01*
X147884200Y-107761335D01*
X147884200Y-107004667D01*
X147877445Y-106942485D01*
X147826315Y-106806096D01*
X147738961Y-106689540D01*
X147622405Y-106602186D01*
X147486016Y-106551056D01*
X147423834Y-106544301D01*
X146286166Y-106544301D01*
X146223984Y-106551056D01*
X146087595Y-106602186D01*
X145971039Y-106689540D01*
X145965658Y-106696720D01*
X145965657Y-106696721D01*
X145945163Y-106724066D01*
X145888303Y-106766581D01*
X145844337Y-106774501D01*
X143715663Y-106774501D01*
X143647542Y-106754499D01*
X143614837Y-106724066D01*
X143594343Y-106696721D01*
X143594342Y-106696720D01*
X143588961Y-106689540D01*
X143472405Y-106602186D01*
X143336016Y-106551056D01*
X143273834Y-106544301D01*
X142136166Y-106544301D01*
X142073984Y-106551056D01*
X141937595Y-106602186D01*
X141821039Y-106689540D01*
X141815658Y-106696720D01*
X141815657Y-106696721D01*
X141795163Y-106724066D01*
X141738303Y-106766581D01*
X141694337Y-106774501D01*
X138334044Y-106774501D01*
X138265923Y-106754499D01*
X138219430Y-106700843D01*
X138209326Y-106630569D01*
X138238820Y-106565989D01*
X138244112Y-106560594D01*
X138245613Y-106559504D01*
X138327224Y-106468866D01*
X138361948Y-106430301D01*
X138361949Y-106430300D01*
X138366367Y-106425393D01*
X138435541Y-106305581D01*
X138453295Y-106274830D01*
X138453296Y-106274829D01*
X138456599Y-106269107D01*
X138500247Y-106134772D01*
X138510325Y-106103754D01*
X138510325Y-106103753D01*
X138512365Y-106097475D01*
X138516232Y-106060689D01*
X138530539Y-105924565D01*
X138531229Y-105918000D01*
X138521016Y-105820831D01*
X138513055Y-105745089D01*
X138513055Y-105745088D01*
X138512365Y-105738525D01*
X138505232Y-105716570D01*
X138458641Y-105573178D01*
X138456599Y-105566893D01*
X138366367Y-105410607D01*
X138308864Y-105346743D01*
X138278147Y-105282736D01*
X138276500Y-105262433D01*
X138276500Y-105226695D01*
X160437251Y-105226695D01*
X160437548Y-105231848D01*
X160437548Y-105231851D01*
X160443011Y-105326590D01*
X160450110Y-105449715D01*
X160451247Y-105454761D01*
X160451248Y-105454767D01*
X160471119Y-105542939D01*
X160499222Y-105667639D01*
X160583266Y-105874616D01*
X160626155Y-105944604D01*
X160677426Y-106028271D01*
X160699987Y-106065088D01*
X160846250Y-106233938D01*
X160850230Y-106237242D01*
X160854981Y-106241187D01*
X160894616Y-106300090D01*
X160896113Y-106371071D01*
X160858997Y-106431593D01*
X160818725Y-106456112D01*
X160784704Y-106468866D01*
X160703295Y-106499385D01*
X160586739Y-106586739D01*
X160499385Y-106703295D01*
X160448255Y-106839684D01*
X160441500Y-106901866D01*
X160441500Y-108698134D01*
X160448255Y-108760316D01*
X160499385Y-108896705D01*
X160586739Y-109013261D01*
X160703295Y-109100615D01*
X160839684Y-109151745D01*
X160901866Y-109158500D01*
X162698134Y-109158500D01*
X162760316Y-109151745D01*
X162896705Y-109100615D01*
X163013261Y-109013261D01*
X163100615Y-108896705D01*
X163151745Y-108760316D01*
X163158500Y-108698134D01*
X163158500Y-106901866D01*
X163151745Y-106839684D01*
X163100615Y-106703295D01*
X163013261Y-106586739D01*
X162896705Y-106499385D01*
X162824411Y-106472283D01*
X162778203Y-106454960D01*
X162721439Y-106412318D01*
X162696739Y-106345756D01*
X162711947Y-106276408D01*
X162733493Y-106247727D01*
X162782892Y-106198500D01*
X162838096Y-106143489D01*
X162845112Y-106133726D01*
X162965435Y-105966277D01*
X162968453Y-105962077D01*
X162973809Y-105951241D01*
X163065136Y-105766453D01*
X163065137Y-105766451D01*
X163067430Y-105761811D01*
X163132370Y-105548069D01*
X163161529Y-105326590D01*
X163162594Y-105283000D01*
X163163074Y-105263365D01*
X163163074Y-105263361D01*
X163163156Y-105260000D01*
X163144852Y-105037361D01*
X163090431Y-104820702D01*
X163001354Y-104615840D01*
X162943152Y-104525873D01*
X162882822Y-104432617D01*
X162882820Y-104432614D01*
X162880014Y-104428277D01*
X162729670Y-104263051D01*
X162725619Y-104259852D01*
X162725615Y-104259848D01*
X162558414Y-104127800D01*
X162558410Y-104127798D01*
X162554359Y-104124598D01*
X162513053Y-104101796D01*
X162463084Y-104051364D01*
X162448312Y-103981921D01*
X162473428Y-103915516D01*
X162500780Y-103888909D01*
X162544603Y-103857650D01*
X162679860Y-103761173D01*
X162838096Y-103603489D01*
X162883804Y-103539880D01*
X162965435Y-103426277D01*
X162968453Y-103422077D01*
X162986400Y-103385765D01*
X163065136Y-103226453D01*
X163065137Y-103226451D01*
X163067430Y-103221811D01*
X163116292Y-103060987D01*
X163130865Y-103013023D01*
X163130865Y-103013021D01*
X163132370Y-103008069D01*
X163161529Y-102786590D01*
X163163156Y-102720000D01*
X163144852Y-102497361D01*
X163090431Y-102280702D01*
X163001354Y-102075840D01*
X162912255Y-101938114D01*
X162882822Y-101892617D01*
X162882820Y-101892614D01*
X162880014Y-101888277D01*
X162729670Y-101723051D01*
X162725619Y-101719852D01*
X162725615Y-101719848D01*
X162558414Y-101587800D01*
X162558410Y-101587798D01*
X162554359Y-101584598D01*
X162549735Y-101582045D01*
X162512569Y-101561529D01*
X162462598Y-101511097D01*
X162447826Y-101441654D01*
X162472942Y-101375248D01*
X162500294Y-101348641D01*
X162675328Y-101223792D01*
X162683200Y-101217139D01*
X162834052Y-101066812D01*
X162840730Y-101058965D01*
X162965003Y-100886020D01*
X162970313Y-100877183D01*
X163064670Y-100686267D01*
X163068469Y-100676672D01*
X163130377Y-100472910D01*
X163132555Y-100462837D01*
X163133986Y-100451962D01*
X163131775Y-100437778D01*
X163118617Y-100434000D01*
X160483225Y-100434000D01*
X160469694Y-100437973D01*
X160468257Y-100447966D01*
X160498565Y-100582446D01*
X160501645Y-100592275D01*
X160581770Y-100789603D01*
X160586413Y-100798794D01*
X160697694Y-100980388D01*
X160703777Y-100988699D01*
X160843213Y-101149667D01*
X160850580Y-101156883D01*
X161014434Y-101292916D01*
X161022881Y-101298831D01*
X161091969Y-101339203D01*
X161140693Y-101390842D01*
X161153764Y-101460625D01*
X161127033Y-101526396D01*
X161086584Y-101559752D01*
X161073607Y-101566507D01*
X161069474Y-101569610D01*
X161069471Y-101569612D01*
X160899100Y-101697530D01*
X160894965Y-101700635D01*
X160740629Y-101862138D01*
X160737715Y-101866410D01*
X160737714Y-101866411D01*
X160730085Y-101877595D01*
X160614743Y-102046680D01*
X160520688Y-102249305D01*
X160460989Y-102464570D01*
X160437251Y-102686695D01*
X160437548Y-102691848D01*
X160437548Y-102691851D01*
X160443011Y-102786590D01*
X160450110Y-102909715D01*
X160451247Y-102914761D01*
X160451248Y-102914767D01*
X160454400Y-102928752D01*
X160499222Y-103127639D01*
X160583266Y-103334616D01*
X160634019Y-103417438D01*
X160689631Y-103508188D01*
X160699987Y-103525088D01*
X160846250Y-103693938D01*
X161018126Y-103836632D01*
X161088595Y-103877811D01*
X161091445Y-103879476D01*
X161140169Y-103931114D01*
X161153240Y-104000897D01*
X161126509Y-104066669D01*
X161086055Y-104100027D01*
X161073607Y-104106507D01*
X161069474Y-104109610D01*
X161069471Y-104109612D01*
X160899100Y-104237530D01*
X160894965Y-104240635D01*
X160740629Y-104402138D01*
X160737715Y-104406410D01*
X160737714Y-104406411D01*
X160671004Y-104504204D01*
X160614743Y-104586680D01*
X160596597Y-104625772D01*
X160522872Y-104784601D01*
X160520688Y-104789305D01*
X160460989Y-105004570D01*
X160437251Y-105226695D01*
X138276500Y-105226695D01*
X138276500Y-104750436D01*
X138296502Y-104682315D01*
X138336197Y-104643292D01*
X138365805Y-104624970D01*
X138365812Y-104624964D01*
X138372031Y-104621116D01*
X138381638Y-104611492D01*
X138489758Y-104503184D01*
X138489762Y-104503179D01*
X138494929Y-104498003D01*
X138535234Y-104432617D01*
X138582369Y-104356150D01*
X138582370Y-104356148D01*
X138586209Y-104349920D01*
X138640974Y-104184809D01*
X138651500Y-104082072D01*
X138651500Y-103482928D01*
X138649161Y-103460385D01*
X138641419Y-103385765D01*
X138641418Y-103385761D01*
X138640707Y-103378907D01*
X138625931Y-103334616D01*
X138587972Y-103220841D01*
X138585654Y-103213893D01*
X138494116Y-103065969D01*
X138488935Y-103060797D01*
X138488931Y-103060792D01*
X138454580Y-103026502D01*
X138420499Y-102964220D01*
X138425501Y-102893400D01*
X138459157Y-102843880D01*
X138463309Y-102840780D01*
X138521139Y-102778220D01*
X138524568Y-102774654D01*
X138571452Y-102727770D01*
X138627140Y-102672081D01*
X138633159Y-102666444D01*
X138679319Y-102625963D01*
X138683658Y-102622158D01*
X138687229Y-102617629D01*
X138687234Y-102617623D01*
X138740383Y-102550203D01*
X138742460Y-102547638D01*
X138797335Y-102481659D01*
X138797338Y-102481654D01*
X138801032Y-102477213D01*
X138803853Y-102472176D01*
X138804193Y-102471681D01*
X138814445Y-102456337D01*
X138814743Y-102455877D01*
X138818319Y-102451342D01*
X138860985Y-102370246D01*
X138862531Y-102367398D01*
X138907313Y-102287435D01*
X138909169Y-102281968D01*
X138909363Y-102281532D01*
X138916680Y-102264504D01*
X138916908Y-102263952D01*
X138919595Y-102258846D01*
X138922558Y-102249305D01*
X138946759Y-102171366D01*
X138947777Y-102168232D01*
X138977230Y-102081466D01*
X138978059Y-102075747D01*
X138978181Y-102075239D01*
X138982275Y-102057145D01*
X138982383Y-102056638D01*
X138984097Y-102051118D01*
X138994868Y-101960119D01*
X138995291Y-101956906D01*
X139006160Y-101881944D01*
X139007614Y-101871917D01*
X139007614Y-101871915D01*
X139008442Y-101866205D01*
X139005097Y-101781074D01*
X139005000Y-101776128D01*
X139005000Y-98851324D01*
X138990167Y-98689900D01*
X138980227Y-98654653D01*
X138958883Y-98578975D01*
X138931126Y-98480555D01*
X138834923Y-98285474D01*
X138820932Y-98266737D01*
X138708233Y-98115815D01*
X138708232Y-98115814D01*
X138704780Y-98111191D01*
X138684964Y-98092873D01*
X138549296Y-97967463D01*
X138549293Y-97967461D01*
X138545056Y-97963544D01*
X138361099Y-97847476D01*
X138159072Y-97766876D01*
X137945739Y-97724441D01*
X137939964Y-97724365D01*
X137939960Y-97724365D01*
X137835045Y-97722992D01*
X137730111Y-97721618D01*
X137730109Y-97721618D01*
X137728246Y-97721594D01*
X137728251Y-97721228D01*
X137661874Y-97707288D01*
X137611312Y-97657447D01*
X137595723Y-97588184D01*
X137620636Y-97520705D01*
X137643729Y-97489891D01*
X137649115Y-97482705D01*
X137700245Y-97346316D01*
X137707000Y-97284134D01*
X137707000Y-96791000D01*
X137727002Y-96722879D01*
X137780658Y-96676386D01*
X137833000Y-96665000D01*
X138326134Y-96665000D01*
X138388316Y-96658245D01*
X138524705Y-96607115D01*
X138641261Y-96519761D01*
X138728615Y-96403205D01*
X138779745Y-96266816D01*
X138786500Y-96204634D01*
X138786500Y-95989300D01*
X138806502Y-95921179D01*
X138860158Y-95874686D01*
X138912500Y-95863300D01*
X139450561Y-95863300D01*
X139518682Y-95883302D01*
X139539656Y-95900205D01*
X139804905Y-96165454D01*
X139838931Y-96227766D01*
X139841120Y-96241378D01*
X139855635Y-96379475D01*
X139911401Y-96551107D01*
X139914704Y-96556829D01*
X139914705Y-96556830D01*
X139927156Y-96578395D01*
X140001633Y-96707393D01*
X140006051Y-96712300D01*
X140006052Y-96712301D01*
X140117965Y-96836593D01*
X140122387Y-96841504D01*
X140127729Y-96845385D01*
X140127731Y-96845387D01*
X140201775Y-96899183D01*
X140268385Y-96947578D01*
X140274413Y-96950262D01*
X140274415Y-96950263D01*
X140427217Y-97018295D01*
X140433248Y-97020980D01*
X140521508Y-97039740D01*
X140603311Y-97057128D01*
X140603315Y-97057128D01*
X140609768Y-97058500D01*
X140790232Y-97058500D01*
X140796685Y-97057128D01*
X140796689Y-97057128D01*
X140878492Y-97039740D01*
X140966752Y-97020980D01*
X140972783Y-97018295D01*
X141125585Y-96950263D01*
X141125587Y-96950262D01*
X141131615Y-96947578D01*
X141198225Y-96899183D01*
X141272269Y-96845387D01*
X141272271Y-96845385D01*
X141277613Y-96841504D01*
X141282035Y-96836593D01*
X141393948Y-96712301D01*
X141393949Y-96712300D01*
X141398367Y-96707393D01*
X141472844Y-96578395D01*
X141485295Y-96556830D01*
X141485296Y-96556829D01*
X141488599Y-96551107D01*
X141544365Y-96379475D01*
X141559761Y-96233000D01*
X141562539Y-96206565D01*
X141563229Y-96200000D01*
X141549708Y-96071363D01*
X141545055Y-96027089D01*
X141545055Y-96027088D01*
X141544365Y-96020525D01*
X141534220Y-95989300D01*
X141499779Y-95883302D01*
X141488599Y-95848893D01*
X141398367Y-95692607D01*
X141308501Y-95592800D01*
X141282035Y-95563407D01*
X141282034Y-95563406D01*
X141277613Y-95558496D01*
X141257129Y-95543613D01*
X141136957Y-95456303D01*
X141136956Y-95456302D01*
X141131615Y-95452422D01*
X141125587Y-95449738D01*
X141125585Y-95449737D01*
X140972783Y-95381705D01*
X140972781Y-95381705D01*
X140966752Y-95379020D01*
X140878492Y-95360260D01*
X140796689Y-95342872D01*
X140796685Y-95342872D01*
X140790232Y-95341500D01*
X140754239Y-95341500D01*
X140686118Y-95321498D01*
X140665144Y-95304595D01*
X140219744Y-94859195D01*
X140185718Y-94796883D01*
X140190783Y-94726068D01*
X140233330Y-94669232D01*
X140299850Y-94644421D01*
X140308839Y-94644100D01*
X143459761Y-94644100D01*
X143527882Y-94664102D01*
X143548856Y-94681005D01*
X144078995Y-95211144D01*
X144113021Y-95273456D01*
X144115900Y-95300239D01*
X144115900Y-95914673D01*
X144095898Y-95982794D01*
X144041250Y-96029735D01*
X144002243Y-96047143D01*
X143997489Y-96050416D01*
X143997488Y-96050417D01*
X143829481Y-96166100D01*
X143829477Y-96166103D01*
X143824727Y-96169374D01*
X143820646Y-96173462D01*
X143820645Y-96173463D01*
X143676546Y-96317814D01*
X143676542Y-96317819D01*
X143672460Y-96321908D01*
X143669193Y-96326670D01*
X143669190Y-96326674D01*
X143555031Y-96493088D01*
X143550539Y-96499636D01*
X143548194Y-96504916D01*
X143548192Y-96504919D01*
X143502769Y-96607181D01*
X143463048Y-96696606D01*
X143461705Y-96702223D01*
X143461704Y-96702225D01*
X143428395Y-96841504D01*
X143412917Y-96906222D01*
X143412550Y-96911344D01*
X143406065Y-97001815D01*
X143405900Y-97004113D01*
X143405901Y-100535886D01*
X143406069Y-100538179D01*
X143406069Y-100538185D01*
X143410027Y-100592275D01*
X143413212Y-100635812D01*
X143414418Y-100640815D01*
X143414418Y-100640817D01*
X143425639Y-100687376D01*
X143463708Y-100845340D01*
X143466060Y-100850611D01*
X143466061Y-100850613D01*
X143483297Y-100889234D01*
X143551543Y-101042157D01*
X143554816Y-101046911D01*
X143554817Y-101046912D01*
X143670500Y-101214919D01*
X143670503Y-101214923D01*
X143673774Y-101219673D01*
X143677862Y-101223754D01*
X143677863Y-101223755D01*
X143822214Y-101367854D01*
X143822219Y-101367858D01*
X143826308Y-101371940D01*
X143831070Y-101375207D01*
X143831074Y-101375210D01*
X143997800Y-101489583D01*
X144004036Y-101493861D01*
X144009316Y-101496206D01*
X144009319Y-101496208D01*
X144118879Y-101544873D01*
X144201006Y-101581352D01*
X144206623Y-101582695D01*
X144206625Y-101582696D01*
X144405624Y-101630288D01*
X144405628Y-101630289D01*
X144410622Y-101631483D01*
X144447574Y-101634132D01*
X144506263Y-101638339D01*
X144506271Y-101638339D01*
X144508513Y-101638500D01*
X144722461Y-101638500D01*
X144940286Y-101638499D01*
X144942579Y-101638331D01*
X144942585Y-101638331D01*
X145035076Y-101631564D01*
X145035079Y-101631564D01*
X145040212Y-101631188D01*
X145045215Y-101629982D01*
X145045217Y-101629982D01*
X145142406Y-101606559D01*
X145249740Y-101580692D01*
X145272043Y-101570739D01*
X145392436Y-101517010D01*
X145446557Y-101492857D01*
X145470112Y-101476638D01*
X145619319Y-101373900D01*
X145619323Y-101373897D01*
X145624073Y-101370626D01*
X145628155Y-101366537D01*
X145772254Y-101222186D01*
X145772258Y-101222181D01*
X145776340Y-101218092D01*
X145779607Y-101213330D01*
X145779610Y-101213326D01*
X145894993Y-101045128D01*
X145894993Y-101045127D01*
X145898261Y-101040364D01*
X145917287Y-100997532D01*
X145964816Y-100890528D01*
X145985752Y-100843394D01*
X145995174Y-100803998D01*
X146001687Y-100776766D01*
X147805400Y-100776766D01*
X147805737Y-100783282D01*
X147815475Y-100877132D01*
X147818368Y-100890528D01*
X147868888Y-101041953D01*
X147875053Y-101055115D01*
X147958826Y-101190492D01*
X147967860Y-101201890D01*
X148080529Y-101314363D01*
X148091940Y-101323375D01*
X148227463Y-101406912D01*
X148240641Y-101413056D01*
X148392166Y-101463315D01*
X148405532Y-101466181D01*
X148498170Y-101475672D01*
X148504585Y-101476000D01*
X148516285Y-101476000D01*
X148531524Y-101471525D01*
X148532729Y-101470135D01*
X148534400Y-101462452D01*
X148534400Y-101457885D01*
X149042400Y-101457885D01*
X149046875Y-101473124D01*
X149048265Y-101474329D01*
X149055948Y-101476000D01*
X149072166Y-101476000D01*
X149078682Y-101475663D01*
X149172532Y-101465925D01*
X149185928Y-101463032D01*
X149337353Y-101412512D01*
X149350515Y-101406347D01*
X149485892Y-101322574D01*
X149497290Y-101313540D01*
X149609763Y-101200871D01*
X149618775Y-101189460D01*
X149702312Y-101053937D01*
X149708456Y-101040759D01*
X149758715Y-100889234D01*
X149761581Y-100875868D01*
X149771072Y-100783230D01*
X149771400Y-100776815D01*
X149771400Y-100702615D01*
X149766925Y-100687376D01*
X149765535Y-100686171D01*
X149757852Y-100684500D01*
X149060515Y-100684500D01*
X149045276Y-100688975D01*
X149044071Y-100690365D01*
X149042400Y-100698048D01*
X149042400Y-101457885D01*
X148534400Y-101457885D01*
X148534400Y-100702615D01*
X148529925Y-100687376D01*
X148528535Y-100686171D01*
X148520852Y-100684500D01*
X147823515Y-100684500D01*
X147808276Y-100688975D01*
X147807071Y-100690365D01*
X147805400Y-100698048D01*
X147805400Y-100776766D01*
X146001687Y-100776766D01*
X146034688Y-100638776D01*
X146034689Y-100638772D01*
X146035883Y-100633778D01*
X146039563Y-100582446D01*
X146042739Y-100538137D01*
X146042739Y-100538129D01*
X146042900Y-100535887D01*
X146042900Y-99504500D01*
X146062902Y-99436379D01*
X146116558Y-99389886D01*
X146168900Y-99378500D01*
X147834203Y-99378500D01*
X147902324Y-99398502D01*
X147941345Y-99438194D01*
X147962284Y-99472031D01*
X147967465Y-99477203D01*
X147969539Y-99479273D01*
X147970505Y-99481038D01*
X147972013Y-99482941D01*
X147971687Y-99483199D01*
X148003619Y-99541554D01*
X147998618Y-99612375D01*
X147969692Y-99657470D01*
X147967036Y-99660131D01*
X147958025Y-99671540D01*
X147874488Y-99807063D01*
X147868344Y-99820241D01*
X147818085Y-99971766D01*
X147815219Y-99985132D01*
X147805728Y-100077770D01*
X147805400Y-100084185D01*
X147805400Y-100158385D01*
X147809875Y-100173624D01*
X147811265Y-100174829D01*
X147818948Y-100176500D01*
X149753285Y-100176500D01*
X149768524Y-100172025D01*
X149769729Y-100170635D01*
X149771400Y-100162952D01*
X149771400Y-100084234D01*
X149771063Y-100077718D01*
X149761325Y-99983868D01*
X149758432Y-99970472D01*
X149739652Y-99914183D01*
X160464389Y-99914183D01*
X160465912Y-99922607D01*
X160478292Y-99926000D01*
X161527885Y-99926000D01*
X161543124Y-99921525D01*
X161544329Y-99920135D01*
X161546000Y-99912452D01*
X161546000Y-99907885D01*
X162054000Y-99907885D01*
X162058475Y-99923124D01*
X162059865Y-99924329D01*
X162067548Y-99926000D01*
X163118344Y-99926000D01*
X163131875Y-99922027D01*
X163133180Y-99912947D01*
X163091214Y-99745875D01*
X163087894Y-99736124D01*
X163002972Y-99540814D01*
X162998105Y-99531739D01*
X162882426Y-99352926D01*
X162876136Y-99344757D01*
X162732806Y-99187240D01*
X162725273Y-99180215D01*
X162558139Y-99048222D01*
X162549552Y-99042517D01*
X162363117Y-98939599D01*
X162353705Y-98935369D01*
X162152959Y-98864280D01*
X162142988Y-98861646D01*
X162071837Y-98848972D01*
X162058540Y-98850432D01*
X162054000Y-98864989D01*
X162054000Y-99907885D01*
X161546000Y-99907885D01*
X161546000Y-98863102D01*
X161542082Y-98849758D01*
X161527806Y-98847771D01*
X161489324Y-98853660D01*
X161479288Y-98856051D01*
X161276868Y-98922212D01*
X161267359Y-98926209D01*
X161078463Y-99024542D01*
X161069738Y-99030036D01*
X160899433Y-99157905D01*
X160891726Y-99164748D01*
X160744590Y-99318717D01*
X160738104Y-99326727D01*
X160618098Y-99502649D01*
X160613000Y-99511623D01*
X160523338Y-99704783D01*
X160519775Y-99714470D01*
X160464389Y-99914183D01*
X149739652Y-99914183D01*
X149707912Y-99819047D01*
X149701747Y-99805885D01*
X149617974Y-99670508D01*
X149608936Y-99659106D01*
X149607261Y-99657433D01*
X149606481Y-99656007D01*
X149604393Y-99653373D01*
X149604844Y-99653016D01*
X149573181Y-99595151D01*
X149578184Y-99524331D01*
X149607101Y-99479246D01*
X149610156Y-99476185D01*
X149615329Y-99471003D01*
X149658480Y-99400999D01*
X149702769Y-99329150D01*
X149702770Y-99329148D01*
X149706609Y-99322920D01*
X149761374Y-99157809D01*
X149764615Y-99126182D01*
X149771572Y-99058271D01*
X149771900Y-99055072D01*
X149771900Y-98355928D01*
X149769974Y-98337361D01*
X149761819Y-98258765D01*
X149761818Y-98258761D01*
X149761107Y-98251907D01*
X149758742Y-98244816D01*
X149708372Y-98093841D01*
X149706054Y-98086893D01*
X149614516Y-97938969D01*
X149563891Y-97888432D01*
X149496584Y-97821242D01*
X149496579Y-97821238D01*
X149491403Y-97816071D01*
X149469191Y-97802379D01*
X149349550Y-97728631D01*
X149349548Y-97728630D01*
X149343320Y-97724791D01*
X149178209Y-97670026D01*
X149171373Y-97669326D01*
X149171370Y-97669325D01*
X149119874Y-97664049D01*
X149075472Y-97659500D01*
X148501328Y-97659500D01*
X148498082Y-97659837D01*
X148498078Y-97659837D01*
X148404165Y-97669581D01*
X148404161Y-97669582D01*
X148397307Y-97670293D01*
X148390771Y-97672474D01*
X148390769Y-97672474D01*
X148286419Y-97707288D01*
X148232293Y-97725346D01*
X148084369Y-97816884D01*
X148079196Y-97822066D01*
X147966642Y-97934816D01*
X147966638Y-97934821D01*
X147961471Y-97939997D01*
X147870191Y-98088080D01*
X147869458Y-98090290D01*
X147823896Y-98142035D01*
X147756619Y-98161500D01*
X146168899Y-98161500D01*
X146100778Y-98141498D01*
X146054285Y-98087842D01*
X146042899Y-98035500D01*
X146042899Y-97004114D01*
X146038763Y-96947578D01*
X146035964Y-96909324D01*
X146035964Y-96909321D01*
X146035588Y-96904188D01*
X146026936Y-96868285D01*
X146000279Y-96757677D01*
X145985092Y-96694660D01*
X145981667Y-96686984D01*
X145926109Y-96562494D01*
X145897257Y-96497843D01*
X145832093Y-96403205D01*
X145778300Y-96325081D01*
X145778297Y-96325077D01*
X145775026Y-96320327D01*
X145728833Y-96274215D01*
X145626586Y-96172146D01*
X145626581Y-96172142D01*
X145622492Y-96168060D01*
X145617730Y-96164793D01*
X145617726Y-96164790D01*
X145449528Y-96049407D01*
X145449527Y-96049407D01*
X145444764Y-96046139D01*
X145407749Y-96029698D01*
X145353616Y-95983767D01*
X145332900Y-95914548D01*
X145332900Y-95044144D01*
X145333978Y-95027698D01*
X145337073Y-95004188D01*
X145338151Y-94996000D01*
X145317238Y-94837149D01*
X145255924Y-94689124D01*
X145182878Y-94593929D01*
X145182874Y-94593925D01*
X145168826Y-94575617D01*
X145163416Y-94568566D01*
X145163413Y-94568563D01*
X145158387Y-94562013D01*
X145146914Y-94553209D01*
X145133021Y-94542548D01*
X145120630Y-94531681D01*
X145041744Y-94452795D01*
X145007718Y-94390483D01*
X145012783Y-94319668D01*
X145055330Y-94262832D01*
X145121850Y-94238021D01*
X145130839Y-94237700D01*
X147829375Y-94237700D01*
X147897496Y-94257702D01*
X147936519Y-94297397D01*
X147958430Y-94332805D01*
X147958436Y-94332812D01*
X147962284Y-94339031D01*
X147967462Y-94344200D01*
X148080216Y-94456758D01*
X148080221Y-94456762D01*
X148085397Y-94461929D01*
X148091627Y-94465769D01*
X148091628Y-94465770D01*
X148216185Y-94542548D01*
X148233480Y-94553209D01*
X148398591Y-94607974D01*
X148405427Y-94608674D01*
X148405430Y-94608675D01*
X148456926Y-94613951D01*
X148501328Y-94618500D01*
X149075472Y-94618500D01*
X149078718Y-94618163D01*
X149078722Y-94618163D01*
X149172635Y-94608419D01*
X149172639Y-94608418D01*
X149179493Y-94607707D01*
X149186029Y-94605526D01*
X149186031Y-94605526D01*
X149334912Y-94555855D01*
X149344507Y-94552654D01*
X149492431Y-94461116D01*
X149498845Y-94454691D01*
X149610158Y-94343184D01*
X149610162Y-94343179D01*
X149615329Y-94338003D01*
X149624282Y-94323479D01*
X149702769Y-94196150D01*
X149702770Y-94196148D01*
X149706609Y-94189920D01*
X149761374Y-94024809D01*
X149763253Y-94006476D01*
X149769796Y-93942604D01*
X149771900Y-93922072D01*
X151516500Y-93922072D01*
X151516837Y-93925318D01*
X151516837Y-93925322D01*
X151525757Y-94011285D01*
X151527293Y-94026093D01*
X151529474Y-94032629D01*
X151529474Y-94032631D01*
X151567350Y-94146159D01*
X151582346Y-94191107D01*
X151673884Y-94339031D01*
X151679066Y-94344204D01*
X151791816Y-94456758D01*
X151791821Y-94456762D01*
X151796997Y-94461929D01*
X151803228Y-94465770D01*
X151803231Y-94465772D01*
X151831617Y-94483270D01*
X151879110Y-94536043D01*
X151891500Y-94590529D01*
X151891500Y-95544433D01*
X151871498Y-95612554D01*
X151859137Y-95628742D01*
X151801633Y-95692607D01*
X151798332Y-95698325D01*
X151798330Y-95698328D01*
X151737343Y-95803961D01*
X151711401Y-95848893D01*
X151700221Y-95883302D01*
X151665781Y-95989300D01*
X151655635Y-96020525D01*
X151654945Y-96027088D01*
X151654945Y-96027089D01*
X151650292Y-96071363D01*
X151636771Y-96200000D01*
X151637461Y-96206565D01*
X151640240Y-96233000D01*
X151655635Y-96379475D01*
X151711401Y-96551107D01*
X151714704Y-96556829D01*
X151714705Y-96556830D01*
X151727156Y-96578395D01*
X151801633Y-96707393D01*
X151806051Y-96712300D01*
X151806052Y-96712301D01*
X151917965Y-96836593D01*
X151922387Y-96841504D01*
X151927729Y-96845385D01*
X151927731Y-96845387D01*
X152001775Y-96899183D01*
X152068385Y-96947578D01*
X152074413Y-96950262D01*
X152074415Y-96950263D01*
X152227217Y-97018295D01*
X152233248Y-97020980D01*
X152321508Y-97039740D01*
X152403311Y-97057128D01*
X152403315Y-97057128D01*
X152409768Y-97058500D01*
X152590232Y-97058500D01*
X152596685Y-97057128D01*
X152596689Y-97057128D01*
X152678492Y-97039740D01*
X152766752Y-97020980D01*
X152772783Y-97018295D01*
X152925585Y-96950263D01*
X152925587Y-96950262D01*
X152931615Y-96947578D01*
X152998225Y-96899183D01*
X153072269Y-96845387D01*
X153072271Y-96845385D01*
X153077613Y-96841504D01*
X153082035Y-96836593D01*
X153193948Y-96712301D01*
X153193949Y-96712300D01*
X153198367Y-96707393D01*
X153272844Y-96578395D01*
X153285295Y-96556830D01*
X153285296Y-96556829D01*
X153288599Y-96551107D01*
X153344365Y-96379475D01*
X153359761Y-96233000D01*
X153362539Y-96206565D01*
X153363229Y-96200000D01*
X153349708Y-96071363D01*
X153345055Y-96027089D01*
X153345055Y-96027088D01*
X153344365Y-96020525D01*
X153334220Y-95989300D01*
X153299779Y-95883302D01*
X153288599Y-95848893D01*
X153262658Y-95803961D01*
X153201670Y-95698328D01*
X153201668Y-95698325D01*
X153198367Y-95692607D01*
X153140864Y-95628743D01*
X153110147Y-95564736D01*
X153108500Y-95544433D01*
X153108500Y-94590436D01*
X153128502Y-94522315D01*
X153168197Y-94483292D01*
X153197805Y-94464970D01*
X153197812Y-94464964D01*
X153204031Y-94461116D01*
X153210445Y-94454691D01*
X153321758Y-94343184D01*
X153321762Y-94343179D01*
X153326929Y-94338003D01*
X153335882Y-94323479D01*
X153414369Y-94196150D01*
X153414370Y-94196148D01*
X153418209Y-94189920D01*
X153470268Y-94032966D01*
X160418257Y-94032966D01*
X160448565Y-94167446D01*
X160451645Y-94177275D01*
X160531770Y-94374603D01*
X160536413Y-94383794D01*
X160647694Y-94565388D01*
X160653777Y-94573699D01*
X160793213Y-94734667D01*
X160800580Y-94741883D01*
X160964434Y-94877916D01*
X160972881Y-94883831D01*
X161156756Y-94991279D01*
X161166042Y-94995729D01*
X161365001Y-95071703D01*
X161374899Y-95074579D01*
X161478250Y-95095606D01*
X161492299Y-95094410D01*
X161496000Y-95084065D01*
X161496000Y-95083517D01*
X162004000Y-95083517D01*
X162008064Y-95097359D01*
X162021478Y-95099393D01*
X162028184Y-95098534D01*
X162038262Y-95096392D01*
X162242255Y-95035191D01*
X162251842Y-95031433D01*
X162443095Y-94937739D01*
X162451945Y-94932464D01*
X162625328Y-94808792D01*
X162633200Y-94802139D01*
X162784052Y-94651812D01*
X162790730Y-94643965D01*
X162915003Y-94471020D01*
X162920313Y-94462183D01*
X163014670Y-94271267D01*
X163018469Y-94261672D01*
X163080377Y-94057910D01*
X163082555Y-94047837D01*
X163083986Y-94036962D01*
X163081775Y-94022778D01*
X163068617Y-94019000D01*
X162022115Y-94019000D01*
X162006876Y-94023475D01*
X162005671Y-94024865D01*
X162004000Y-94032548D01*
X162004000Y-95083517D01*
X161496000Y-95083517D01*
X161496000Y-94037115D01*
X161491525Y-94021876D01*
X161490135Y-94020671D01*
X161482452Y-94019000D01*
X160433225Y-94019000D01*
X160419694Y-94022973D01*
X160418257Y-94032966D01*
X153470268Y-94032966D01*
X153472974Y-94024809D01*
X153474853Y-94006476D01*
X153481396Y-93942604D01*
X153483500Y-93922072D01*
X153483500Y-93869669D01*
X168017001Y-93869669D01*
X168017371Y-93876490D01*
X168022895Y-93927352D01*
X168026521Y-93942604D01*
X168071676Y-94063054D01*
X168080214Y-94078649D01*
X168156715Y-94180724D01*
X168169276Y-94193285D01*
X168271351Y-94269786D01*
X168286946Y-94278324D01*
X168407394Y-94323478D01*
X168422649Y-94327105D01*
X168473514Y-94332631D01*
X168480328Y-94333000D01*
X168727885Y-94333000D01*
X168743124Y-94328525D01*
X168744329Y-94327135D01*
X168746000Y-94319452D01*
X168746000Y-94314884D01*
X169254000Y-94314884D01*
X169258475Y-94330123D01*
X169259865Y-94331328D01*
X169267548Y-94332999D01*
X169519669Y-94332999D01*
X169526490Y-94332629D01*
X169577352Y-94327105D01*
X169592604Y-94323479D01*
X169713054Y-94278324D01*
X169728649Y-94269786D01*
X169830724Y-94193285D01*
X169843285Y-94180724D01*
X169919786Y-94078649D01*
X169928324Y-94063054D01*
X169973478Y-93942606D01*
X169977105Y-93927351D01*
X169982631Y-93876486D01*
X169983000Y-93869672D01*
X169983000Y-93622115D01*
X169978525Y-93606876D01*
X169977135Y-93605671D01*
X169969452Y-93604000D01*
X169272115Y-93604000D01*
X169256876Y-93608475D01*
X169255671Y-93609865D01*
X169254000Y-93617548D01*
X169254000Y-94314884D01*
X168746000Y-94314884D01*
X168746000Y-93622115D01*
X168741525Y-93606876D01*
X168740135Y-93605671D01*
X168732452Y-93604000D01*
X168035116Y-93604000D01*
X168019877Y-93608475D01*
X168018672Y-93609865D01*
X168017001Y-93617548D01*
X168017001Y-93869669D01*
X153483500Y-93869669D01*
X153483500Y-93322928D01*
X153472707Y-93218907D01*
X153430743Y-93093124D01*
X153419972Y-93060841D01*
X153417654Y-93053893D01*
X153326116Y-92905969D01*
X153288933Y-92868851D01*
X153219214Y-92799253D01*
X153185135Y-92736970D01*
X153190138Y-92666150D01*
X153219059Y-92621063D01*
X153321754Y-92518188D01*
X153321758Y-92518183D01*
X153326929Y-92513003D01*
X153369684Y-92443642D01*
X153414369Y-92371150D01*
X153414370Y-92371148D01*
X153418209Y-92364920D01*
X153472974Y-92199809D01*
X153474012Y-92189684D01*
X153482800Y-92103903D01*
X153483500Y-92097072D01*
X153483500Y-91959500D01*
X153503502Y-91891379D01*
X153557158Y-91844886D01*
X153609500Y-91833500D01*
X160265500Y-91833500D01*
X160333621Y-91853502D01*
X160380114Y-91907158D01*
X160391500Y-91959500D01*
X160391500Y-92123134D01*
X160398255Y-92185316D01*
X160449385Y-92321705D01*
X160536739Y-92438261D01*
X160653295Y-92525615D01*
X160661704Y-92528767D01*
X160661705Y-92528768D01*
X160770960Y-92569726D01*
X160827725Y-92612367D01*
X160852425Y-92678929D01*
X160837218Y-92748278D01*
X160817825Y-92774759D01*
X160694590Y-92903717D01*
X160688104Y-92911727D01*
X160568098Y-93087649D01*
X160563000Y-93096623D01*
X160473338Y-93289783D01*
X160469775Y-93299470D01*
X160414389Y-93499183D01*
X160415912Y-93507607D01*
X160428292Y-93511000D01*
X163068344Y-93511000D01*
X163081875Y-93507027D01*
X163083180Y-93497947D01*
X163041214Y-93330875D01*
X163037894Y-93321124D01*
X162952972Y-93125814D01*
X162948105Y-93116739D01*
X162832426Y-92937926D01*
X162826136Y-92929757D01*
X162682293Y-92771677D01*
X162651241Y-92707831D01*
X162659635Y-92637333D01*
X162704812Y-92582564D01*
X162731256Y-92568895D01*
X162838297Y-92528767D01*
X162846705Y-92525615D01*
X162963261Y-92438261D01*
X163050615Y-92321705D01*
X163101745Y-92185316D01*
X163108500Y-92123134D01*
X163108500Y-90326866D01*
X163101745Y-90264684D01*
X163050615Y-90128295D01*
X162963261Y-90011739D01*
X162846705Y-89924385D01*
X162710316Y-89873255D01*
X162648134Y-89866500D01*
X160851866Y-89866500D01*
X160789684Y-89873255D01*
X160653295Y-89924385D01*
X160536739Y-90011739D01*
X160449385Y-90128295D01*
X160398255Y-90264684D01*
X160391500Y-90326866D01*
X160391500Y-90490500D01*
X160371498Y-90558621D01*
X160317842Y-90605114D01*
X160265500Y-90616500D01*
X153120636Y-90616500D01*
X153104190Y-90615422D01*
X153080688Y-90612328D01*
X153072500Y-90611250D01*
X153064312Y-90612328D01*
X153032629Y-90616499D01*
X153032620Y-90616500D01*
X153032615Y-90616500D01*
X152913650Y-90632162D01*
X152765625Y-90693476D01*
X152765623Y-90693477D01*
X152765624Y-90693477D01*
X152670428Y-90766523D01*
X152670425Y-90766526D01*
X152658773Y-90775467D01*
X152592551Y-90801064D01*
X152582075Y-90801500D01*
X152212928Y-90801500D01*
X152209682Y-90801837D01*
X152209678Y-90801837D01*
X152115765Y-90811581D01*
X152115761Y-90811582D01*
X152108907Y-90812293D01*
X152102371Y-90814474D01*
X152102369Y-90814474D01*
X152057418Y-90829471D01*
X151943893Y-90867346D01*
X151795969Y-90958884D01*
X151790796Y-90964066D01*
X151678242Y-91076816D01*
X151678238Y-91076821D01*
X151673071Y-91081997D01*
X151669231Y-91088227D01*
X151669230Y-91088228D01*
X151586364Y-91222662D01*
X151581791Y-91230080D01*
X151527026Y-91395191D01*
X151526326Y-91402027D01*
X151526325Y-91402030D01*
X151521602Y-91448134D01*
X151516500Y-91497928D01*
X151516500Y-92097072D01*
X151516837Y-92100318D01*
X151516837Y-92100322D01*
X151526424Y-92192715D01*
X151527293Y-92201093D01*
X151529474Y-92207629D01*
X151529474Y-92207631D01*
X151533737Y-92220409D01*
X151582346Y-92366107D01*
X151673884Y-92514031D01*
X151679066Y-92519204D01*
X151780786Y-92620747D01*
X151814865Y-92683030D01*
X151809862Y-92753850D01*
X151780941Y-92798937D01*
X151678246Y-92901812D01*
X151678242Y-92901817D01*
X151673071Y-92906997D01*
X151669231Y-92913227D01*
X151669230Y-92913228D01*
X151586364Y-93047662D01*
X151581791Y-93055080D01*
X151527026Y-93220191D01*
X151516500Y-93322928D01*
X151516500Y-93922072D01*
X149771900Y-93922072D01*
X149771900Y-93322928D01*
X149761107Y-93218907D01*
X149719143Y-93093124D01*
X149708372Y-93060841D01*
X149706054Y-93053893D01*
X149614516Y-92905969D01*
X149577333Y-92868851D01*
X149507614Y-92799253D01*
X149473535Y-92736970D01*
X149478538Y-92666150D01*
X149507459Y-92621063D01*
X149610154Y-92518188D01*
X149610158Y-92518183D01*
X149615329Y-92513003D01*
X149658084Y-92443642D01*
X149702769Y-92371150D01*
X149702770Y-92371148D01*
X149706609Y-92364920D01*
X149761374Y-92199809D01*
X149762412Y-92189684D01*
X149771200Y-92103903D01*
X149771900Y-92097072D01*
X149771900Y-91497928D01*
X149768497Y-91465128D01*
X149761819Y-91400765D01*
X149761818Y-91400761D01*
X149761107Y-91393907D01*
X149739881Y-91330283D01*
X149708372Y-91235841D01*
X149706054Y-91228893D01*
X149614516Y-91080969D01*
X149589315Y-91055812D01*
X149496584Y-90963242D01*
X149496579Y-90963238D01*
X149491403Y-90958071D01*
X149481337Y-90951866D01*
X149456783Y-90936730D01*
X149409290Y-90883957D01*
X149396900Y-90829471D01*
X149396900Y-90272436D01*
X149416902Y-90204315D01*
X149456597Y-90165292D01*
X149486205Y-90146970D01*
X149486212Y-90146964D01*
X149492431Y-90143116D01*
X149514400Y-90121109D01*
X149610158Y-90025184D01*
X149610162Y-90025179D01*
X149615329Y-90020003D01*
X149639911Y-89980124D01*
X149702769Y-89878150D01*
X149702770Y-89878148D01*
X149706609Y-89871920D01*
X149761374Y-89706809D01*
X149765584Y-89665723D01*
X149771572Y-89607271D01*
X149771900Y-89604072D01*
X151516500Y-89604072D01*
X151516837Y-89607318D01*
X151516837Y-89607322D01*
X151526311Y-89698624D01*
X151527293Y-89708093D01*
X151582346Y-89873107D01*
X151673884Y-90021031D01*
X151679066Y-90026204D01*
X151791816Y-90138758D01*
X151791821Y-90138762D01*
X151796997Y-90143929D01*
X151803227Y-90147769D01*
X151803228Y-90147770D01*
X151931810Y-90227029D01*
X151945080Y-90235209D01*
X152110191Y-90289974D01*
X152117027Y-90290674D01*
X152117030Y-90290675D01*
X152168526Y-90295951D01*
X152212928Y-90300500D01*
X152787072Y-90300500D01*
X152790318Y-90300163D01*
X152790322Y-90300163D01*
X152884235Y-90290419D01*
X152884239Y-90290418D01*
X152891093Y-90289707D01*
X152897629Y-90287526D01*
X152897631Y-90287526D01*
X153034889Y-90241733D01*
X153056107Y-90234654D01*
X153204031Y-90143116D01*
X153226000Y-90121109D01*
X153321758Y-90025184D01*
X153321762Y-90025179D01*
X153326929Y-90020003D01*
X153341220Y-89996819D01*
X153355975Y-89972883D01*
X153408747Y-89925390D01*
X153463234Y-89913000D01*
X156647364Y-89913000D01*
X156663807Y-89914078D01*
X156695500Y-89918250D01*
X156703689Y-89917172D01*
X156735374Y-89913001D01*
X156735384Y-89913000D01*
X156735385Y-89913000D01*
X156746126Y-89911586D01*
X156834957Y-89899891D01*
X156846164Y-89898416D01*
X156846166Y-89898415D01*
X156854351Y-89897338D01*
X157002376Y-89836024D01*
X157020176Y-89822366D01*
X157097572Y-89762977D01*
X157097575Y-89762974D01*
X157102805Y-89758961D01*
X157129487Y-89738487D01*
X157139886Y-89724935D01*
X157148952Y-89713121D01*
X157159819Y-89700730D01*
X158215144Y-88645405D01*
X158277456Y-88611379D01*
X158304239Y-88608500D01*
X167695761Y-88608500D01*
X167763882Y-88628502D01*
X167784856Y-88645405D01*
X168354595Y-89215144D01*
X168388621Y-89277456D01*
X168391500Y-89304239D01*
X168391500Y-90794618D01*
X168371498Y-90862739D01*
X168317842Y-90909232D01*
X168309731Y-90912599D01*
X168286707Y-90921231D01*
X168286704Y-90921232D01*
X168278295Y-90924385D01*
X168161739Y-91011739D01*
X168074385Y-91128295D01*
X168023255Y-91264684D01*
X168016500Y-91326866D01*
X168016500Y-92373134D01*
X168023255Y-92435316D01*
X168026027Y-92442712D01*
X168026029Y-92442718D01*
X168068678Y-92556483D01*
X168073861Y-92627290D01*
X168068678Y-92644941D01*
X168026522Y-92757391D01*
X168022895Y-92772649D01*
X168017369Y-92823514D01*
X168017000Y-92830328D01*
X168017000Y-93077885D01*
X168021475Y-93093124D01*
X168022865Y-93094329D01*
X168030548Y-93096000D01*
X169964884Y-93096000D01*
X169980123Y-93091525D01*
X169981328Y-93090135D01*
X169982999Y-93082452D01*
X169982999Y-92830331D01*
X169982629Y-92823510D01*
X169977105Y-92772648D01*
X169973478Y-92757394D01*
X169931322Y-92644941D01*
X169926139Y-92574134D01*
X169931322Y-92556483D01*
X169973971Y-92442718D01*
X169973973Y-92442712D01*
X169976745Y-92435316D01*
X169983500Y-92373134D01*
X169983500Y-91326866D01*
X169976745Y-91264684D01*
X169925615Y-91128295D01*
X169838261Y-91011739D01*
X169721705Y-90924385D01*
X169713296Y-90921232D01*
X169713293Y-90921231D01*
X169690269Y-90912599D01*
X169633505Y-90869957D01*
X169608806Y-90803395D01*
X169608500Y-90794618D01*
X169608500Y-89048144D01*
X169609578Y-89031698D01*
X169612673Y-89008188D01*
X169613751Y-89000000D01*
X169592838Y-88841149D01*
X169531524Y-88693124D01*
X169458478Y-88597929D01*
X169458474Y-88597925D01*
X169455780Y-88594414D01*
X169439016Y-88572566D01*
X169439013Y-88572563D01*
X169433987Y-88566013D01*
X169426808Y-88560504D01*
X169408621Y-88546548D01*
X169396230Y-88535681D01*
X168464315Y-87603766D01*
X168453448Y-87591375D01*
X168439013Y-87572563D01*
X168433987Y-87566013D01*
X168402075Y-87541526D01*
X168402069Y-87541520D01*
X168313429Y-87473504D01*
X168313427Y-87473503D01*
X168306876Y-87468476D01*
X168158851Y-87407162D01*
X168150664Y-87406084D01*
X168150663Y-87406084D01*
X168139458Y-87404609D01*
X168108262Y-87400502D01*
X168039885Y-87391500D01*
X168039882Y-87391500D01*
X168039874Y-87391499D01*
X168008189Y-87387328D01*
X168000000Y-87386250D01*
X167968307Y-87390422D01*
X167951864Y-87391500D01*
X158048144Y-87391500D01*
X158031698Y-87390422D01*
X158008188Y-87387327D01*
X158000000Y-87386249D01*
X157841149Y-87407162D01*
X157693124Y-87468476D01*
X157661400Y-87492819D01*
X157597937Y-87541515D01*
X157597921Y-87541529D01*
X157572566Y-87560984D01*
X157572563Y-87560987D01*
X157566013Y-87566013D01*
X157560983Y-87572568D01*
X157546548Y-87591379D01*
X157535681Y-87603770D01*
X156480356Y-88659095D01*
X156418044Y-88693121D01*
X156391261Y-88696000D01*
X153463170Y-88696000D01*
X153395049Y-88675998D01*
X153356026Y-88636303D01*
X153353469Y-88632170D01*
X153326116Y-88587969D01*
X153319636Y-88581500D01*
X153219214Y-88481253D01*
X153185135Y-88418970D01*
X153190138Y-88348150D01*
X153219059Y-88303063D01*
X153321754Y-88200188D01*
X153321758Y-88200183D01*
X153326929Y-88195003D01*
X153330770Y-88188772D01*
X153414369Y-88053150D01*
X153414370Y-88053148D01*
X153418209Y-88046920D01*
X153472974Y-87881809D01*
X153474728Y-87864696D01*
X153480018Y-87813058D01*
X153483500Y-87779072D01*
X153483500Y-87179928D01*
X153476181Y-87109387D01*
X153473419Y-87082765D01*
X153473418Y-87082761D01*
X153472707Y-87075907D01*
X153461332Y-87041810D01*
X153419972Y-86917841D01*
X153417654Y-86910893D01*
X153326116Y-86762969D01*
X153305018Y-86741908D01*
X153208184Y-86645242D01*
X153208179Y-86645238D01*
X153203003Y-86640071D01*
X153196769Y-86636228D01*
X153168383Y-86618730D01*
X153120890Y-86565957D01*
X153108500Y-86511471D01*
X153108500Y-86155567D01*
X153128502Y-86087446D01*
X153140864Y-86071256D01*
X153146024Y-86065526D01*
X153198367Y-86007393D01*
X153230627Y-85951518D01*
X153285295Y-85856830D01*
X153285296Y-85856829D01*
X153288599Y-85851107D01*
X153344365Y-85679475D01*
X153346902Y-85655343D01*
X153362539Y-85506565D01*
X153363229Y-85500000D01*
X153347563Y-85350952D01*
X153345055Y-85327089D01*
X153345055Y-85327088D01*
X153344365Y-85320525D01*
X153288599Y-85148893D01*
X153198367Y-84992607D01*
X153077613Y-84858496D01*
X152931615Y-84752422D01*
X152925587Y-84749738D01*
X152925585Y-84749737D01*
X152772783Y-84681705D01*
X152772781Y-84681705D01*
X152766752Y-84679020D01*
X152668669Y-84658172D01*
X152596689Y-84642872D01*
X152596685Y-84642872D01*
X152590232Y-84641500D01*
X152409768Y-84641500D01*
X152403315Y-84642872D01*
X152403311Y-84642872D01*
X152331331Y-84658172D01*
X152233248Y-84679020D01*
X152227219Y-84681704D01*
X152227217Y-84681705D01*
X152074416Y-84749737D01*
X152074414Y-84749738D01*
X152068386Y-84752422D01*
X152063045Y-84756302D01*
X152063044Y-84756303D01*
X151927731Y-84854613D01*
X151927729Y-84854615D01*
X151922387Y-84858496D01*
X151801633Y-84992607D01*
X151711401Y-85148893D01*
X151655635Y-85320525D01*
X151654945Y-85327088D01*
X151654945Y-85327089D01*
X151652437Y-85350952D01*
X151636771Y-85500000D01*
X151637461Y-85506565D01*
X151653099Y-85655343D01*
X151655635Y-85679475D01*
X151711401Y-85851107D01*
X151714704Y-85856829D01*
X151714705Y-85856830D01*
X151769373Y-85951518D01*
X151801633Y-86007393D01*
X151853977Y-86065526D01*
X151859136Y-86071256D01*
X151889853Y-86135264D01*
X151891500Y-86155567D01*
X151891500Y-86511564D01*
X151871498Y-86579685D01*
X151831803Y-86618708D01*
X151802195Y-86637030D01*
X151802188Y-86637036D01*
X151795969Y-86640884D01*
X151790800Y-86646062D01*
X151678242Y-86758816D01*
X151678238Y-86758821D01*
X151673071Y-86763997D01*
X151669231Y-86770227D01*
X151669230Y-86770228D01*
X151586364Y-86904662D01*
X151581791Y-86912080D01*
X151527026Y-87077191D01*
X151526326Y-87084027D01*
X151526325Y-87084030D01*
X151523727Y-87109387D01*
X151516500Y-87179928D01*
X151516500Y-87779072D01*
X151516837Y-87782318D01*
X151516837Y-87782322D01*
X151526538Y-87875815D01*
X151527293Y-87883093D01*
X151529474Y-87889629D01*
X151529474Y-87889631D01*
X151568147Y-88005548D01*
X151582346Y-88048107D01*
X151673884Y-88196031D01*
X151679066Y-88201204D01*
X151780786Y-88302747D01*
X151814865Y-88365030D01*
X151809862Y-88435850D01*
X151780941Y-88480937D01*
X151678246Y-88583812D01*
X151678242Y-88583817D01*
X151673071Y-88588997D01*
X151669231Y-88595227D01*
X151669230Y-88595228D01*
X151602514Y-88703462D01*
X151581791Y-88737080D01*
X151527026Y-88902191D01*
X151526326Y-88909027D01*
X151526325Y-88909030D01*
X151521049Y-88960526D01*
X151516500Y-89004928D01*
X151516500Y-89604072D01*
X149771900Y-89604072D01*
X149771900Y-88904928D01*
X149765673Y-88844913D01*
X149761819Y-88807765D01*
X149761818Y-88807761D01*
X149761107Y-88800907D01*
X149738859Y-88734220D01*
X149708372Y-88642841D01*
X149706054Y-88635893D01*
X149614516Y-88487969D01*
X149607261Y-88480726D01*
X149606295Y-88478962D01*
X149604787Y-88477059D01*
X149605113Y-88476801D01*
X149573181Y-88418446D01*
X149578182Y-88347625D01*
X149607108Y-88302530D01*
X149609764Y-88299869D01*
X149618775Y-88288460D01*
X149702312Y-88152937D01*
X149708456Y-88139759D01*
X149758715Y-87988234D01*
X149761581Y-87974868D01*
X149771072Y-87882230D01*
X149771400Y-87875815D01*
X149771400Y-87801615D01*
X149766925Y-87786376D01*
X149765535Y-87785171D01*
X149757852Y-87783500D01*
X147823515Y-87783500D01*
X147808276Y-87787975D01*
X147807071Y-87789365D01*
X147805400Y-87797048D01*
X147805400Y-87875766D01*
X147805737Y-87882282D01*
X147815475Y-87976132D01*
X147818368Y-87989528D01*
X147868888Y-88140953D01*
X147875053Y-88154115D01*
X147958826Y-88289492D01*
X147967864Y-88300894D01*
X147969539Y-88302567D01*
X147970319Y-88303993D01*
X147972407Y-88306627D01*
X147971956Y-88306984D01*
X148003619Y-88364849D01*
X147998616Y-88435669D01*
X147969699Y-88480754D01*
X147969201Y-88481253D01*
X147961471Y-88488997D01*
X147957629Y-88495229D01*
X147957628Y-88495231D01*
X147941363Y-88521617D01*
X147888591Y-88569110D01*
X147834104Y-88581500D01*
X146168899Y-88581500D01*
X146100778Y-88561498D01*
X146054285Y-88507842D01*
X146042899Y-88455500D01*
X146042899Y-87424114D01*
X146040129Y-87386249D01*
X146035964Y-87329324D01*
X146035964Y-87329321D01*
X146035588Y-87324188D01*
X146033353Y-87314912D01*
X146019489Y-87257385D01*
X147805400Y-87257385D01*
X147809875Y-87272624D01*
X147811265Y-87273829D01*
X147818948Y-87275500D01*
X148516285Y-87275500D01*
X148531524Y-87271025D01*
X148532729Y-87269635D01*
X148534400Y-87261952D01*
X148534400Y-87257385D01*
X149042400Y-87257385D01*
X149046875Y-87272624D01*
X149048265Y-87273829D01*
X149055948Y-87275500D01*
X149753285Y-87275500D01*
X149768524Y-87271025D01*
X149769729Y-87269635D01*
X149771400Y-87261952D01*
X149771400Y-87183234D01*
X149771063Y-87176718D01*
X149761325Y-87082868D01*
X149758432Y-87069472D01*
X149707912Y-86918047D01*
X149701747Y-86904885D01*
X149617974Y-86769508D01*
X149608940Y-86758110D01*
X149496271Y-86645637D01*
X149484860Y-86636625D01*
X149349337Y-86553088D01*
X149336159Y-86546944D01*
X149184634Y-86496685D01*
X149171268Y-86493819D01*
X149078630Y-86484328D01*
X149072215Y-86484000D01*
X149060515Y-86484000D01*
X149045276Y-86488475D01*
X149044071Y-86489865D01*
X149042400Y-86497548D01*
X149042400Y-87257385D01*
X148534400Y-87257385D01*
X148534400Y-86502115D01*
X148529925Y-86486876D01*
X148528535Y-86485671D01*
X148520852Y-86484000D01*
X148504634Y-86484000D01*
X148498118Y-86484337D01*
X148404268Y-86494075D01*
X148390872Y-86496968D01*
X148239447Y-86547488D01*
X148226285Y-86553653D01*
X148090908Y-86637426D01*
X148079510Y-86646460D01*
X147967037Y-86759129D01*
X147958025Y-86770540D01*
X147874488Y-86906063D01*
X147868344Y-86919241D01*
X147818085Y-87070766D01*
X147815219Y-87084132D01*
X147805728Y-87176770D01*
X147805400Y-87183185D01*
X147805400Y-87257385D01*
X146019489Y-87257385D01*
X146001597Y-87183146D01*
X145985092Y-87114660D01*
X145968371Y-87077191D01*
X145922180Y-86973689D01*
X145897257Y-86917843D01*
X145892650Y-86911152D01*
X145778300Y-86745081D01*
X145778297Y-86745077D01*
X145775026Y-86740327D01*
X145770937Y-86736245D01*
X145626586Y-86592146D01*
X145626581Y-86592142D01*
X145622492Y-86588060D01*
X145617730Y-86584793D01*
X145617726Y-86584790D01*
X145449528Y-86469407D01*
X145449527Y-86469407D01*
X145444764Y-86466139D01*
X145439484Y-86463794D01*
X145439481Y-86463792D01*
X145272637Y-86389683D01*
X145247794Y-86378648D01*
X145242177Y-86377305D01*
X145242175Y-86377304D01*
X145043176Y-86329712D01*
X145043172Y-86329711D01*
X145038178Y-86328517D01*
X145005879Y-86326202D01*
X144981457Y-86324451D01*
X144914941Y-86299629D01*
X144872403Y-86242786D01*
X144867350Y-86171970D01*
X144891517Y-86120766D01*
X144910744Y-86096377D01*
X144910745Y-86096376D01*
X144914319Y-86091842D01*
X144938883Y-86045154D01*
X145012907Y-85904455D01*
X145015595Y-85899346D01*
X145080097Y-85691618D01*
X145096390Y-85553962D01*
X145100564Y-85518697D01*
X145100564Y-85518690D01*
X145101000Y-85515010D01*
X145101000Y-84668901D01*
X145121002Y-84600780D01*
X145174658Y-84554287D01*
X145239842Y-84543557D01*
X145289768Y-84548672D01*
X145296185Y-84549000D01*
X145370385Y-84549000D01*
X145385624Y-84544525D01*
X145386829Y-84543135D01*
X145388500Y-84535452D01*
X145388500Y-84530885D01*
X145896500Y-84530885D01*
X145900975Y-84546124D01*
X145902365Y-84547329D01*
X145910048Y-84549000D01*
X145988766Y-84549000D01*
X145995282Y-84548663D01*
X146089132Y-84538925D01*
X146102528Y-84536032D01*
X146253953Y-84485512D01*
X146267115Y-84479347D01*
X146402492Y-84395574D01*
X146413890Y-84386540D01*
X146526363Y-84273871D01*
X146535375Y-84262460D01*
X146618912Y-84126937D01*
X146625056Y-84113759D01*
X146675315Y-83962234D01*
X146678181Y-83948868D01*
X146687672Y-83856230D01*
X146688000Y-83849815D01*
X146688000Y-83838115D01*
X146683525Y-83822876D01*
X146682135Y-83821671D01*
X146674452Y-83820000D01*
X145914615Y-83820000D01*
X145899376Y-83824475D01*
X145898171Y-83825865D01*
X145896500Y-83833548D01*
X145896500Y-84530885D01*
X145388500Y-84530885D01*
X145388500Y-83293885D01*
X145896500Y-83293885D01*
X145900975Y-83309124D01*
X145902365Y-83310329D01*
X145910048Y-83312000D01*
X146669885Y-83312000D01*
X146685124Y-83307525D01*
X146686329Y-83306135D01*
X146688000Y-83298452D01*
X146688000Y-83282234D01*
X146687663Y-83275718D01*
X146677925Y-83181868D01*
X146675032Y-83168472D01*
X146624512Y-83017047D01*
X146618347Y-83003885D01*
X146534574Y-82868508D01*
X146525540Y-82857110D01*
X146412871Y-82744637D01*
X146401460Y-82735625D01*
X146274444Y-82657332D01*
X146226951Y-82604560D01*
X146215527Y-82534489D01*
X146243801Y-82469365D01*
X146274257Y-82442927D01*
X146402496Y-82363571D01*
X146413890Y-82354540D01*
X146526363Y-82241871D01*
X146535375Y-82230460D01*
X146618912Y-82094937D01*
X146625056Y-82081759D01*
X146675315Y-81930234D01*
X146678181Y-81916868D01*
X146687672Y-81824230D01*
X146688000Y-81817815D01*
X146688000Y-81806115D01*
X146683525Y-81790876D01*
X146682135Y-81789671D01*
X146674452Y-81788000D01*
X145914615Y-81788000D01*
X145899376Y-81792475D01*
X145898171Y-81793865D01*
X145896500Y-81801548D01*
X145896500Y-82498885D01*
X145899643Y-82509589D01*
X145901868Y-82571869D01*
X145896500Y-82596547D01*
X145896500Y-83293885D01*
X145388500Y-83293885D01*
X145388500Y-82601115D01*
X145385357Y-82590411D01*
X145383132Y-82528131D01*
X145388500Y-82503453D01*
X145388500Y-81261885D01*
X145896500Y-81261885D01*
X145900975Y-81277124D01*
X145902365Y-81278329D01*
X145910048Y-81280000D01*
X146669885Y-81280000D01*
X146685124Y-81275525D01*
X146686329Y-81274135D01*
X146688000Y-81266452D01*
X146688000Y-81250234D01*
X146687663Y-81243718D01*
X146677925Y-81149868D01*
X146675032Y-81136472D01*
X146624512Y-80985047D01*
X146618347Y-80971885D01*
X146534574Y-80836508D01*
X146525540Y-80825110D01*
X146412871Y-80712637D01*
X146401460Y-80703625D01*
X146265937Y-80620088D01*
X146252759Y-80613944D01*
X146101234Y-80563685D01*
X146087868Y-80560819D01*
X145995230Y-80551328D01*
X145988815Y-80551000D01*
X145914615Y-80551000D01*
X145899376Y-80555475D01*
X145898171Y-80556865D01*
X145896500Y-80564548D01*
X145896500Y-81261885D01*
X145388500Y-81261885D01*
X145388500Y-80569115D01*
X145384025Y-80553876D01*
X145382635Y-80552671D01*
X145374952Y-80551000D01*
X145296234Y-80551000D01*
X145289718Y-80551337D01*
X145195868Y-80561075D01*
X145182466Y-80563969D01*
X145113377Y-80587020D01*
X145042427Y-80589606D01*
X144981343Y-80553422D01*
X144949518Y-80489958D01*
X144947500Y-80467497D01*
X144947500Y-79954824D01*
X144932667Y-79793400D01*
X144930959Y-79787342D01*
X144875195Y-79589619D01*
X144873626Y-79584055D01*
X144777423Y-79388974D01*
X144734965Y-79332115D01*
X144650733Y-79219315D01*
X144650732Y-79219314D01*
X144647280Y-79214691D01*
X144618237Y-79187844D01*
X144491796Y-79070963D01*
X144491793Y-79070961D01*
X144487556Y-79067044D01*
X144303599Y-78950976D01*
X144270560Y-78937795D01*
X149313058Y-78937795D01*
X149316347Y-79021488D01*
X149316403Y-79022925D01*
X149316500Y-79027872D01*
X149316500Y-83055176D01*
X149331333Y-83216600D01*
X149332902Y-83222162D01*
X149332902Y-83222164D01*
X149353129Y-83293885D01*
X149390374Y-83425945D01*
X149486577Y-83621026D01*
X149490031Y-83625652D01*
X149490032Y-83625653D01*
X149551047Y-83707362D01*
X149616720Y-83795309D01*
X149620954Y-83799223D01*
X149620956Y-83799225D01*
X149718500Y-83889393D01*
X149776444Y-83942956D01*
X149960401Y-84059024D01*
X150162428Y-84139624D01*
X150375761Y-84182059D01*
X150381536Y-84182135D01*
X150381540Y-84182135D01*
X150490581Y-84183562D01*
X150593254Y-84184906D01*
X150598951Y-84183927D01*
X150598952Y-84183927D01*
X150801935Y-84149048D01*
X150801938Y-84149047D01*
X150807625Y-84148070D01*
X151011693Y-84072786D01*
X151198624Y-83961573D01*
X151362158Y-83818158D01*
X151433439Y-83727739D01*
X151493245Y-83651876D01*
X151493247Y-83651874D01*
X151496819Y-83647342D01*
X151523065Y-83597457D01*
X151590399Y-83469473D01*
X151598095Y-83454846D01*
X151617526Y-83392270D01*
X151660883Y-83252639D01*
X151660884Y-83252636D01*
X151662597Y-83247118D01*
X151668634Y-83196110D01*
X151683064Y-83074197D01*
X151683064Y-83074190D01*
X151683500Y-83070510D01*
X151683500Y-82822966D01*
X160418257Y-82822966D01*
X160448565Y-82957446D01*
X160451645Y-82967275D01*
X160531770Y-83164603D01*
X160536413Y-83173794D01*
X160647694Y-83355388D01*
X160653777Y-83363699D01*
X160793213Y-83524667D01*
X160800580Y-83531883D01*
X160964434Y-83667916D01*
X160972881Y-83673831D01*
X161156756Y-83781279D01*
X161166042Y-83785729D01*
X161365001Y-83861703D01*
X161374899Y-83864579D01*
X161478250Y-83885606D01*
X161492299Y-83884410D01*
X161496000Y-83874065D01*
X161496000Y-83873517D01*
X162004000Y-83873517D01*
X162008064Y-83887359D01*
X162021478Y-83889393D01*
X162028184Y-83888534D01*
X162038262Y-83886392D01*
X162242255Y-83825191D01*
X162251842Y-83821433D01*
X162443095Y-83727739D01*
X162451945Y-83722464D01*
X162625328Y-83598792D01*
X162633200Y-83592139D01*
X162784052Y-83441812D01*
X162790730Y-83433965D01*
X162915003Y-83261020D01*
X162920313Y-83252183D01*
X163014670Y-83061267D01*
X163018469Y-83051672D01*
X163080377Y-82847910D01*
X163082555Y-82837837D01*
X163083986Y-82826962D01*
X163081775Y-82812778D01*
X163068617Y-82809000D01*
X162022115Y-82809000D01*
X162006876Y-82813475D01*
X162005671Y-82814865D01*
X162004000Y-82822548D01*
X162004000Y-83873517D01*
X161496000Y-83873517D01*
X161496000Y-82827115D01*
X161491525Y-82811876D01*
X161490135Y-82810671D01*
X161482452Y-82809000D01*
X160433225Y-82809000D01*
X160419694Y-82812973D01*
X160418257Y-82822966D01*
X151683500Y-82822966D01*
X151683500Y-79542413D01*
X151703502Y-79474292D01*
X151720404Y-79453318D01*
X152478316Y-78695405D01*
X152540629Y-78661380D01*
X152567412Y-78658500D01*
X160456587Y-78658500D01*
X160524708Y-78678502D01*
X160536620Y-78688102D01*
X160536739Y-78688261D01*
X160537852Y-78689095D01*
X160537858Y-78689100D01*
X160582468Y-78722533D01*
X160653295Y-78775615D01*
X160661704Y-78778767D01*
X160661705Y-78778768D01*
X160770451Y-78819535D01*
X160827216Y-78862176D01*
X160851916Y-78928738D01*
X160836709Y-78998087D01*
X160817316Y-79024568D01*
X160746263Y-79098921D01*
X160690629Y-79157138D01*
X160687715Y-79161410D01*
X160687714Y-79161411D01*
X160634689Y-79239143D01*
X160564743Y-79341680D01*
X160470688Y-79544305D01*
X160410989Y-79759570D01*
X160387251Y-79981695D01*
X160387548Y-79986848D01*
X160387548Y-79986851D01*
X160393011Y-80081590D01*
X160400110Y-80204715D01*
X160401247Y-80209761D01*
X160401248Y-80209767D01*
X160421119Y-80297939D01*
X160449222Y-80422639D01*
X160533266Y-80629616D01*
X160535965Y-80634020D01*
X160637371Y-80799500D01*
X160649987Y-80820088D01*
X160796250Y-80988938D01*
X160968126Y-81131632D01*
X161041955Y-81174774D01*
X161090679Y-81226412D01*
X161103750Y-81296195D01*
X161077019Y-81361967D01*
X161036562Y-81395327D01*
X161028457Y-81399546D01*
X161019738Y-81405036D01*
X160849433Y-81532905D01*
X160841726Y-81539748D01*
X160694590Y-81693717D01*
X160688104Y-81701727D01*
X160568098Y-81877649D01*
X160563000Y-81886623D01*
X160473338Y-82079783D01*
X160469775Y-82089470D01*
X160414389Y-82289183D01*
X160415912Y-82297607D01*
X160428292Y-82301000D01*
X163068344Y-82301000D01*
X163081875Y-82297027D01*
X163083180Y-82287947D01*
X163041214Y-82120875D01*
X163037894Y-82111124D01*
X162952972Y-81915814D01*
X162948105Y-81906739D01*
X162832426Y-81727926D01*
X162826136Y-81719757D01*
X162682806Y-81562240D01*
X162675273Y-81555215D01*
X162508139Y-81423222D01*
X162499556Y-81417520D01*
X162462602Y-81397120D01*
X162412631Y-81346687D01*
X162397859Y-81277245D01*
X162422975Y-81210839D01*
X162450327Y-81184232D01*
X162498504Y-81149868D01*
X162629860Y-81056173D01*
X162644586Y-81041499D01*
X162736680Y-80949726D01*
X162788096Y-80898489D01*
X162803423Y-80877160D01*
X162915435Y-80721277D01*
X162918453Y-80717077D01*
X162925102Y-80703625D01*
X163015136Y-80521453D01*
X163015137Y-80521451D01*
X163017430Y-80516811D01*
X163082370Y-80303069D01*
X163111529Y-80081590D01*
X163113156Y-80015000D01*
X163094852Y-79792361D01*
X163040431Y-79575702D01*
X162951354Y-79370840D01*
X162877486Y-79256658D01*
X162832822Y-79187617D01*
X162832820Y-79187614D01*
X162830014Y-79183277D01*
X162818139Y-79170226D01*
X162682798Y-79021488D01*
X162651746Y-78957642D01*
X162660141Y-78887143D01*
X162705317Y-78832375D01*
X162731761Y-78818706D01*
X162838297Y-78778767D01*
X162846705Y-78775615D01*
X162963261Y-78688261D01*
X163050615Y-78571705D01*
X163101745Y-78435316D01*
X163108500Y-78373134D01*
X163108500Y-76576866D01*
X163101745Y-76514684D01*
X163050615Y-76378295D01*
X162963261Y-76261739D01*
X162846705Y-76174385D01*
X162710316Y-76123255D01*
X162648134Y-76116500D01*
X160851866Y-76116500D01*
X160789684Y-76123255D01*
X160653295Y-76174385D01*
X160536739Y-76261739D01*
X160535537Y-76260135D01*
X160483370Y-76288621D01*
X160456587Y-76291500D01*
X152069153Y-76291500D01*
X152060912Y-76291230D01*
X152021106Y-76288621D01*
X151993888Y-76286837D01*
X151902846Y-76297613D01*
X151899578Y-76297955D01*
X151882958Y-76299482D01*
X151814153Y-76305804D01*
X151814149Y-76305805D01*
X151808400Y-76306333D01*
X151802843Y-76307900D01*
X151802245Y-76308011D01*
X151784153Y-76311610D01*
X151783623Y-76311723D01*
X151777883Y-76312402D01*
X151772366Y-76314115D01*
X151772362Y-76314116D01*
X151690409Y-76339564D01*
X151687245Y-76340501D01*
X151604620Y-76363803D01*
X151604605Y-76363809D01*
X151599055Y-76365374D01*
X151593873Y-76367930D01*
X151593455Y-76368090D01*
X151576179Y-76374982D01*
X151575676Y-76375190D01*
X151570154Y-76376905D01*
X151565040Y-76379595D01*
X151565039Y-76379596D01*
X151489096Y-76419552D01*
X151486165Y-76421045D01*
X151403974Y-76461577D01*
X151399344Y-76465034D01*
X151398907Y-76465302D01*
X151383261Y-76475173D01*
X151382770Y-76475492D01*
X151377659Y-76478181D01*
X151305714Y-76534897D01*
X151303122Y-76536886D01*
X151234315Y-76588267D01*
X151229691Y-76591720D01*
X151225777Y-76595954D01*
X151225775Y-76595956D01*
X151171853Y-76654289D01*
X151168423Y-76657855D01*
X149694361Y-78131917D01*
X149688343Y-78137554D01*
X149637842Y-78181842D01*
X149581076Y-78253849D01*
X149579069Y-78256326D01*
X149520468Y-78326787D01*
X149517642Y-78331834D01*
X149517300Y-78332331D01*
X149507055Y-78347663D01*
X149506757Y-78348123D01*
X149503181Y-78352658D01*
X149463827Y-78427460D01*
X149460521Y-78433743D01*
X149458969Y-78436602D01*
X149414187Y-78516565D01*
X149412331Y-78522032D01*
X149412137Y-78522468D01*
X149404820Y-78539496D01*
X149404592Y-78540048D01*
X149401905Y-78545154D01*
X149400193Y-78550666D01*
X149400193Y-78550667D01*
X149374743Y-78632627D01*
X149373730Y-78635746D01*
X149344270Y-78722533D01*
X149343441Y-78728248D01*
X149343312Y-78728786D01*
X149339227Y-78746841D01*
X149339115Y-78747369D01*
X149337403Y-78752882D01*
X149328386Y-78829068D01*
X149326635Y-78843860D01*
X149326208Y-78847101D01*
X149313058Y-78937795D01*
X144270560Y-78937795D01*
X144101572Y-78870376D01*
X143888239Y-78827941D01*
X143882464Y-78827865D01*
X143882460Y-78827865D01*
X143773419Y-78826438D01*
X143670746Y-78825094D01*
X143665049Y-78826073D01*
X143665048Y-78826073D01*
X143462065Y-78860952D01*
X143462062Y-78860953D01*
X143456375Y-78861930D01*
X143252307Y-78937214D01*
X143065376Y-79048427D01*
X142901842Y-79191842D01*
X142898270Y-79196373D01*
X142780018Y-79346375D01*
X142767181Y-79362658D01*
X142665905Y-79555154D01*
X142601403Y-79762882D01*
X142580500Y-79939490D01*
X142580500Y-80799500D01*
X142560498Y-80867621D01*
X142506842Y-80914114D01*
X142454500Y-80925500D01*
X141526136Y-80925500D01*
X141509693Y-80924422D01*
X141478000Y-80920250D01*
X141469811Y-80921328D01*
X141438126Y-80925499D01*
X141438117Y-80925500D01*
X141438115Y-80925500D01*
X141438109Y-80925501D01*
X141438107Y-80925501D01*
X141338543Y-80938609D01*
X141327336Y-80940084D01*
X141327334Y-80940085D01*
X141319149Y-80941162D01*
X141171124Y-81002476D01*
X141125305Y-81037634D01*
X141075937Y-81075515D01*
X141075921Y-81075529D01*
X141050566Y-81094984D01*
X141050563Y-81094987D01*
X141044013Y-81100013D01*
X141038983Y-81106568D01*
X141024548Y-81125379D01*
X141013681Y-81137770D01*
X140319766Y-81831685D01*
X140307375Y-81842552D01*
X140282013Y-81862013D01*
X140257526Y-81893925D01*
X140257523Y-81893928D01*
X140248548Y-81905624D01*
X140193421Y-81977467D01*
X140184476Y-81989124D01*
X140139751Y-82097100D01*
X140123162Y-82137150D01*
X140122084Y-82145338D01*
X140117599Y-82179405D01*
X140107500Y-82256115D01*
X140107500Y-82256120D01*
X140102250Y-82296000D01*
X140106024Y-82324663D01*
X140106422Y-82327690D01*
X140107500Y-82344136D01*
X140107500Y-82543899D01*
X140087498Y-82612020D01*
X140033842Y-82658513D01*
X139963568Y-82668617D01*
X139923140Y-82653969D01*
X139922787Y-82654726D01*
X139916151Y-82651632D01*
X139909920Y-82647791D01*
X139744809Y-82593026D01*
X139737973Y-82592326D01*
X139737970Y-82592325D01*
X139686474Y-82587049D01*
X139642072Y-82582500D01*
X139042928Y-82582500D01*
X139039682Y-82582837D01*
X139039678Y-82582837D01*
X138945765Y-82592581D01*
X138945761Y-82592582D01*
X138938907Y-82593293D01*
X138932371Y-82595474D01*
X138932369Y-82595474D01*
X138826979Y-82630635D01*
X138773893Y-82648346D01*
X138625969Y-82739884D01*
X138620797Y-82745065D01*
X138620792Y-82745069D01*
X138586502Y-82779420D01*
X138524220Y-82813501D01*
X138453400Y-82808499D01*
X138403880Y-82774842D01*
X138400780Y-82770691D01*
X138290357Y-82668617D01*
X138245296Y-82626963D01*
X138245293Y-82626961D01*
X138241056Y-82623044D01*
X138057099Y-82506976D01*
X137855072Y-82426376D01*
X137641739Y-82383941D01*
X137635964Y-82383865D01*
X137635960Y-82383865D01*
X137523481Y-82382393D01*
X137424246Y-82381094D01*
X137418549Y-82382073D01*
X137418548Y-82382073D01*
X137215565Y-82416952D01*
X137215562Y-82416953D01*
X137209875Y-82417930D01*
X137005807Y-82493214D01*
X136879964Y-82568083D01*
X136833925Y-82595474D01*
X136818876Y-82604427D01*
X136655342Y-82747842D01*
X136651770Y-82752373D01*
X136524869Y-82913345D01*
X136466987Y-82954458D01*
X136396067Y-82957752D01*
X136336901Y-82924512D01*
X136247871Y-82835637D01*
X136236460Y-82826625D01*
X136100937Y-82743088D01*
X136087759Y-82736944D01*
X135936234Y-82686685D01*
X135922868Y-82683819D01*
X135830230Y-82674328D01*
X135823815Y-82674000D01*
X135812115Y-82674000D01*
X135796876Y-82678475D01*
X135795671Y-82679865D01*
X135794000Y-82687548D01*
X135794000Y-83847500D01*
X135773998Y-83915621D01*
X135720342Y-83962114D01*
X135668000Y-83973500D01*
X134575115Y-83973500D01*
X134559876Y-83977975D01*
X134558671Y-83979365D01*
X134557000Y-83987048D01*
X134557000Y-84065766D01*
X134557337Y-84072279D01*
X134562496Y-84121995D01*
X134549632Y-84191816D01*
X134501062Y-84243599D01*
X134437169Y-84261000D01*
X132928901Y-84261000D01*
X132860780Y-84240998D01*
X132814287Y-84187342D01*
X132803557Y-84122158D01*
X132808672Y-84072232D01*
X132809000Y-84065815D01*
X132809000Y-83991615D01*
X132804525Y-83976376D01*
X132803135Y-83975171D01*
X132795452Y-83973500D01*
X131698000Y-83973500D01*
X131629879Y-83953498D01*
X131583386Y-83899842D01*
X131572000Y-83847500D01*
X131572000Y-83447385D01*
X132080000Y-83447385D01*
X132084475Y-83462624D01*
X132085865Y-83463829D01*
X132093548Y-83465500D01*
X132790885Y-83465500D01*
X132806124Y-83461025D01*
X132807329Y-83459635D01*
X132809000Y-83451952D01*
X132809000Y-83447385D01*
X134557000Y-83447385D01*
X134561475Y-83462624D01*
X134562865Y-83463829D01*
X134570548Y-83465500D01*
X135267885Y-83465500D01*
X135283124Y-83461025D01*
X135284329Y-83459635D01*
X135286000Y-83451952D01*
X135286000Y-82692115D01*
X135281525Y-82676876D01*
X135280135Y-82675671D01*
X135272452Y-82674000D01*
X135256234Y-82674000D01*
X135249718Y-82674337D01*
X135155868Y-82684075D01*
X135142472Y-82686968D01*
X134991047Y-82737488D01*
X134977885Y-82743653D01*
X134842508Y-82827426D01*
X134831110Y-82836460D01*
X134718637Y-82949129D01*
X134709625Y-82960540D01*
X134626088Y-83096063D01*
X134619944Y-83109241D01*
X134569685Y-83260766D01*
X134566819Y-83274132D01*
X134557328Y-83366770D01*
X134557000Y-83373185D01*
X134557000Y-83447385D01*
X132809000Y-83447385D01*
X132809000Y-83373234D01*
X132808663Y-83366718D01*
X132798925Y-83272868D01*
X132796032Y-83259472D01*
X132745512Y-83108047D01*
X132739347Y-83094885D01*
X132655574Y-82959508D01*
X132646540Y-82948110D01*
X132533871Y-82835637D01*
X132522460Y-82826625D01*
X132386937Y-82743088D01*
X132373759Y-82736944D01*
X132222234Y-82686685D01*
X132208868Y-82683819D01*
X132116230Y-82674328D01*
X132109815Y-82674000D01*
X132098115Y-82674000D01*
X132082876Y-82678475D01*
X132081671Y-82679865D01*
X132080000Y-82687548D01*
X132080000Y-83447385D01*
X131572000Y-83447385D01*
X131572000Y-82692115D01*
X131567525Y-82676876D01*
X131566135Y-82675671D01*
X131558452Y-82674000D01*
X131542234Y-82674000D01*
X131535718Y-82674337D01*
X131441868Y-82684075D01*
X131428472Y-82686968D01*
X131277047Y-82737488D01*
X131263885Y-82743653D01*
X131128508Y-82827426D01*
X131117110Y-82836460D01*
X131004637Y-82949129D01*
X130995625Y-82960540D01*
X130912088Y-83096063D01*
X130905944Y-83109240D01*
X130881592Y-83182659D01*
X130841162Y-83241019D01*
X130775597Y-83268256D01*
X130705716Y-83255723D01*
X130653704Y-83207398D01*
X130642476Y-83182869D01*
X130617515Y-83108052D01*
X130611347Y-83094885D01*
X130527574Y-82959508D01*
X130518540Y-82948110D01*
X130405871Y-82835637D01*
X130394460Y-82826625D01*
X130258937Y-82743088D01*
X130245759Y-82736944D01*
X130094234Y-82686685D01*
X130080868Y-82683819D01*
X129988230Y-82674328D01*
X129981815Y-82674000D01*
X129970115Y-82674000D01*
X129954876Y-82678475D01*
X129953671Y-82679865D01*
X129952000Y-82687548D01*
X129952000Y-83847500D01*
X129931998Y-83915621D01*
X129878342Y-83962114D01*
X129826000Y-83973500D01*
X126797115Y-83973500D01*
X126781876Y-83977975D01*
X126780671Y-83979365D01*
X126779000Y-83987048D01*
X126779000Y-84065766D01*
X126779337Y-84072282D01*
X126789075Y-84166132D01*
X126791968Y-84179528D01*
X126842488Y-84330953D01*
X126848653Y-84344115D01*
X126926043Y-84469177D01*
X126944880Y-84537629D01*
X126923718Y-84605398D01*
X126911435Y-84620995D01*
X126908865Y-84623776D01*
X126905423Y-84627356D01*
X126257182Y-85275596D01*
X126194870Y-85309621D01*
X126168087Y-85312500D01*
X125698824Y-85312500D01*
X125537400Y-85327333D01*
X125531838Y-85328902D01*
X125531836Y-85328902D01*
X125453653Y-85350952D01*
X125328055Y-85386374D01*
X125132974Y-85482577D01*
X125128348Y-85486031D01*
X125128347Y-85486032D01*
X125053079Y-85542237D01*
X124958691Y-85612720D01*
X124954777Y-85616954D01*
X124954775Y-85616956D01*
X124869400Y-85709315D01*
X124811044Y-85772444D01*
X124694976Y-85956401D01*
X124692836Y-85961765D01*
X124616615Y-86152815D01*
X124572794Y-86208674D01*
X124505730Y-86231975D01*
X124436715Y-86215319D01*
X124387661Y-86163995D01*
X124378319Y-86140337D01*
X124359626Y-86074055D01*
X124263423Y-85878974D01*
X124183874Y-85772444D01*
X124136733Y-85709315D01*
X124136732Y-85709314D01*
X124133280Y-85704691D01*
X124129044Y-85700775D01*
X123977796Y-85560963D01*
X123977793Y-85560961D01*
X123973556Y-85557044D01*
X123789599Y-85440976D01*
X123587572Y-85360376D01*
X123374239Y-85317941D01*
X123368464Y-85317865D01*
X123368460Y-85317865D01*
X123259419Y-85316438D01*
X123156746Y-85315094D01*
X123151049Y-85316073D01*
X123151048Y-85316073D01*
X122948065Y-85350952D01*
X122948062Y-85350953D01*
X122942375Y-85351930D01*
X122738307Y-85427214D01*
X122551376Y-85538427D01*
X122387842Y-85681842D01*
X122253181Y-85852658D01*
X122250493Y-85857767D01*
X122225930Y-85904455D01*
X122151905Y-86045154D01*
X122150192Y-86050671D01*
X122099067Y-86215319D01*
X122087403Y-86252882D01*
X122086724Y-86258619D01*
X122072518Y-86378648D01*
X122066500Y-86429490D01*
X122066500Y-87928202D01*
X122046498Y-87996323D01*
X121992842Y-88042816D01*
X121922568Y-88052920D01*
X121900832Y-88047795D01*
X121846231Y-88029684D01*
X121832868Y-88026819D01*
X121740230Y-88017328D01*
X121733815Y-88017000D01*
X121659615Y-88017000D01*
X121644376Y-88021475D01*
X121643171Y-88022865D01*
X121641500Y-88030548D01*
X121641500Y-89964885D01*
X121645975Y-89980124D01*
X121647365Y-89981329D01*
X121655048Y-89983000D01*
X121733766Y-89983000D01*
X121740282Y-89982663D01*
X121834132Y-89972925D01*
X121847528Y-89970032D01*
X121998953Y-89919512D01*
X122012111Y-89913349D01*
X122133473Y-89838248D01*
X122201925Y-89819411D01*
X122269695Y-89840573D01*
X122286509Y-89853996D01*
X122290533Y-89857815D01*
X122294342Y-89862158D01*
X122312346Y-89876351D01*
X122324586Y-89887373D01*
X122340585Y-89903796D01*
X122345298Y-89907127D01*
X122345304Y-89907132D01*
X122401408Y-89946782D01*
X122406666Y-89950708D01*
X122440717Y-89977552D01*
X122481829Y-90035432D01*
X122485123Y-90106352D01*
X122449551Y-90167794D01*
X122386408Y-90200251D01*
X122362710Y-90202500D01*
X122287928Y-90202500D01*
X122284682Y-90202837D01*
X122284678Y-90202837D01*
X122190765Y-90212581D01*
X122190761Y-90212582D01*
X122183907Y-90213293D01*
X122177371Y-90215474D01*
X122177369Y-90215474D01*
X122052047Y-90257285D01*
X122018893Y-90268346D01*
X122010332Y-90273644D01*
X122008428Y-90274185D01*
X122006042Y-90275303D01*
X122005860Y-90274916D01*
X121944029Y-90292500D01*
X113762475Y-90292500D01*
X113694354Y-90272498D01*
X113647861Y-90218842D01*
X113637757Y-90148568D01*
X113667251Y-90083988D01*
X113684469Y-90067550D01*
X113784082Y-89989022D01*
X113784085Y-89989019D01*
X113787003Y-89986719D01*
X114489956Y-89283766D01*
X120342000Y-89283766D01*
X120342337Y-89290282D01*
X120352075Y-89384132D01*
X120354968Y-89397528D01*
X120405488Y-89548953D01*
X120411653Y-89562115D01*
X120495426Y-89697492D01*
X120504460Y-89708890D01*
X120617129Y-89821363D01*
X120628540Y-89830375D01*
X120764063Y-89913912D01*
X120777241Y-89920056D01*
X120928766Y-89970315D01*
X120942132Y-89973181D01*
X121034770Y-89982672D01*
X121041185Y-89983000D01*
X121115385Y-89983000D01*
X121130624Y-89978525D01*
X121131829Y-89977135D01*
X121133500Y-89969452D01*
X121133500Y-89272115D01*
X121129025Y-89256876D01*
X121127635Y-89255671D01*
X121119952Y-89254000D01*
X120360115Y-89254000D01*
X120344876Y-89258475D01*
X120343671Y-89259865D01*
X120342000Y-89267548D01*
X120342000Y-89283766D01*
X114489956Y-89283766D01*
X114805639Y-88968083D01*
X114811657Y-88962446D01*
X114857819Y-88921963D01*
X114862158Y-88918158D01*
X114865728Y-88913629D01*
X114865736Y-88913621D01*
X114918890Y-88846196D01*
X114920944Y-88843658D01*
X114979532Y-88773213D01*
X114982358Y-88768167D01*
X114982700Y-88767669D01*
X114992945Y-88752337D01*
X114993243Y-88751877D01*
X114996819Y-88747342D01*
X115007056Y-88727885D01*
X120342000Y-88727885D01*
X120346475Y-88743124D01*
X120347865Y-88744329D01*
X120355548Y-88746000D01*
X121115385Y-88746000D01*
X121130624Y-88741525D01*
X121131829Y-88740135D01*
X121133500Y-88732452D01*
X121133500Y-88035115D01*
X121129025Y-88019876D01*
X121127635Y-88018671D01*
X121119952Y-88017000D01*
X121041234Y-88017000D01*
X121034718Y-88017337D01*
X120940868Y-88027075D01*
X120927472Y-88029968D01*
X120776047Y-88080488D01*
X120762885Y-88086653D01*
X120627508Y-88170426D01*
X120616110Y-88179460D01*
X120503637Y-88292129D01*
X120494625Y-88303540D01*
X120411088Y-88439063D01*
X120404944Y-88452241D01*
X120354685Y-88603766D01*
X120351819Y-88617132D01*
X120342328Y-88709770D01*
X120342000Y-88716185D01*
X120342000Y-88727885D01*
X115007056Y-88727885D01*
X115039485Y-88666246D01*
X115041031Y-88663398D01*
X115085813Y-88583435D01*
X115087669Y-88577968D01*
X115087863Y-88577532D01*
X115095180Y-88560504D01*
X115095408Y-88559952D01*
X115098095Y-88554846D01*
X115100672Y-88546548D01*
X115125259Y-88467366D01*
X115126277Y-88464232D01*
X115155730Y-88377466D01*
X115156559Y-88371747D01*
X115156681Y-88371239D01*
X115160775Y-88353145D01*
X115160883Y-88352638D01*
X115162597Y-88347118D01*
X115165280Y-88324454D01*
X115172678Y-88261946D01*
X115173372Y-88256082D01*
X115173791Y-88252906D01*
X115186942Y-88162205D01*
X115183597Y-88077073D01*
X115183500Y-88072127D01*
X115183500Y-84598224D01*
X115168667Y-84436800D01*
X115153834Y-84384204D01*
X115138815Y-84330953D01*
X115109626Y-84227455D01*
X115033352Y-84072786D01*
X115015978Y-84037555D01*
X115013423Y-84032374D01*
X114973840Y-83979365D01*
X114886733Y-83862715D01*
X114886732Y-83862714D01*
X114883280Y-83858091D01*
X114858562Y-83835242D01*
X114727796Y-83714363D01*
X114727793Y-83714361D01*
X114723556Y-83710444D01*
X114539599Y-83594376D01*
X114337572Y-83513776D01*
X114124239Y-83471341D01*
X114118464Y-83471265D01*
X114118460Y-83471265D01*
X114009419Y-83469838D01*
X113906746Y-83468494D01*
X113901049Y-83469473D01*
X113901048Y-83469473D01*
X113698065Y-83504352D01*
X113698062Y-83504353D01*
X113692375Y-83505330D01*
X113488307Y-83580614D01*
X113376148Y-83647342D01*
X113341567Y-83667916D01*
X113301376Y-83691827D01*
X113137842Y-83835242D01*
X113134270Y-83839773D01*
X113012121Y-83994718D01*
X113003181Y-84006058D01*
X113000493Y-84011167D01*
X112974634Y-84060317D01*
X112901905Y-84198554D01*
X112900192Y-84204071D01*
X112840835Y-84395230D01*
X112837403Y-84406282D01*
X112836724Y-84412019D01*
X112818722Y-84564118D01*
X112816500Y-84582890D01*
X112816500Y-87557588D01*
X112796498Y-87625709D01*
X112779595Y-87646684D01*
X112124124Y-88302154D01*
X112122279Y-88304372D01*
X112122272Y-88304380D01*
X112071120Y-88365884D01*
X112020468Y-88426787D01*
X111937840Y-88574329D01*
X111919473Y-88607127D01*
X111914187Y-88616565D01*
X111904993Y-88643649D01*
X111870250Y-88746000D01*
X111844270Y-88822533D01*
X111843441Y-88828251D01*
X111843440Y-88828255D01*
X111838749Y-88860610D01*
X111813058Y-89037795D01*
X111817669Y-89155139D01*
X111820423Y-89225223D01*
X111821598Y-89255139D01*
X111828645Y-89286280D01*
X111824171Y-89357133D01*
X111794847Y-89403183D01*
X111473095Y-89724935D01*
X111410783Y-89758961D01*
X111339968Y-89753896D01*
X111283132Y-89711349D01*
X111258321Y-89644829D01*
X111258000Y-89635840D01*
X111258000Y-89572115D01*
X111253525Y-89556876D01*
X111252135Y-89555671D01*
X111244452Y-89554000D01*
X108920366Y-89554000D01*
X108852245Y-89533998D01*
X108805752Y-89480342D01*
X108799470Y-89463499D01*
X108797525Y-89456876D01*
X108796135Y-89455671D01*
X108788452Y-89454000D01*
X108475246Y-89454000D01*
X108407125Y-89433998D01*
X108360632Y-89380342D01*
X108350472Y-89310465D01*
X108358407Y-89254000D01*
X108363001Y-89221313D01*
X108363299Y-89200000D01*
X108350517Y-89086044D01*
X108362801Y-89016119D01*
X108410940Y-88963935D01*
X108475732Y-88946000D01*
X108929634Y-88946000D01*
X108997755Y-88966002D01*
X109044248Y-89019658D01*
X109050530Y-89036501D01*
X109052475Y-89043124D01*
X109053865Y-89044329D01*
X109061548Y-89046000D01*
X109777885Y-89046000D01*
X109793124Y-89041525D01*
X109794329Y-89040135D01*
X109796000Y-89032452D01*
X109796000Y-89027885D01*
X110304000Y-89027885D01*
X110308475Y-89043124D01*
X110309865Y-89044329D01*
X110317548Y-89046000D01*
X111239884Y-89046000D01*
X111255123Y-89041525D01*
X111256328Y-89040135D01*
X111257999Y-89032452D01*
X111257999Y-88455331D01*
X111257629Y-88448510D01*
X111252105Y-88397648D01*
X111248479Y-88382396D01*
X111203324Y-88261946D01*
X111194786Y-88246351D01*
X111118285Y-88144276D01*
X111105724Y-88131715D01*
X111003649Y-88055214D01*
X110988054Y-88046676D01*
X110867606Y-88001522D01*
X110852351Y-87997895D01*
X110801486Y-87992369D01*
X110794672Y-87992000D01*
X110322115Y-87992000D01*
X110306876Y-87996475D01*
X110305671Y-87997865D01*
X110304000Y-88005548D01*
X110304000Y-89027885D01*
X109796000Y-89027885D01*
X109796000Y-88010116D01*
X109791525Y-87994877D01*
X109790135Y-87993672D01*
X109782452Y-87992001D01*
X109305331Y-87992001D01*
X109298510Y-87992371D01*
X109247648Y-87997895D01*
X109232396Y-88001521D01*
X109111946Y-88046676D01*
X109096351Y-88055214D01*
X108994276Y-88131715D01*
X108981715Y-88144276D01*
X108905214Y-88246351D01*
X108896676Y-88261946D01*
X108848748Y-88389793D01*
X108847272Y-88389240D01*
X108816547Y-88443025D01*
X108753593Y-88475846D01*
X108682888Y-88469422D01*
X108656910Y-88455447D01*
X108525013Y-88363092D01*
X108513919Y-88356892D01*
X108347020Y-88284668D01*
X108334917Y-88280829D01*
X108155400Y-88243325D01*
X108145848Y-88242085D01*
X108142616Y-88242000D01*
X107872115Y-88242000D01*
X107856876Y-88246475D01*
X107855671Y-88247865D01*
X107854000Y-88255548D01*
X107854000Y-88324454D01*
X107833998Y-88392575D01*
X107780342Y-88439068D01*
X107713082Y-88449568D01*
X107640834Y-88440954D01*
X107605329Y-88436720D01*
X107598326Y-88437456D01*
X107598325Y-88437456D01*
X107527286Y-88444922D01*
X107485170Y-88449349D01*
X107415332Y-88436577D01*
X107363485Y-88388075D01*
X107346000Y-88324039D01*
X107346000Y-88260115D01*
X107341525Y-88244876D01*
X107340135Y-88243671D01*
X107332452Y-88242000D01*
X107104553Y-88242000D01*
X107098178Y-88242323D01*
X106962723Y-88256082D01*
X106950283Y-88258636D01*
X106776756Y-88313016D01*
X106759207Y-88320537D01*
X106758085Y-88317919D01*
X106700892Y-88330781D01*
X106634199Y-88306436D01*
X106591256Y-88249900D01*
X106583000Y-88205042D01*
X106583000Y-79309000D01*
X106603002Y-79240879D01*
X106656658Y-79194386D01*
X106709000Y-79183000D01*
X109962506Y-79183000D01*
X109975796Y-79183703D01*
X110014840Y-79187844D01*
X110023006Y-79186558D01*
X110025620Y-79186492D01*
X110028520Y-79186163D01*
X110396675Y-79160368D01*
X110774612Y-79099615D01*
X110777341Y-79098922D01*
X110777344Y-79098921D01*
X110875398Y-79074007D01*
X111145613Y-79005351D01*
X111281242Y-78957642D01*
X111504070Y-78879260D01*
X111504083Y-78879255D01*
X111506712Y-78878330D01*
X111509256Y-78877171D01*
X111509267Y-78877166D01*
X111743873Y-78770229D01*
X111855024Y-78719565D01*
X111857460Y-78718180D01*
X111857467Y-78718176D01*
X112007888Y-78632627D01*
X112187764Y-78530327D01*
X112200719Y-78521339D01*
X112499963Y-78313732D01*
X112499973Y-78313724D01*
X112502274Y-78312128D01*
X112509629Y-78305984D01*
X112710439Y-78138223D01*
X112775541Y-78109899D01*
X112845621Y-78121269D01*
X112898430Y-78168721D01*
X112917201Y-78237192D01*
X112905181Y-78284032D01*
X112906805Y-78284705D01*
X112904593Y-78290044D01*
X112901905Y-78295154D01*
X112900193Y-78300666D01*
X112900193Y-78300667D01*
X112874743Y-78382627D01*
X112873730Y-78385746D01*
X112844270Y-78472533D01*
X112843441Y-78478248D01*
X112843312Y-78478786D01*
X112839227Y-78496841D01*
X112839115Y-78497369D01*
X112837403Y-78502882D01*
X112827305Y-78588202D01*
X112826635Y-78593860D01*
X112826208Y-78597101D01*
X112813058Y-78687795D01*
X112815841Y-78758611D01*
X112816403Y-78772925D01*
X112816500Y-78777872D01*
X112816500Y-80901776D01*
X112831333Y-81063200D01*
X112832902Y-81068762D01*
X112832902Y-81068764D01*
X112835832Y-81079154D01*
X112890374Y-81272545D01*
X112986577Y-81467626D01*
X112990031Y-81472252D01*
X112990032Y-81472253D01*
X113027577Y-81522532D01*
X113116720Y-81641909D01*
X113120954Y-81645823D01*
X113120956Y-81645825D01*
X113261017Y-81775295D01*
X113276444Y-81789556D01*
X113460401Y-81905624D01*
X113662428Y-81986224D01*
X113875761Y-82028659D01*
X113881536Y-82028735D01*
X113881540Y-82028735D01*
X113990581Y-82030162D01*
X114093254Y-82031506D01*
X114098951Y-82030527D01*
X114098952Y-82030527D01*
X114301935Y-81995648D01*
X114301938Y-81995647D01*
X114307625Y-81994670D01*
X114511693Y-81919386D01*
X114671635Y-81824230D01*
X114693659Y-81811127D01*
X114693660Y-81811126D01*
X114698624Y-81808173D01*
X114862158Y-81664758D01*
X114905310Y-81610020D01*
X114993245Y-81498476D01*
X114993247Y-81498474D01*
X114996819Y-81493942D01*
X115098095Y-81301446D01*
X115145162Y-81149868D01*
X115160883Y-81099239D01*
X115160884Y-81099236D01*
X115162597Y-81093718D01*
X115173396Y-81002476D01*
X115183064Y-80920797D01*
X115183064Y-80920790D01*
X115183500Y-80917110D01*
X115183500Y-79292412D01*
X115203502Y-79224291D01*
X115220405Y-79203317D01*
X115453317Y-78970405D01*
X115515629Y-78936379D01*
X115542412Y-78933500D01*
X116828000Y-78933500D01*
X116896121Y-78953502D01*
X116942614Y-79007158D01*
X116954000Y-79059500D01*
X116954000Y-81250096D01*
X116937935Y-81311661D01*
X116914187Y-81354065D01*
X116900180Y-81395327D01*
X116855058Y-81528254D01*
X116844270Y-81560033D01*
X116843441Y-81565751D01*
X116843440Y-81565755D01*
X116834783Y-81625465D01*
X116813058Y-81775295D01*
X116821598Y-81992639D01*
X116822873Y-81998272D01*
X116822873Y-81998275D01*
X116856160Y-82145379D01*
X116869603Y-82204789D01*
X116871883Y-82210095D01*
X116871884Y-82210099D01*
X116953182Y-82399323D01*
X116955465Y-82404636D01*
X116958677Y-82409443D01*
X116958678Y-82409445D01*
X117064676Y-82568083D01*
X117076308Y-82585492D01*
X117080340Y-82589631D01*
X117215628Y-82728509D01*
X117248835Y-82791261D01*
X117242843Y-82862004D01*
X117214548Y-82905447D01*
X117195517Y-82924512D01*
X117173071Y-82946997D01*
X117169231Y-82953227D01*
X117169230Y-82953228D01*
X117094664Y-83074197D01*
X117081791Y-83095080D01*
X117027026Y-83260191D01*
X117026326Y-83267027D01*
X117026325Y-83267030D01*
X117021889Y-83310329D01*
X117016500Y-83362928D01*
X117016500Y-83962072D01*
X117016837Y-83965318D01*
X117016837Y-83965322D01*
X117026560Y-84059024D01*
X117027293Y-84066093D01*
X117029474Y-84072629D01*
X117029474Y-84072631D01*
X117066907Y-84184830D01*
X117082346Y-84231107D01*
X117173884Y-84379031D01*
X117179066Y-84384204D01*
X117291816Y-84496758D01*
X117291821Y-84496762D01*
X117296997Y-84501929D01*
X117303227Y-84505769D01*
X117303228Y-84505770D01*
X117428340Y-84582890D01*
X117445080Y-84593209D01*
X117610191Y-84647974D01*
X117617027Y-84648674D01*
X117617030Y-84648675D01*
X117668526Y-84653951D01*
X117712928Y-84658500D01*
X118287072Y-84658500D01*
X118290318Y-84658163D01*
X118290322Y-84658163D01*
X118384235Y-84648419D01*
X118384239Y-84648418D01*
X118391093Y-84647707D01*
X118397629Y-84645526D01*
X118397631Y-84645526D01*
X118539412Y-84598224D01*
X118556107Y-84592654D01*
X118613605Y-84557073D01*
X118697805Y-84504969D01*
X118697806Y-84504968D01*
X118704031Y-84501116D01*
X118759568Y-84445482D01*
X118821848Y-84411404D01*
X118848739Y-84408501D01*
X121853488Y-84408501D01*
X121897717Y-84416519D01*
X121984290Y-84448974D01*
X121984292Y-84448974D01*
X121991685Y-84451746D01*
X121999533Y-84452599D01*
X121999535Y-84452599D01*
X122050470Y-84458132D01*
X122053867Y-84458501D01*
X123150133Y-84458501D01*
X123212315Y-84451746D01*
X123348704Y-84400616D01*
X123465260Y-84313262D01*
X123552614Y-84196706D01*
X123603744Y-84060317D01*
X123610499Y-83998135D01*
X123610499Y-83401867D01*
X123610130Y-83398470D01*
X123604597Y-83347535D01*
X123604597Y-83347533D01*
X123603744Y-83339685D01*
X123600971Y-83332287D01*
X123577065Y-83268516D01*
X123571882Y-83197709D01*
X123577065Y-83180059D01*
X123600479Y-83117602D01*
X123604104Y-83102357D01*
X123609630Y-83051486D01*
X123609999Y-83044672D01*
X123609999Y-83018115D01*
X123605524Y-83002876D01*
X123604134Y-83001671D01*
X123596451Y-83000000D01*
X123373184Y-83000000D01*
X123328955Y-82991982D01*
X123219717Y-82951030D01*
X123219711Y-82951028D01*
X123212315Y-82948256D01*
X123150133Y-82941501D01*
X122053867Y-82941501D01*
X122050470Y-82941870D01*
X121999535Y-82947403D01*
X121999533Y-82947403D01*
X121991685Y-82948256D01*
X121984292Y-82951028D01*
X121984290Y-82951028D01*
X121897717Y-82983483D01*
X121853488Y-82991501D01*
X118922033Y-82991501D01*
X118853912Y-82971499D01*
X118826618Y-82946781D01*
X118826116Y-82945969D01*
X118820936Y-82940798D01*
X118784688Y-82904613D01*
X118750609Y-82842330D01*
X118755612Y-82771510D01*
X118787581Y-82724797D01*
X118787003Y-82724219D01*
X118943139Y-82568083D01*
X118949157Y-82562446D01*
X118964521Y-82548972D01*
X118999658Y-82518158D01*
X119010160Y-82504836D01*
X119056398Y-82446184D01*
X119058452Y-82443646D01*
X119117031Y-82373213D01*
X119119852Y-82368175D01*
X119120140Y-82367757D01*
X119130531Y-82352205D01*
X119130744Y-82351878D01*
X119134319Y-82347342D01*
X119177003Y-82266213D01*
X119178552Y-82263360D01*
X119223312Y-82183436D01*
X119225168Y-82177968D01*
X119225389Y-82177472D01*
X119232683Y-82160493D01*
X119232902Y-82159964D01*
X119235595Y-82154846D01*
X119237308Y-82149329D01*
X119237311Y-82149322D01*
X119262759Y-82067365D01*
X119263758Y-82064289D01*
X119289875Y-81987351D01*
X119291373Y-81982938D01*
X119291373Y-81982936D01*
X119293230Y-81977467D01*
X119294059Y-81971753D01*
X119294188Y-81971214D01*
X119298259Y-81953220D01*
X119298382Y-81952641D01*
X119300097Y-81947118D01*
X119310867Y-81856123D01*
X119311298Y-81852853D01*
X119318548Y-81802845D01*
X119324441Y-81762205D01*
X119321097Y-81677090D01*
X119321000Y-81672144D01*
X119321000Y-80877160D01*
X119341002Y-80809039D01*
X119394658Y-80762546D01*
X119464932Y-80752442D01*
X119529512Y-80781936D01*
X119536093Y-80788063D01*
X120287777Y-81539748D01*
X121028556Y-82280527D01*
X121034410Y-82286792D01*
X121046805Y-82301000D01*
X121072438Y-82330384D01*
X121124728Y-82367135D01*
X121129970Y-82371027D01*
X121180281Y-82410475D01*
X121187200Y-82413599D01*
X121189492Y-82414987D01*
X121204164Y-82423356D01*
X121206524Y-82424621D01*
X121212738Y-82428989D01*
X121219817Y-82431749D01*
X121219819Y-82431750D01*
X121272274Y-82452201D01*
X121278343Y-82454752D01*
X121336572Y-82481044D01*
X121344045Y-82482429D01*
X121346611Y-82483233D01*
X121362834Y-82487854D01*
X121365426Y-82488519D01*
X121372508Y-82491281D01*
X121380043Y-82492273D01*
X121435860Y-82499621D01*
X121442376Y-82500653D01*
X121464946Y-82504836D01*
X121505185Y-82512294D01*
X121512765Y-82511857D01*
X121512766Y-82511857D01*
X121567379Y-82508708D01*
X121574632Y-82508499D01*
X121853488Y-82508499D01*
X121897717Y-82516517D01*
X121984290Y-82548972D01*
X121984292Y-82548972D01*
X121991685Y-82551744D01*
X121999533Y-82552597D01*
X121999535Y-82552597D01*
X122050470Y-82558130D01*
X122053867Y-82558499D01*
X123150133Y-82558499D01*
X123212315Y-82551744D01*
X123219711Y-82548972D01*
X123219717Y-82548970D01*
X123328955Y-82508018D01*
X123373184Y-82500000D01*
X123591883Y-82500000D01*
X123607122Y-82495525D01*
X123608327Y-82494135D01*
X123609998Y-82486452D01*
X123609998Y-82455331D01*
X123609628Y-82448510D01*
X123604104Y-82397650D01*
X123600477Y-82382393D01*
X123577065Y-82319941D01*
X123571882Y-82249134D01*
X123577065Y-82231484D01*
X123600971Y-82167713D01*
X123600972Y-82167710D01*
X123603744Y-82160315D01*
X123606261Y-82137150D01*
X123610130Y-82101530D01*
X123610499Y-82098133D01*
X123610499Y-81501865D01*
X123603744Y-81439683D01*
X123552614Y-81303294D01*
X123465260Y-81186738D01*
X123348704Y-81099384D01*
X123212315Y-81048254D01*
X123150133Y-81041499D01*
X122053867Y-81041499D01*
X122050470Y-81041868D01*
X121999535Y-81047401D01*
X121999533Y-81047401D01*
X121991685Y-81048254D01*
X121984290Y-81051026D01*
X121984287Y-81051027D01*
X121928388Y-81071982D01*
X121857581Y-81077165D01*
X121795065Y-81043095D01*
X120133950Y-79381980D01*
X120128096Y-79375715D01*
X120120050Y-79366492D01*
X120090061Y-79332115D01*
X120037780Y-79295371D01*
X120032486Y-79291439D01*
X119988193Y-79256709D01*
X119982218Y-79252024D01*
X119975302Y-79248901D01*
X119973016Y-79247517D01*
X119958335Y-79239143D01*
X119955975Y-79237878D01*
X119949761Y-79233510D01*
X119942682Y-79230750D01*
X119942680Y-79230749D01*
X119900700Y-79214382D01*
X119890223Y-79210297D01*
X119884156Y-79207747D01*
X119825927Y-79181455D01*
X119818460Y-79180071D01*
X119815905Y-79179270D01*
X119799652Y-79174641D01*
X119797072Y-79173978D01*
X119789991Y-79171218D01*
X119782460Y-79170227D01*
X119782458Y-79170226D01*
X119752839Y-79166327D01*
X119726639Y-79162878D01*
X119720141Y-79161848D01*
X119657314Y-79150204D01*
X119649734Y-79150641D01*
X119649733Y-79150641D01*
X119595108Y-79153791D01*
X119587854Y-79154000D01*
X119447000Y-79154000D01*
X119378879Y-79133998D01*
X119332386Y-79080342D01*
X119321000Y-79028000D01*
X119321000Y-78852901D01*
X119341002Y-78784780D01*
X119394658Y-78738287D01*
X119459842Y-78727557D01*
X119509768Y-78732672D01*
X119516185Y-78733000D01*
X119590385Y-78733000D01*
X119605624Y-78728525D01*
X119606829Y-78727135D01*
X119608500Y-78719452D01*
X119608500Y-78714885D01*
X120116500Y-78714885D01*
X120120975Y-78730124D01*
X120122365Y-78731329D01*
X120130048Y-78733000D01*
X120208766Y-78733000D01*
X120215282Y-78732663D01*
X120309132Y-78722925D01*
X120322528Y-78720032D01*
X120473953Y-78669512D01*
X120487115Y-78663347D01*
X120622492Y-78579574D01*
X120633890Y-78570540D01*
X120746363Y-78457871D01*
X120755375Y-78446460D01*
X120838912Y-78310937D01*
X120845056Y-78297759D01*
X120895315Y-78146234D01*
X120898181Y-78132868D01*
X120907672Y-78040230D01*
X120908000Y-78033815D01*
X120908000Y-78033766D01*
X122044000Y-78033766D01*
X122044337Y-78040282D01*
X122054075Y-78134132D01*
X122056968Y-78147528D01*
X122107488Y-78298953D01*
X122113653Y-78312115D01*
X122197426Y-78447492D01*
X122206460Y-78458890D01*
X122319129Y-78571363D01*
X122330540Y-78580375D01*
X122466063Y-78663912D01*
X122479241Y-78670056D01*
X122630766Y-78720315D01*
X122644132Y-78723181D01*
X122736770Y-78732672D01*
X122743185Y-78733000D01*
X122817385Y-78733000D01*
X122832624Y-78728525D01*
X122833829Y-78727135D01*
X122835500Y-78719452D01*
X122835500Y-78714885D01*
X123343500Y-78714885D01*
X123347975Y-78730124D01*
X123349365Y-78731329D01*
X123357048Y-78733000D01*
X123435766Y-78733000D01*
X123442282Y-78732663D01*
X123536132Y-78722925D01*
X123549528Y-78720032D01*
X123700953Y-78669512D01*
X123714115Y-78663347D01*
X123839307Y-78585877D01*
X123907759Y-78567040D01*
X123975529Y-78588202D01*
X123994704Y-78603926D01*
X124533595Y-79142816D01*
X124567620Y-79205129D01*
X124570500Y-79231912D01*
X124570500Y-80805587D01*
X124550498Y-80873708D01*
X124533595Y-80894682D01*
X124426124Y-81002153D01*
X124322468Y-81126786D01*
X124291907Y-81181357D01*
X124223619Y-81303294D01*
X124216187Y-81316564D01*
X124214331Y-81322032D01*
X124152126Y-81505282D01*
X124146270Y-81522532D01*
X124145441Y-81528250D01*
X124145440Y-81528254D01*
X124134872Y-81601144D01*
X124115058Y-81737794D01*
X124119741Y-81856987D01*
X124121737Y-81907764D01*
X124123598Y-81955138D01*
X124124873Y-81960771D01*
X124124873Y-81960774D01*
X124155721Y-82097100D01*
X124171603Y-82167288D01*
X124173883Y-82172594D01*
X124173884Y-82172598D01*
X124254229Y-82359604D01*
X124257465Y-82367135D01*
X124260677Y-82371942D01*
X124260678Y-82371944D01*
X124360917Y-82521963D01*
X124378308Y-82547991D01*
X124382340Y-82552130D01*
X124506774Y-82679865D01*
X124530085Y-82703795D01*
X124534803Y-82707129D01*
X124534805Y-82707131D01*
X124617773Y-82765766D01*
X124661859Y-82821416D01*
X124668860Y-82892066D01*
X124636554Y-82955286D01*
X124589282Y-82986645D01*
X124563706Y-82996233D01*
X124563705Y-82996234D01*
X124555296Y-82999386D01*
X124438740Y-83086740D01*
X124351386Y-83203296D01*
X124300256Y-83339685D01*
X124293501Y-83401867D01*
X124293501Y-83998135D01*
X124300256Y-84060317D01*
X124351386Y-84196706D01*
X124438740Y-84313262D01*
X124555296Y-84400616D01*
X124691685Y-84451746D01*
X124753867Y-84458501D01*
X125850133Y-84458501D01*
X125912315Y-84451746D01*
X126048704Y-84400616D01*
X126165260Y-84313262D01*
X126252614Y-84196706D01*
X126303744Y-84060317D01*
X126310499Y-83998135D01*
X126310499Y-83447385D01*
X126779000Y-83447385D01*
X126783475Y-83462624D01*
X126784865Y-83463829D01*
X126792548Y-83465500D01*
X127489885Y-83465500D01*
X127505124Y-83461025D01*
X127506329Y-83459635D01*
X127508000Y-83451952D01*
X127508000Y-83447385D01*
X128016000Y-83447385D01*
X128020475Y-83462624D01*
X128021865Y-83463829D01*
X128029548Y-83465500D01*
X129425885Y-83465500D01*
X129441124Y-83461025D01*
X129442329Y-83459635D01*
X129444000Y-83451952D01*
X129444000Y-82692115D01*
X129439525Y-82676876D01*
X129438135Y-82675671D01*
X129430452Y-82674000D01*
X129414234Y-82674000D01*
X129407718Y-82674337D01*
X129313868Y-82684075D01*
X129300472Y-82686968D01*
X129149047Y-82737488D01*
X129135885Y-82743653D01*
X129000508Y-82827426D01*
X128989110Y-82836460D01*
X128876637Y-82949129D01*
X128867625Y-82960540D01*
X128837238Y-83009837D01*
X128784466Y-83057330D01*
X128714394Y-83068754D01*
X128649270Y-83040480D01*
X128622833Y-83010023D01*
X128591573Y-82959508D01*
X128582540Y-82948110D01*
X128469871Y-82835637D01*
X128458460Y-82826625D01*
X128322937Y-82743088D01*
X128309759Y-82736944D01*
X128158234Y-82686685D01*
X128144868Y-82683819D01*
X128052230Y-82674328D01*
X128045815Y-82674000D01*
X128034115Y-82674000D01*
X128018876Y-82678475D01*
X128017671Y-82679865D01*
X128016000Y-82687548D01*
X128016000Y-83447385D01*
X127508000Y-83447385D01*
X127508000Y-82692115D01*
X127503525Y-82676876D01*
X127502135Y-82675671D01*
X127494452Y-82674000D01*
X127478234Y-82674000D01*
X127471718Y-82674337D01*
X127377868Y-82684075D01*
X127364472Y-82686968D01*
X127213047Y-82737488D01*
X127199885Y-82743653D01*
X127064508Y-82827426D01*
X127053110Y-82836460D01*
X126940637Y-82949129D01*
X126931625Y-82960540D01*
X126848088Y-83096063D01*
X126841944Y-83109241D01*
X126791685Y-83260766D01*
X126788819Y-83274132D01*
X126779328Y-83366770D01*
X126779000Y-83373185D01*
X126779000Y-83447385D01*
X126310499Y-83447385D01*
X126310499Y-83401867D01*
X126303744Y-83339685D01*
X126252614Y-83203296D01*
X126165260Y-83086740D01*
X126048704Y-82999386D01*
X126040295Y-82996234D01*
X126040294Y-82996233D01*
X126016604Y-82987352D01*
X125959839Y-82944711D01*
X125935139Y-82878149D01*
X125950346Y-82808801D01*
X125982827Y-82770420D01*
X126086082Y-82689021D01*
X126086085Y-82689018D01*
X126089003Y-82686718D01*
X126559639Y-82216082D01*
X126565657Y-82210445D01*
X126601051Y-82179405D01*
X126616158Y-82166157D01*
X126619728Y-82161628D01*
X126619736Y-82161620D01*
X126672890Y-82094195D01*
X126674944Y-82091657D01*
X126733532Y-82021212D01*
X126736358Y-82016166D01*
X126736700Y-82015668D01*
X126746945Y-82000336D01*
X126747243Y-81999876D01*
X126750819Y-81995341D01*
X126793485Y-81914245D01*
X126795031Y-81911397D01*
X126839813Y-81831434D01*
X126841669Y-81825967D01*
X126841863Y-81825531D01*
X126849180Y-81808503D01*
X126849408Y-81807951D01*
X126852095Y-81802845D01*
X126853807Y-81797332D01*
X126879259Y-81715365D01*
X126880277Y-81712231D01*
X126886562Y-81693717D01*
X126909730Y-81625465D01*
X126910559Y-81619746D01*
X126910681Y-81619238D01*
X126914775Y-81601144D01*
X126914883Y-81600637D01*
X126916597Y-81595117D01*
X126920750Y-81560033D01*
X126925836Y-81517058D01*
X126927368Y-81504118D01*
X126927791Y-81500905D01*
X126936668Y-81439683D01*
X126940114Y-81415916D01*
X126940114Y-81415914D01*
X126940942Y-81410204D01*
X126937597Y-81325072D01*
X126937500Y-81320126D01*
X126937500Y-78733653D01*
X126937770Y-78725412D01*
X126941785Y-78664154D01*
X126942163Y-78658388D01*
X126931387Y-78567346D01*
X126931044Y-78564071D01*
X126923196Y-78478653D01*
X126923195Y-78478649D01*
X126922667Y-78472900D01*
X126921100Y-78467343D01*
X126920989Y-78466745D01*
X126917387Y-78448634D01*
X126917276Y-78448113D01*
X126916598Y-78442383D01*
X126890325Y-78357773D01*
X126889434Y-78354902D01*
X126888497Y-78351738D01*
X126865197Y-78269120D01*
X126865191Y-78269105D01*
X126863626Y-78263555D01*
X126861074Y-78258379D01*
X126860890Y-78257901D01*
X126854035Y-78240720D01*
X126853808Y-78240173D01*
X126852095Y-78234655D01*
X126809438Y-78153576D01*
X126807948Y-78150651D01*
X126801490Y-78137554D01*
X126784281Y-78102658D01*
X126769978Y-78073654D01*
X126769975Y-78073650D01*
X126767423Y-78068474D01*
X126763966Y-78063844D01*
X126763698Y-78063407D01*
X126753827Y-78047761D01*
X126753508Y-78047270D01*
X126750819Y-78042159D01*
X126694103Y-77970214D01*
X126692114Y-77967622D01*
X126640733Y-77898815D01*
X126640732Y-77898814D01*
X126637280Y-77894191D01*
X126574710Y-77836352D01*
X126571145Y-77832923D01*
X125612346Y-76874124D01*
X125599290Y-76863265D01*
X125499833Y-76780548D01*
X125487713Y-76770468D01*
X125297935Y-76664187D01*
X125166595Y-76619603D01*
X125097441Y-76596128D01*
X125097439Y-76596128D01*
X125091967Y-76594270D01*
X125086249Y-76593441D01*
X125086245Y-76593440D01*
X124995502Y-76580283D01*
X124876705Y-76563058D01*
X124729505Y-76568842D01*
X124665134Y-76571371D01*
X124665132Y-76571371D01*
X124659361Y-76571598D01*
X124653728Y-76572873D01*
X124653725Y-76572873D01*
X124494381Y-76608929D01*
X124447211Y-76619603D01*
X124441905Y-76621883D01*
X124441901Y-76621884D01*
X124252677Y-76703182D01*
X124252674Y-76703184D01*
X124247364Y-76705465D01*
X124242557Y-76708677D01*
X124242555Y-76708678D01*
X124071313Y-76823097D01*
X124071310Y-76823099D01*
X124066508Y-76826308D01*
X123993722Y-76897212D01*
X123930972Y-76930418D01*
X123860229Y-76924426D01*
X123839688Y-76914217D01*
X123712941Y-76836090D01*
X123699759Y-76829944D01*
X123548234Y-76779685D01*
X123534868Y-76776819D01*
X123442230Y-76767328D01*
X123435815Y-76767000D01*
X123361615Y-76767000D01*
X123346376Y-76771475D01*
X123345171Y-76772865D01*
X123343500Y-76780548D01*
X123343500Y-78714885D01*
X122835500Y-78714885D01*
X122835500Y-78022115D01*
X122831025Y-78006876D01*
X122829635Y-78005671D01*
X122821952Y-78004000D01*
X122062115Y-78004000D01*
X122046876Y-78008475D01*
X122045671Y-78009865D01*
X122044000Y-78017548D01*
X122044000Y-78033766D01*
X120908000Y-78033766D01*
X120908000Y-78022115D01*
X120903525Y-78006876D01*
X120902135Y-78005671D01*
X120894452Y-78004000D01*
X120134615Y-78004000D01*
X120119376Y-78008475D01*
X120118171Y-78009865D01*
X120116500Y-78017548D01*
X120116500Y-78714885D01*
X119608500Y-78714885D01*
X119608500Y-77477885D01*
X120116500Y-77477885D01*
X120120975Y-77493124D01*
X120122365Y-77494329D01*
X120130048Y-77496000D01*
X120889885Y-77496000D01*
X120905124Y-77491525D01*
X120906329Y-77490135D01*
X120908000Y-77482452D01*
X120908000Y-77477885D01*
X122044000Y-77477885D01*
X122048475Y-77493124D01*
X122049865Y-77494329D01*
X122057548Y-77496000D01*
X122817385Y-77496000D01*
X122832624Y-77491525D01*
X122833829Y-77490135D01*
X122835500Y-77482452D01*
X122835500Y-76785115D01*
X122831025Y-76769876D01*
X122829635Y-76768671D01*
X122821952Y-76767000D01*
X122743234Y-76767000D01*
X122736718Y-76767337D01*
X122642868Y-76777075D01*
X122629472Y-76779968D01*
X122478047Y-76830488D01*
X122464885Y-76836653D01*
X122329508Y-76920426D01*
X122318110Y-76929460D01*
X122205637Y-77042129D01*
X122196625Y-77053540D01*
X122113088Y-77189063D01*
X122106944Y-77202241D01*
X122056685Y-77353766D01*
X122053819Y-77367132D01*
X122044328Y-77459770D01*
X122044000Y-77466185D01*
X122044000Y-77477885D01*
X120908000Y-77477885D01*
X120908000Y-77466234D01*
X120907663Y-77459718D01*
X120897925Y-77365868D01*
X120895032Y-77352472D01*
X120844512Y-77201047D01*
X120838347Y-77187885D01*
X120754574Y-77052508D01*
X120745540Y-77041110D01*
X120632871Y-76928637D01*
X120621460Y-76919625D01*
X120485937Y-76836088D01*
X120472759Y-76829944D01*
X120321234Y-76779685D01*
X120307868Y-76776819D01*
X120215230Y-76767328D01*
X120208815Y-76767000D01*
X120134615Y-76767000D01*
X120119376Y-76771475D01*
X120118171Y-76772865D01*
X120116500Y-76780548D01*
X120116500Y-77477885D01*
X119608500Y-77477885D01*
X119608500Y-76785115D01*
X119604025Y-76769876D01*
X119602635Y-76768671D01*
X119594952Y-76767000D01*
X119516234Y-76767000D01*
X119509718Y-76767337D01*
X119415868Y-76777075D01*
X119402468Y-76779969D01*
X119349375Y-76797682D01*
X119278426Y-76800266D01*
X119217342Y-76764082D01*
X119185518Y-76700617D01*
X119183500Y-76678158D01*
X119183500Y-74944824D01*
X119168667Y-74783400D01*
X119109626Y-74574055D01*
X119013423Y-74378974D01*
X118883280Y-74204691D01*
X118723556Y-74057044D01*
X118539599Y-73940976D01*
X118337572Y-73860376D01*
X118124239Y-73817941D01*
X118118464Y-73817865D01*
X118118460Y-73817865D01*
X118009419Y-73816438D01*
X117906746Y-73815094D01*
X117901049Y-73816073D01*
X117901048Y-73816073D01*
X117698065Y-73850952D01*
X117698062Y-73850953D01*
X117692375Y-73851930D01*
X117488307Y-73927214D01*
X117301376Y-74038427D01*
X117137842Y-74181842D01*
X117134270Y-74186373D01*
X117112331Y-74214203D01*
X117003181Y-74352658D01*
X116901905Y-74545154D01*
X116837403Y-74752882D01*
X116816500Y-74929490D01*
X116816500Y-76440500D01*
X116796498Y-76508621D01*
X116742842Y-76555114D01*
X116690500Y-76566500D01*
X115044153Y-76566500D01*
X115035912Y-76566230D01*
X115020724Y-76565235D01*
X114968888Y-76561837D01*
X114877846Y-76572613D01*
X114874578Y-76572955D01*
X114868987Y-76573469D01*
X114789153Y-76580804D01*
X114789149Y-76580805D01*
X114783400Y-76581333D01*
X114777843Y-76582900D01*
X114777245Y-76583011D01*
X114759134Y-76586613D01*
X114758613Y-76586724D01*
X114752883Y-76587402D01*
X114747364Y-76589116D01*
X114747363Y-76589116D01*
X114665402Y-76614566D01*
X114662238Y-76615503D01*
X114579620Y-76638803D01*
X114579605Y-76638809D01*
X114574055Y-76640374D01*
X114568879Y-76642926D01*
X114568401Y-76643110D01*
X114551220Y-76649965D01*
X114550673Y-76650192D01*
X114545155Y-76651905D01*
X114521811Y-76664187D01*
X114464090Y-76694555D01*
X114461166Y-76696044D01*
X114442063Y-76705465D01*
X114384154Y-76734022D01*
X114384150Y-76734025D01*
X114378974Y-76736577D01*
X114374344Y-76740034D01*
X114373907Y-76740302D01*
X114358261Y-76750173D01*
X114357770Y-76750492D01*
X114352659Y-76753181D01*
X114280724Y-76809889D01*
X114278133Y-76811877D01*
X114209317Y-76863265D01*
X114209313Y-76863268D01*
X114204691Y-76866720D01*
X114200777Y-76870954D01*
X114200775Y-76870956D01*
X114146853Y-76929289D01*
X114143423Y-76932856D01*
X113712415Y-77363863D01*
X113650103Y-77397888D01*
X113579287Y-77392823D01*
X113522452Y-77350276D01*
X113497641Y-77283756D01*
X113512733Y-77214381D01*
X113519797Y-77202942D01*
X113528714Y-77190090D01*
X113528721Y-77190079D01*
X113530327Y-77187764D01*
X113676298Y-76931101D01*
X113718176Y-76857467D01*
X113718180Y-76857460D01*
X113719565Y-76855024D01*
X113787736Y-76705465D01*
X113877166Y-76509267D01*
X113877171Y-76509256D01*
X113878330Y-76506712D01*
X113879255Y-76504083D01*
X113879260Y-76504070D01*
X114004416Y-76148271D01*
X114005351Y-76145613D01*
X114099615Y-75774612D01*
X114160368Y-75396675D01*
X114186163Y-75028520D01*
X114186492Y-75025620D01*
X114186558Y-75023006D01*
X114187844Y-75014840D01*
X114183703Y-74975795D01*
X114183000Y-74962506D01*
X114183000Y-71709000D01*
X114203002Y-71640879D01*
X114256658Y-71594386D01*
X114309000Y-71583000D01*
X167791000Y-71583000D01*
X167859121Y-71603002D01*
G37*
G04 #@! TD.AperFunction*
G04 #@! TA.AperFunction,Conductor*
G36*
X131160021Y-96696102D02*
G01*
X131206514Y-96749758D01*
X131217900Y-96802100D01*
X131217900Y-100862009D01*
X131197898Y-100930130D01*
X131147628Y-100975015D01*
X131114155Y-100991522D01*
X131108974Y-100994077D01*
X131104348Y-100997531D01*
X131104347Y-100997532D01*
X131027234Y-101055115D01*
X130934691Y-101124220D01*
X130930777Y-101128454D01*
X130930775Y-101128456D01*
X130842648Y-101223792D01*
X130787044Y-101283944D01*
X130670976Y-101467901D01*
X130590376Y-101669928D01*
X130547941Y-101883261D01*
X130547865Y-101889036D01*
X130547865Y-101889040D01*
X130546956Y-101958518D01*
X130545094Y-102100754D01*
X130546073Y-102106451D01*
X130546073Y-102106452D01*
X130580819Y-102308658D01*
X130581930Y-102315125D01*
X130657214Y-102519193D01*
X130768427Y-102706124D01*
X130777655Y-102716646D01*
X130880909Y-102834386D01*
X130910786Y-102898790D01*
X130901100Y-102969123D01*
X130893437Y-102983579D01*
X130816088Y-103109063D01*
X130809944Y-103122241D01*
X130759685Y-103273766D01*
X130756819Y-103287132D01*
X130747328Y-103379770D01*
X130747000Y-103386185D01*
X130747000Y-103460385D01*
X130751475Y-103475624D01*
X130752865Y-103476829D01*
X130760548Y-103478500D01*
X132694885Y-103478500D01*
X132710124Y-103474025D01*
X132711329Y-103472635D01*
X132713000Y-103464952D01*
X132713000Y-103386234D01*
X132712663Y-103379721D01*
X132707504Y-103330005D01*
X132720368Y-103260184D01*
X132768938Y-103208401D01*
X132832831Y-103191000D01*
X134437099Y-103191000D01*
X134505220Y-103211002D01*
X134551713Y-103264658D01*
X134562443Y-103329842D01*
X134557328Y-103379768D01*
X134557000Y-103386185D01*
X134557000Y-103460385D01*
X134561475Y-103475624D01*
X134562865Y-103476829D01*
X134570548Y-103478500D01*
X135668000Y-103478500D01*
X135736121Y-103498502D01*
X135782614Y-103552158D01*
X135794000Y-103604500D01*
X135794000Y-104759885D01*
X135798475Y-104775124D01*
X135799865Y-104776329D01*
X135807548Y-104778000D01*
X135823766Y-104778000D01*
X135830282Y-104777663D01*
X135924132Y-104767925D01*
X135937528Y-104765032D01*
X136088953Y-104714512D01*
X136102115Y-104708347D01*
X136237492Y-104624574D01*
X136248890Y-104615540D01*
X136361363Y-104502871D01*
X136370375Y-104491460D01*
X136453912Y-104355937D01*
X136460056Y-104342759D01*
X136484145Y-104270135D01*
X136524576Y-104211775D01*
X136590140Y-104184538D01*
X136660022Y-104197072D01*
X136712033Y-104245396D01*
X136723262Y-104269925D01*
X136750346Y-104351107D01*
X136841884Y-104499031D01*
X136847066Y-104504204D01*
X136959816Y-104616758D01*
X136959821Y-104616762D01*
X136964997Y-104621929D01*
X136971229Y-104625771D01*
X136971231Y-104625772D01*
X136999617Y-104643270D01*
X137047110Y-104696043D01*
X137059500Y-104750529D01*
X137059500Y-105262433D01*
X137039498Y-105330554D01*
X137027137Y-105346742D01*
X136969633Y-105410607D01*
X136879401Y-105566893D01*
X136877359Y-105573178D01*
X136830769Y-105716570D01*
X136823635Y-105738525D01*
X136822945Y-105745088D01*
X136822945Y-105745089D01*
X136814984Y-105820831D01*
X136804771Y-105918000D01*
X136805461Y-105924565D01*
X136819769Y-106060689D01*
X136823635Y-106097475D01*
X136825675Y-106103753D01*
X136825675Y-106103754D01*
X136835753Y-106134772D01*
X136879401Y-106269107D01*
X136882704Y-106274829D01*
X136882705Y-106274830D01*
X136900459Y-106305581D01*
X136969633Y-106425393D01*
X136974051Y-106430300D01*
X136974052Y-106430301D01*
X137008776Y-106468866D01*
X137086394Y-106555069D01*
X137090387Y-106559504D01*
X137089576Y-106560234D01*
X137123507Y-106615316D01*
X137122153Y-106686300D01*
X137082636Y-106745283D01*
X137017505Y-106773538D01*
X137001956Y-106774501D01*
X132749792Y-106774501D01*
X132681671Y-106754499D01*
X132642651Y-106714808D01*
X132556116Y-106574969D01*
X132535980Y-106554868D01*
X132438184Y-106457242D01*
X132438179Y-106457238D01*
X132433003Y-106452071D01*
X132397686Y-106430301D01*
X132291150Y-106364631D01*
X132291148Y-106364630D01*
X132284920Y-106360791D01*
X132119809Y-106306026D01*
X132112973Y-106305326D01*
X132112970Y-106305325D01*
X132060993Y-106300000D01*
X132017072Y-106295500D01*
X131442928Y-106295500D01*
X131439682Y-106295837D01*
X131439678Y-106295837D01*
X131345765Y-106305581D01*
X131345761Y-106305582D01*
X131338907Y-106306293D01*
X131332371Y-106308474D01*
X131332369Y-106308474D01*
X131243228Y-106338214D01*
X131173893Y-106361346D01*
X131025969Y-106452884D01*
X131020796Y-106458066D01*
X130908242Y-106570816D01*
X130908238Y-106570821D01*
X130903071Y-106575997D01*
X130899231Y-106582227D01*
X130899230Y-106582228D01*
X130826115Y-106700843D01*
X130811791Y-106724080D01*
X130757026Y-106889191D01*
X130756326Y-106896027D01*
X130756325Y-106896030D01*
X130755727Y-106901866D01*
X130746500Y-106991928D01*
X130746500Y-107591072D01*
X130757293Y-107695093D01*
X130812346Y-107860107D01*
X130903884Y-108008031D01*
X130909066Y-108013204D01*
X131010786Y-108114747D01*
X131044865Y-108177030D01*
X131039862Y-108247850D01*
X131010941Y-108292937D01*
X130908246Y-108395812D01*
X130908242Y-108395817D01*
X130903071Y-108400997D01*
X130899229Y-108407229D01*
X130899228Y-108407231D01*
X130874025Y-108448117D01*
X130821253Y-108495610D01*
X130766766Y-108508000D01*
X130248739Y-108508000D01*
X130180618Y-108487998D01*
X130159644Y-108471095D01*
X129931405Y-108242856D01*
X129897379Y-108180544D01*
X129894500Y-108153761D01*
X129894500Y-104078766D01*
X130747000Y-104078766D01*
X130747337Y-104085282D01*
X130757075Y-104179132D01*
X130759968Y-104192528D01*
X130810488Y-104343953D01*
X130816653Y-104357115D01*
X130900426Y-104492492D01*
X130909460Y-104503890D01*
X131022129Y-104616363D01*
X131033540Y-104625375D01*
X131169063Y-104708912D01*
X131182241Y-104715056D01*
X131333766Y-104765315D01*
X131347132Y-104768181D01*
X131439770Y-104777672D01*
X131446185Y-104778000D01*
X131457885Y-104778000D01*
X131473124Y-104773525D01*
X131474329Y-104772135D01*
X131476000Y-104764452D01*
X131476000Y-104759885D01*
X131984000Y-104759885D01*
X131988475Y-104775124D01*
X131989865Y-104776329D01*
X131997548Y-104778000D01*
X132013766Y-104778000D01*
X132020282Y-104777663D01*
X132114132Y-104767925D01*
X132127528Y-104765032D01*
X132278953Y-104714512D01*
X132292115Y-104708347D01*
X132427492Y-104624574D01*
X132438890Y-104615540D01*
X132551363Y-104502871D01*
X132560375Y-104491460D01*
X132643912Y-104355937D01*
X132650056Y-104342759D01*
X132700315Y-104191234D01*
X132703181Y-104177868D01*
X132712672Y-104085230D01*
X132713000Y-104078815D01*
X132713000Y-104078766D01*
X134557000Y-104078766D01*
X134557337Y-104085282D01*
X134567075Y-104179132D01*
X134569968Y-104192528D01*
X134620488Y-104343953D01*
X134626653Y-104357115D01*
X134710426Y-104492492D01*
X134719460Y-104503890D01*
X134832129Y-104616363D01*
X134843540Y-104625375D01*
X134979063Y-104708912D01*
X134992241Y-104715056D01*
X135143766Y-104765315D01*
X135157132Y-104768181D01*
X135249770Y-104777672D01*
X135256185Y-104778000D01*
X135267885Y-104778000D01*
X135283124Y-104773525D01*
X135284329Y-104772135D01*
X135286000Y-104764452D01*
X135286000Y-104004615D01*
X135281525Y-103989376D01*
X135280135Y-103988171D01*
X135272452Y-103986500D01*
X134575115Y-103986500D01*
X134559876Y-103990975D01*
X134558671Y-103992365D01*
X134557000Y-104000048D01*
X134557000Y-104078766D01*
X132713000Y-104078766D01*
X132713000Y-104004615D01*
X132708525Y-103989376D01*
X132707135Y-103988171D01*
X132699452Y-103986500D01*
X132002115Y-103986500D01*
X131986876Y-103990975D01*
X131985671Y-103992365D01*
X131984000Y-104000048D01*
X131984000Y-104759885D01*
X131476000Y-104759885D01*
X131476000Y-104004615D01*
X131471525Y-103989376D01*
X131470135Y-103988171D01*
X131462452Y-103986500D01*
X130765115Y-103986500D01*
X130749876Y-103990975D01*
X130748671Y-103992365D01*
X130747000Y-104000048D01*
X130747000Y-104078766D01*
X129894500Y-104078766D01*
X129894500Y-96824239D01*
X129914502Y-96756118D01*
X129931405Y-96735144D01*
X129953544Y-96713005D01*
X130015856Y-96678979D01*
X130042639Y-96676100D01*
X131091900Y-96676100D01*
X131160021Y-96696102D01*
G37*
G04 #@! TD.AperFunction*
G04 #@! TA.AperFunction,Conductor*
G36*
X132502166Y-90937300D02*
G01*
X132776234Y-90937300D01*
X132828796Y-90931590D01*
X132856004Y-90931590D01*
X132908566Y-90937300D01*
X133182634Y-90937300D01*
X133235196Y-90931590D01*
X133262404Y-90931590D01*
X133314966Y-90937300D01*
X133589034Y-90937300D01*
X133641596Y-90931590D01*
X133668804Y-90931590D01*
X133721366Y-90937300D01*
X133995434Y-90937300D01*
X134047996Y-90931590D01*
X134075204Y-90931590D01*
X134127766Y-90937300D01*
X134401834Y-90937300D01*
X134454396Y-90931590D01*
X134481604Y-90931590D01*
X134534166Y-90937300D01*
X134808234Y-90937300D01*
X134860796Y-90931590D01*
X134888004Y-90931590D01*
X134940566Y-90937300D01*
X135214634Y-90937300D01*
X135267196Y-90931590D01*
X135294404Y-90931590D01*
X135346966Y-90937300D01*
X135621034Y-90937300D01*
X135673596Y-90931590D01*
X135700804Y-90931590D01*
X135753366Y-90937300D01*
X136027434Y-90937300D01*
X136079996Y-90931590D01*
X136107204Y-90931590D01*
X136159766Y-90937300D01*
X136433834Y-90937300D01*
X136486396Y-90931590D01*
X136513604Y-90931590D01*
X136566166Y-90937300D01*
X136830700Y-90937300D01*
X136898821Y-90957302D01*
X136945314Y-91010958D01*
X136956700Y-91063300D01*
X136956700Y-91327834D01*
X136962410Y-91380396D01*
X136962410Y-91407604D01*
X136956700Y-91460166D01*
X136956700Y-91734234D01*
X136962410Y-91786796D01*
X136962410Y-91814004D01*
X136956700Y-91866566D01*
X136956700Y-92140634D01*
X136962410Y-92193196D01*
X136962410Y-92220404D01*
X136956700Y-92272966D01*
X136956700Y-92547034D01*
X136962410Y-92599596D01*
X136962410Y-92626804D01*
X136956700Y-92679366D01*
X136956700Y-92953434D01*
X136962410Y-93005996D01*
X136962410Y-93033204D01*
X136956700Y-93085766D01*
X136956700Y-93359834D01*
X136962410Y-93412396D01*
X136962410Y-93439604D01*
X136956700Y-93492166D01*
X136956700Y-93766234D01*
X136962410Y-93818796D01*
X136962410Y-93846004D01*
X136956700Y-93898566D01*
X136956700Y-94172634D01*
X136957069Y-94176028D01*
X136957069Y-94176031D01*
X136962662Y-94227516D01*
X136962662Y-94254732D01*
X136957569Y-94301614D01*
X136957200Y-94308427D01*
X136957201Y-94575568D01*
X136957571Y-94582391D01*
X136962662Y-94629269D01*
X136962662Y-94656481D01*
X136962067Y-94661962D01*
X136956700Y-94711366D01*
X136956700Y-94985434D01*
X136962410Y-95037996D01*
X136962410Y-95065204D01*
X136956700Y-95117766D01*
X136956700Y-95391834D01*
X136962410Y-95444396D01*
X136962410Y-95471604D01*
X136956700Y-95524166D01*
X136956700Y-95788700D01*
X136936698Y-95856821D01*
X136883042Y-95903314D01*
X136830700Y-95914700D01*
X136566166Y-95914700D01*
X136513604Y-95920410D01*
X136486396Y-95920410D01*
X136433834Y-95914700D01*
X136159766Y-95914700D01*
X136107204Y-95920410D01*
X136079996Y-95920410D01*
X136027434Y-95914700D01*
X135753366Y-95914700D01*
X135700804Y-95920410D01*
X135673596Y-95920410D01*
X135621034Y-95914700D01*
X135346966Y-95914700D01*
X135294404Y-95920410D01*
X135267196Y-95920410D01*
X135214634Y-95914700D01*
X134940566Y-95914700D01*
X134888004Y-95920410D01*
X134860796Y-95920410D01*
X134808234Y-95914700D01*
X134534166Y-95914700D01*
X134481604Y-95920410D01*
X134454396Y-95920410D01*
X134401834Y-95914700D01*
X134127766Y-95914700D01*
X134075204Y-95920410D01*
X134047996Y-95920410D01*
X133995434Y-95914700D01*
X133721366Y-95914700D01*
X133668804Y-95920410D01*
X133641596Y-95920410D01*
X133589034Y-95914700D01*
X133314966Y-95914700D01*
X133262404Y-95920410D01*
X133235196Y-95920410D01*
X133182634Y-95914700D01*
X132908566Y-95914700D01*
X132856004Y-95920410D01*
X132828796Y-95920410D01*
X132776234Y-95914700D01*
X132502166Y-95914700D01*
X132449604Y-95920410D01*
X132422396Y-95920410D01*
X132369834Y-95914700D01*
X132105300Y-95914700D01*
X132037179Y-95894698D01*
X131990686Y-95841042D01*
X131979300Y-95788700D01*
X131979300Y-95524166D01*
X131973590Y-95471604D01*
X131973590Y-95444396D01*
X131979300Y-95391834D01*
X131979300Y-95117766D01*
X131974205Y-95070869D01*
X132359801Y-95070869D01*
X132360171Y-95077690D01*
X132365695Y-95128552D01*
X132369321Y-95143804D01*
X132414476Y-95264254D01*
X132423014Y-95279849D01*
X132499515Y-95381924D01*
X132512076Y-95394485D01*
X132614151Y-95470986D01*
X132629746Y-95479524D01*
X132750194Y-95524678D01*
X132765449Y-95528305D01*
X132816314Y-95533831D01*
X132823128Y-95534200D01*
X134195885Y-95534200D01*
X134211124Y-95529725D01*
X134212329Y-95528335D01*
X134214000Y-95520652D01*
X134214000Y-95516084D01*
X134722000Y-95516084D01*
X134726475Y-95531323D01*
X134727865Y-95532528D01*
X134735548Y-95534199D01*
X136112869Y-95534199D01*
X136119690Y-95533829D01*
X136170552Y-95528305D01*
X136185804Y-95524679D01*
X136306254Y-95479524D01*
X136321849Y-95470986D01*
X136423924Y-95394485D01*
X136436485Y-95381924D01*
X136512986Y-95279849D01*
X136521524Y-95264254D01*
X136566678Y-95143806D01*
X136570305Y-95128551D01*
X136575831Y-95077686D01*
X136576200Y-95070872D01*
X136576200Y-93698115D01*
X136571725Y-93682876D01*
X136570335Y-93681671D01*
X136562652Y-93680000D01*
X134740115Y-93680000D01*
X134724876Y-93684475D01*
X134723671Y-93685865D01*
X134722000Y-93693548D01*
X134722000Y-95516084D01*
X134214000Y-95516084D01*
X134214000Y-93698115D01*
X134209525Y-93682876D01*
X134208135Y-93681671D01*
X134200452Y-93680000D01*
X132377916Y-93680000D01*
X132362677Y-93684475D01*
X132361472Y-93685865D01*
X132359801Y-93693548D01*
X132359801Y-95070869D01*
X131974205Y-95070869D01*
X131973590Y-95065204D01*
X131973590Y-95037996D01*
X131979300Y-94985434D01*
X131979300Y-94711366D01*
X131973590Y-94658804D01*
X131973590Y-94631596D01*
X131979300Y-94579034D01*
X131979300Y-94304966D01*
X131973590Y-94252404D01*
X131973590Y-94225196D01*
X131979300Y-94172634D01*
X131979300Y-93898566D01*
X131973590Y-93846004D01*
X131973590Y-93818796D01*
X131979300Y-93766234D01*
X131979300Y-93492166D01*
X131973590Y-93439604D01*
X131973590Y-93412396D01*
X131979300Y-93359834D01*
X131979300Y-93153885D01*
X132359800Y-93153885D01*
X132364275Y-93169124D01*
X132365665Y-93170329D01*
X132373348Y-93172000D01*
X134195885Y-93172000D01*
X134211124Y-93167525D01*
X134212329Y-93166135D01*
X134214000Y-93158452D01*
X134214000Y-93153885D01*
X134722000Y-93153885D01*
X134726475Y-93169124D01*
X134727865Y-93170329D01*
X134735548Y-93172000D01*
X136558084Y-93172000D01*
X136573323Y-93167525D01*
X136574528Y-93166135D01*
X136576199Y-93158452D01*
X136576199Y-91781131D01*
X136575829Y-91774310D01*
X136570305Y-91723448D01*
X136566679Y-91708196D01*
X136521524Y-91587746D01*
X136512986Y-91572151D01*
X136436485Y-91470076D01*
X136423924Y-91457515D01*
X136321849Y-91381014D01*
X136306254Y-91372476D01*
X136185806Y-91327322D01*
X136170551Y-91323695D01*
X136119686Y-91318169D01*
X136112872Y-91317800D01*
X134740115Y-91317800D01*
X134724876Y-91322275D01*
X134723671Y-91323665D01*
X134722000Y-91331348D01*
X134722000Y-93153885D01*
X134214000Y-93153885D01*
X134214000Y-91335916D01*
X134209525Y-91320677D01*
X134208135Y-91319472D01*
X134200452Y-91317801D01*
X132823131Y-91317801D01*
X132816310Y-91318171D01*
X132765448Y-91323695D01*
X132750196Y-91327321D01*
X132629746Y-91372476D01*
X132614151Y-91381014D01*
X132512076Y-91457515D01*
X132499515Y-91470076D01*
X132423014Y-91572151D01*
X132414476Y-91587746D01*
X132369322Y-91708194D01*
X132365695Y-91723449D01*
X132360169Y-91774314D01*
X132359800Y-91781128D01*
X132359800Y-93153885D01*
X131979300Y-93153885D01*
X131979300Y-93085766D01*
X131973590Y-93033204D01*
X131973590Y-93005996D01*
X131979300Y-92953434D01*
X131979300Y-92679366D01*
X131973590Y-92626804D01*
X131973590Y-92599596D01*
X131979300Y-92547034D01*
X131979300Y-92272966D01*
X131973590Y-92220404D01*
X131973590Y-92193196D01*
X131979300Y-92140634D01*
X131979300Y-91866566D01*
X131973590Y-91814004D01*
X131973590Y-91786796D01*
X131979300Y-91734234D01*
X131979300Y-91460166D01*
X131973590Y-91407604D01*
X131973590Y-91380396D01*
X131979300Y-91327834D01*
X131979300Y-91063300D01*
X131999302Y-90995179D01*
X132052958Y-90948686D01*
X132105300Y-90937300D01*
X132369834Y-90937300D01*
X132422396Y-90931590D01*
X132449604Y-90931590D01*
X132502166Y-90937300D01*
G37*
G04 #@! TD.AperFunction*
G04 #@! TA.AperFunction,Conductor*
G36*
X107543500Y-89957726D02*
G01*
X107577035Y-89962201D01*
X107577038Y-89962201D01*
X107584015Y-89963132D01*
X107591026Y-89962494D01*
X107591030Y-89962494D01*
X107649845Y-89957141D01*
X107716582Y-89951067D01*
X107786233Y-89964812D01*
X107837398Y-90014033D01*
X107854000Y-90076548D01*
X107854000Y-93427885D01*
X107858475Y-93443124D01*
X107859865Y-93444329D01*
X107867548Y-93446000D01*
X108972000Y-93446000D01*
X109040121Y-93466002D01*
X109086614Y-93519658D01*
X109098000Y-93572000D01*
X109098000Y-93581885D01*
X109102475Y-93597124D01*
X109103865Y-93598329D01*
X109113823Y-93600495D01*
X109176135Y-93634520D01*
X109187866Y-93648050D01*
X109236739Y-93713261D01*
X109311950Y-93769628D01*
X109316681Y-93773174D01*
X109359196Y-93830033D01*
X109364222Y-93900851D01*
X109330162Y-93963145D01*
X109267831Y-93997135D01*
X109241116Y-94000000D01*
X109144289Y-94000000D01*
X109076168Y-93979998D01*
X109061777Y-93969225D01*
X109046135Y-93955671D01*
X109038452Y-93954000D01*
X107872115Y-93954000D01*
X107856876Y-93958475D01*
X107855671Y-93959865D01*
X107854000Y-93967548D01*
X107854000Y-94924454D01*
X107833998Y-94992575D01*
X107780342Y-95039068D01*
X107713082Y-95049568D01*
X107625020Y-95039068D01*
X107605329Y-95036720D01*
X107598326Y-95037456D01*
X107598325Y-95037456D01*
X107534693Y-95044144D01*
X107485170Y-95049349D01*
X107415332Y-95036577D01*
X107363485Y-94988075D01*
X107346000Y-94924039D01*
X107346000Y-90075302D01*
X107366002Y-90007181D01*
X107419658Y-89960688D01*
X107488663Y-89950409D01*
X107543500Y-89957726D01*
G37*
G04 #@! TD.AperFunction*
G04 #@! TA.AperFunction,Conductor*
G36*
X110420493Y-93878502D02*
G01*
X110466986Y-93932158D01*
X110477090Y-94002432D01*
X110475492Y-94011285D01*
X110475000Y-94013547D01*
X110475000Y-94422000D01*
X110454998Y-94490121D01*
X110401342Y-94536614D01*
X110349000Y-94548000D01*
X110201000Y-94548000D01*
X110132879Y-94527998D01*
X110086386Y-94474342D01*
X110075000Y-94422000D01*
X110075000Y-94000000D01*
X110075552Y-94000000D01*
X110075553Y-93949000D01*
X110113938Y-93889275D01*
X110178519Y-93859782D01*
X110196449Y-93858500D01*
X110352372Y-93858500D01*
X110420493Y-93878502D01*
G37*
G04 #@! TD.AperFunction*
M02*
