G04 #@! TF.GenerationSoftware,KiCad,Pcbnew,(6.0.0-rc1-318-g91359c047d)*
G04 #@! TF.CreationDate,2022-02-27T09:20:33+02:00*
G04 #@! TF.ProjectId,ControlUnitRP2040,436f6e74-726f-46c5-956e-697452503230,rev?*
G04 #@! TF.SameCoordinates,Original*
G04 #@! TF.FileFunction,Soldermask,Top*
G04 #@! TF.FilePolarity,Negative*
%FSLAX46Y46*%
G04 Gerber Fmt 4.6, Leading zero omitted, Abs format (unit mm)*
G04 Created by KiCad (PCBNEW (6.0.0-rc1-318-g91359c047d)) date 2022-02-27 09:20:33*
%MOMM*%
%LPD*%
G01*
G04 APERTURE LIST*
G04 Aperture macros list*
%AMRoundRect*
0 Rectangle with rounded corners*
0 $1 Rounding radius*
0 $2 $3 $4 $5 $6 $7 $8 $9 X,Y pos of 4 corners*
0 Add a 4 corners polygon primitive as box body*
4,1,4,$2,$3,$4,$5,$6,$7,$8,$9,$2,$3,0*
0 Add four circle primitives for the rounded corners*
1,1,$1+$1,$2,$3*
1,1,$1+$1,$4,$5*
1,1,$1+$1,$6,$7*
1,1,$1+$1,$8,$9*
0 Add four rect primitives between the rounded corners*
20,1,$1+$1,$2,$3,$4,$5,0*
20,1,$1+$1,$4,$5,$6,$7,0*
20,1,$1+$1,$6,$7,$8,$9,0*
20,1,$1+$1,$8,$9,$2,$3,0*%
G04 Aperture macros list end*
G04 #@! TA.AperFunction,Profile*
%ADD10C,0.100000*%
G04 #@! TD*
%ADD11C,3.500000*%
%ADD12RoundRect,0.237500X0.250000X0.237500X-0.250000X0.237500X-0.250000X-0.237500X0.250000X-0.237500X0*%
%ADD13R,1.610000X0.580000*%
%ADD14RoundRect,0.237500X-0.237500X0.250000X-0.237500X-0.250000X0.237500X-0.250000X0.237500X0.250000X0*%
%ADD15R,1.041400X0.660400*%
%ADD16RoundRect,0.237500X0.300000X0.237500X-0.300000X0.237500X-0.300000X-0.237500X0.300000X-0.237500X0*%
%ADD17RoundRect,0.237500X0.237500X-0.300000X0.237500X0.300000X-0.237500X0.300000X-0.237500X-0.300000X0*%
%ADD18R,0.999999X0.500000*%
%ADD19R,0.950000X0.950000*%
%ADD20R,1.700000X1.700000*%
%ADD21O,1.700000X1.700000*%
%ADD22RoundRect,0.237500X-0.237500X0.300000X-0.237500X-0.300000X0.237500X-0.300000X0.237500X0.300000X0*%
%ADD23RoundRect,0.237500X0.237500X-0.250000X0.237500X0.250000X-0.237500X0.250000X-0.237500X-0.250000X0*%
%ADD24RoundRect,0.664200X0.145800X-1.695800X0.145800X1.695800X-0.145800X1.695800X-0.145800X-1.695800X0*%
%ADD25RoundRect,0.237500X-0.250000X-0.237500X0.250000X-0.237500X0.250000X0.237500X-0.250000X0.237500X0*%
%ADD26RoundRect,0.237500X-0.300000X-0.237500X0.300000X-0.237500X0.300000X0.237500X-0.300000X0.237500X0*%
%ADD27C,0.500000*%
%ADD28R,1.350000X0.400000*%
%ADD29R,1.400000X1.600000*%
%ADD30R,1.900000X1.900000*%
%ADD31O,1.800000X0.900000*%
%ADD32R,1.041400X0.454000*%
%ADD33R,0.177800X0.812800*%
%ADD34R,0.812800X0.177800*%
%ADD35R,3.200400X3.200400*%
G04 APERTURE END LIST*
D10*
X110000001Y-71000001D02*
X172000000Y-71000000D01*
X106000001Y-109999999D02*
X106000001Y-75000001D01*
X171999999Y-113999999D02*
X110000001Y-113999999D01*
X176000000Y-75000000D02*
X175999999Y-109999999D01*
X176000000Y-75000000D02*
G75*
G03*
X172000000Y-71000000I-4000000J0D01*
G01*
X110000001Y-71000001D02*
G75*
G03*
X106000001Y-75000001I0J-4000000D01*
G01*
X106000001Y-109999999D02*
G75*
G03*
X110000001Y-113999999I4000000J0D01*
G01*
X171999999Y-113999999D02*
G75*
G03*
X175999999Y-109999999I0J4000000D01*
G01*
D11*
X109800000Y-110100000D03*
X109800000Y-74800000D03*
X172200000Y-74800000D03*
X172250000Y-110250000D03*
D12*
X124412500Y-91186000D03*
X122587500Y-91186000D03*
D13*
X124509000Y-109347000D03*
X124509000Y-108077000D03*
X124509000Y-106807000D03*
X124509000Y-105537000D03*
X117299000Y-105537000D03*
X117299000Y-106807000D03*
X117299000Y-108077000D03*
X117299000Y-109347000D03*
D14*
X152500000Y-87479500D03*
X152500000Y-89304500D03*
D15*
X142705000Y-107383001D03*
X146855000Y-107383001D03*
X142705000Y-109532999D03*
X146855000Y-109532999D03*
D16*
X123112500Y-95250000D03*
X121387500Y-95250000D03*
D17*
X131826000Y-85444500D03*
X131826000Y-83719500D03*
D12*
X122587500Y-93250000D03*
X124412500Y-93250000D03*
D18*
X122602000Y-81799999D03*
X122602000Y-82750000D03*
X122602000Y-83700001D03*
X125302000Y-83700001D03*
X125302000Y-81799999D03*
D19*
X169000000Y-93350000D03*
X169000000Y-91850000D03*
D16*
X124814500Y-77750000D03*
X123089500Y-77750000D03*
D20*
X161800000Y-107800000D03*
D21*
X161800000Y-105260000D03*
X161800000Y-102720000D03*
X161800000Y-100180000D03*
D20*
X161750000Y-91225000D03*
D21*
X161750000Y-93765000D03*
D22*
X131730000Y-102007500D03*
X131730000Y-103732500D03*
D14*
X131730000Y-107291500D03*
X131730000Y-109116500D03*
D23*
X152500000Y-93622500D03*
X152500000Y-91797500D03*
D17*
X127762000Y-85444500D03*
X127762000Y-83719500D03*
X129698000Y-85444500D03*
X129698000Y-83719500D03*
D14*
X137668000Y-101957500D03*
X137668000Y-103782500D03*
D24*
X144724400Y-98770000D03*
X144724400Y-89190000D03*
D25*
X137517500Y-83566000D03*
X139342500Y-83566000D03*
D16*
X123112500Y-89000000D03*
X121387500Y-89000000D03*
D26*
X118137500Y-77750000D03*
X119862500Y-77750000D03*
X143917500Y-81534000D03*
X145642500Y-81534000D03*
D14*
X118000000Y-81837500D03*
X118000000Y-83662500D03*
D27*
X107600000Y-95800000D03*
X107600000Y-89200000D03*
D28*
X110275000Y-91200000D03*
X110275000Y-91850000D03*
X110275000Y-92500000D03*
X110275000Y-93150000D03*
X110275000Y-93800000D03*
D29*
X110050000Y-89300000D03*
X110050000Y-95700000D03*
D30*
X107600000Y-93700000D03*
X107600000Y-91300000D03*
D31*
X107600000Y-89200000D03*
X107600000Y-95800000D03*
D26*
X143917500Y-83566000D03*
X145642500Y-83566000D03*
D20*
X161750000Y-77475000D03*
D21*
X161750000Y-80015000D03*
X161750000Y-82555000D03*
D17*
X148788400Y-89254500D03*
X148788400Y-87529500D03*
D22*
X135540000Y-102007500D03*
X135540000Y-103732500D03*
D17*
X135540000Y-85444500D03*
X135540000Y-83719500D03*
D32*
X114000000Y-80846600D03*
X114000000Y-84653400D03*
D23*
X148788400Y-93622500D03*
X148788400Y-91797500D03*
D22*
X148788400Y-98705500D03*
X148788400Y-100430500D03*
D26*
X129612500Y-111750000D03*
X127887500Y-111750000D03*
D16*
X124814500Y-99568000D03*
X123089500Y-99568000D03*
D33*
X131826400Y-96829600D03*
X132232800Y-96829600D03*
X132639200Y-96829600D03*
X133045600Y-96829600D03*
X133452000Y-96829600D03*
X133858400Y-96829600D03*
X134264800Y-96829600D03*
X134671200Y-96829600D03*
X135077600Y-96829600D03*
X135484000Y-96829600D03*
X135890400Y-96829600D03*
X136296800Y-96829600D03*
X136703200Y-96829600D03*
X137109600Y-96829600D03*
D34*
X137871600Y-96067600D03*
X137871600Y-95661200D03*
X137871600Y-95254800D03*
X137871600Y-94848400D03*
X137871600Y-94442000D03*
X137871600Y-94035600D03*
X137871600Y-93629200D03*
X137871600Y-93222800D03*
X137871600Y-92816400D03*
X137871600Y-92410000D03*
X137871600Y-92003600D03*
X137871600Y-91597200D03*
X137871600Y-91190800D03*
X137871600Y-90784400D03*
D33*
X137109600Y-90022400D03*
X136703200Y-90022400D03*
X136296800Y-90022400D03*
X135890400Y-90022400D03*
X135484000Y-90022400D03*
X135077600Y-90022400D03*
X134671200Y-90022400D03*
X134264800Y-90022400D03*
X133858400Y-90022400D03*
X133452000Y-90022400D03*
X133045600Y-90022400D03*
X132639200Y-90022400D03*
X132232800Y-90022400D03*
X131826400Y-90022400D03*
D34*
X131064400Y-90784400D03*
X131064400Y-91190800D03*
X131064400Y-91597200D03*
X131064400Y-92003600D03*
X131064400Y-92410000D03*
X131064400Y-92816400D03*
X131064400Y-93222800D03*
X131064400Y-93629200D03*
X131064400Y-94035600D03*
X131064400Y-94442000D03*
X131064400Y-94848400D03*
X131064400Y-95254800D03*
X131064400Y-95661200D03*
X131064400Y-96067600D03*
D35*
X134468000Y-93426000D03*
M02*
