M48
METRIC,TZ
T1C0.300
T2C0.500
T3C1.000
%
G90
G05
T1
X109000Y-104000
X110000Y-80000
X110050Y-85950
X110050Y-99050
X113538Y-95758
X115000Y-72500
X118000Y-75000
X118750Y-100000
X120000Y-82250
X121000Y-109250
X121388Y-97863
X121500Y-77750
X123250Y-86500
X124250Y-111750
X124798Y-97198
X124815Y-101447
X125754Y-79754
X125754Y-86496
X126873Y-105537
X127762Y-82042
X129698Y-82052
X131826Y-82042
X133000Y-87750
X133000Y-99500
X133300Y-92300
X133300Y-93400
X133300Y-94600
X133858Y-104394
X134500Y-87750
X134500Y-99500
X134880Y-109220
X135500Y-72500
X135540Y-82138
X135600Y-92300
X135600Y-93400
X135600Y-94600
X137668Y-105918
X137822Y-98907
X138445Y-85444
X140521Y-109533
X140700Y-96200
X141250Y-95000
X143764Y-80010
X143918Y-85444
X145642Y-79857
X148785Y-109533
X148788Y-85712
X148788Y-102212
X150000Y-72500
X150500Y-83000
X152500Y-85500
X152500Y-96200
X155750Y-99500
X165000Y-72500
X165000Y-111000
X166750Y-106500
X172400Y-93350
X172500Y-80000
X172500Y-87500
X172500Y-97500
X172500Y-103500
T3
X161750Y-77475
X161750Y-80015
X161750Y-82555
X161750Y-91225
X161750Y-93765
X161800Y-100180
X161800Y-102720
X161800Y-105260
X161800Y-107800
T2
G00X107950Y-89200
M15
G01X107250Y-89200
M16
G05
G00X107950Y-95800
M15
G01X107250Y-95800
M16
G05
T0
M30
